{
.appVersion = "3139";
.formatVersion = 3;
DisplayStrings = (
"ABCDEFGHIJ
KLMNOPQR
STUVWXYZ.,;:-!?“”  
1234567890 11 
ÁĂǍÂÄÀĀÅÃ
",
" DIE GNU TYPOGRAFIE 
",
"DESIGNING THE USER INTERFACE: STRATEGIES FOR EFFECTIVE HUMAN-COMPUTER INTERACTION SECOND EDITION
      
FINITE MATHEMATICS WITH APPLICATIONS GOODMAN AND RATTI 

ISSUE 8 NEW TYPE DESIGN",
"KNOWLEDGE TRIUMPHANT: 
THE CONCEPT OF KNOWLEDGE IN MEDIEVAL ISLAM BY FRANZ ROSENTHAL  ",
"01234567890 ",
"?",
X
);
axes = (
{
name = Weight;
tag = wght;
}
);
customParameters = (
{
name = fsType;
value = (
);
},
{
name = "Write lastChange";
value = 0;
},
{
name = "Use Typo Metrics";
value = 1;
},
{
name = "Use Line Breaks";
value = 1;
},
{
name = "Enforce Compatibility Check";
value = 0;
}
);
date = "2021-11-25 19:11:22 +0000";
familyName = Blocksyncer;
fontMaster = (
{
axesValues = (
180
);
customParameters = (
{
name = hheaAscender;
value = 935;
},
{
name = hheaDescender;
value = -371;
},
{
name = hheaLineGap;
value = 0;
},
{
name = typoAscender;
value = 935;
},
{
name = typoDescender;
value = -371;
},
{
name = typoLineGap;
value = 0;
},
{
name = underlinePosition;
value = -99;
},
{
name = winAscent;
value = 1040;
},
{
name = winDescent;
value = 415;
}
);
iconName = SemiBold_Condensed;
id = m01;
metricValues = (
{
over = 10;
pos = 740;
},
{
over = 10;
pos = 700;
},
{
over = 10;
pos = 530;
},
{
over = -10;
},
{
over = -10;
pos = -225;
},
{
}
);
name = Regular;
visible = 1;
},
{
axesValues = (
220
);
customParameters = (
{
name = hheaAscender;
value = 935;
},
{
name = hheaDescender;
value = -371;
},
{
name = hheaLineGap;
value = 0;
},
{
name = typoAscender;
value = 935;
},
{
name = typoDescender;
value = -371;
},
{
name = typoLineGap;
value = 0;
},
{
name = underlinePosition;
value = -99;
},
{
name = winAscent;
value = 1040;
},
{
name = winDescent;
value = 415;
}
);
iconName = Bold_Condensed;
id = "6ABCF30A-460E-4EED-802C-9E4699B7E7F6";
metricValues = (
{
over = 10;
pos = 740;
},
{
over = 10;
pos = 700;
},
{
over = 10;

glyphs = (
{
color = 5;
glyphname = A;
kernLeft = A;
kernRight = A;
layers = (
{
anchors = (
{
name = bottom;
pos = (240,0);
},
{
name = tmp;
pos = (240,290);
},
{
name = top;
pos = (240,700);
}
);
layerId = m01;
shapes = (
{
closed = 1;
nodes = (
(162,0,ls),
(182,0,o),
(189,9,o),
(192,40,cs),
(200,120,ls),
(202,135,o),
(205,140,o),
(220,140,cs),
(260,140,ls),
(275,140,o),
(278,135,o),
(280,120,cs),
(288,40,ls),
(291,9,o),
(298,0,o),
(318,0,cs),
(430,0,ls),
(460,0,o),
(470,10,o),
(470,40,cs),
(470,60,o),
(463,100,o),
(460,120,cs),
(380,660,ls),
(376,690,o),
(360,700,o),
(330,700,cs),
(150,700,ls),
(120,700,o),
(104,690,o),
(100,660,cs),
(20,120,ls),
(17,100,o),
(10,60,o),
(10,40,cs),
(10,10,o),
(20,0,o),
(50,0,cs)
);
},
{
closed = 1;
nodes = (
(214,290,o),
(210,295,o),
(210,306,cs),
(210,313,o),
(211,320,o),
(212,331,cs),
(230,530,ls),
(231,543,o),
(234,550,o),
(240,550,cs),
(246,550,o),
(249,543,o),
(250,530,cs),
(268,331,ls),
(269,320,o),
(270,313,o),
(270,306,cs),
(270,295,o),
(265,290,o),
(250,290,cs),
(230,290,ls)
);
}
);
width = 480;
},
{
anchors = (
{
name = bottom;
pos = (270,0);
},
{
name = tmp;
pos = (270,290);
},
{
name = top;
pos = (270,700);
}
);
associatedMasterId = m01;
layerId = "5D24E92C-7759-4DC5-8685-4175C3E8CE77";
name = "Sep 12, 22, 19:56";
shapes = (
{
closed = 1;
nodes = (
(155,0,ls),
(175,0,o),
(189,10,o),
(195,40,cs),
(210,120,ls),
(214,141,o),
(220,150,o),
(240,150,cs),
(300,150,ls),
(320,150,o),
(326,141,o),
(330,120,cs),
(345,40,ls),
(351,10,o),
(365,0,o),
(385,0,cs),
(490,0,ls),
(520,0,o),
(530,10,o),
(530,40,cs),
(530,80,o),
(435,530,o),
(412,640,cs),
(402,690,o),
(390,700,o),
(360,700,cs),
(180,700,ls),
(150,700,o),
(138,690,o),
(128,640,cs),
(105,530,o),
(10,80,o),
(10,40,cs),
(10,10,o),
(20,0,o),
(50,0,cs)
);
},
{
closed = 1;
nodes = (
(235,290,o),
(230,295,o),
(230,310,cs),
(230,330,o),
(243,420,o),
(256,530,cs),
(257,540,o),
(260,550,o),
(270,550,cs),
(280,550,o),
(282,539,o),
(283,530,cs),
(297,419,o),
(310,330,o),
(310,310,cs),
(310,295,o),
(305,290,o),
(290,290,cs),
(250,290,ls)
);
}
);
width = 540;
},
{
anchors = (
{
name = bottom;
pos = (240,0);
},
{
name = tmp;
pos = (240,290);
},
{
name = top;
pos = (240,700);
}
);
layerId = "6ABCF30A-460E-4EED-802C-9E4699B7E7F6";
shapes = (
{
closed = 1;
nodes = (
(152,0,ls),
(172,0,o),
(189,9,o),
(192,40,cs),
(200,130,ls),
(201,145,o),
(205,150,o),
(220,150,cs),
(260,150,ls),
(275,150,o),
(279,145,o),
(280,130,cs),
(288,40,ls),
(291,9,o),
(308,0,o),
(328,0,cs),
(430,0,ls),
(460,0,o),
(470,10,o),
(470,40,cs),
(470,50,o),
(467,79,o),
(460,128,cs),
(392,640,ls),
(387,680,o),
(380,700,o),
(340,700,cs),
(140,700,ls),
(100,700,o),
(93,680,o),
(88,640,cs),
(20,128,ls),
(14,82,o),
(10,50,o),
(10,40,cs),
(10,10,o),
(20,0,o),
(50,0,cs)
);
},
{
closed = 1;
nodes = (
(214,290,o),
(210,295,o),
(210,306,cs),
(210,313,o),
(210,320,o),
(211,331,cs),
(225,530,ls),
(226,541,o),
(230,550,o),
(240,550,cs),
(250,550,o),
(254,541,o),
(255,530,cs),
(269,331,ls),
(270,320,o),
(270,313,o),
(270,306,cs),
(270,295,o),
(265,290,o),
(250,290,cs),
(230,290,ls)
);
}
);
width = 480;
}
);
unicode = 65;
},
{
color = 5;
glyphname = Aogonek;
layers = (
{
layerId = m01;
shapes = (
{
closed = 1;
nodes = (
(162,0,ls),
(182,0,o),
(189,9,o),
(192,40,cs),
(200,120,ls),
(202,135,o),
(205,140,o),
(220,140,cs),
(260,140,ls),
(275,140,o),
(278,135,o),
(280,120,cs),
(288,40,ls),
(291,9,o),
(314,9,o),
(314,-10,cs),
(314,-30,o),
(278,-39,o),
(278,-93,cs),
(278,-148,o),
(332,-175,o),
(430,-175,cs),
(444,-175,o),
(450,-165,o),
(450,-155,cs),
(450,-104,ls),
(450,-92,o),
(444,-84,o),
(430,-84,cs),
(398,-84,o),
(370,-71,o),
(370,-51,cs),
(370,-27,o),
(399,0,o),
(430,0,cs),
(460,0,o),
(470,10,o),
(470,40,cs),
(470,60,o),
(463,100,o),
(460,120,cs),
(380,660,ls),
(376,690,o),
(360,700,o),
(330,700,cs),
(150,700,ls),
(120,700,o),
(104,690,o),
(100,660,cs),
(20,120,ls),
(17,100,o),
(10,60,o),
(10,40,cs),
(10,10,o),
(20,0,o),
(50,0,cs)
);
},
{
closed = 1;
nodes = (
(214,290,o),
(210,295,o),
(210,306,cs),
(210,313,o),
(211,320,o),
(212,331,cs),
(230,530,ls),
(231,543,o),
(234,550,o),
(240,550,cs),
(246,550,o),
(249,543,o),
(250,530,cs),
(268,331,ls),
(269,320,o),
(270,313,o),
(270,306,cs),
(270,295,o),
(265,290,o),
(250,290,cs),
(230,290,ls)
);
}
);
width = 480;
},
{
layerId = "6ABCF30A-460E-4EED-802C-9E4699B7E7F6";
shapes = (
{
closed = 1;
nodes = (
(162,0,ls),
(182,0,o),
(189,9,o),
(192,40,cs),
(200,120,ls),
(202,135,o),
(205,140,o),
(220,140,cs),
(260,140,ls),
(275,140,o),
(278,135,o),
(280,120,cs),
(288,40,ls),
(291,9,o),
(314,9,o),
(314,-10,cs),
(314,-30,o),
(278,-39,o),
(278,-93,cs),
(278,-148,o),
(332,-175,o),
(430,-175,cs),
(444,-175,o),
(450,-165,o),
(450,-155,cs),
(450,-104,ls),
(450,-92,o),
(444,-84,o),
(430,-84,cs),
(398,-84,o),
(370,-71,o),
(370,-51,cs),
(370,-27,o),
(399,0,o),
(430,0,cs),
(460,0,o),
(470,10,o),
(470,40,cs),
(470,60,o),
(463,100,o),
(460,120,cs),
(380,660,ls),
(376,690,o),
(360,700,o),
(330,700,cs),
(150,700,ls),
(120,700,o),
(104,690,o),
(100,660,cs),
(20,120,ls),
(17,100,o),
(10,60,o),
(10,40,cs),
(10,10,o),
(20,0,o),
(50,0,cs)
);
},
{
closed = 1;
nodes = (
(214,290,o),
(210,295,o),
(210,306,cs),
(210,313,o),
(211,320,o),
(212,331,cs),
(230,530,ls),
(231,543,o),
(234,550,o),
(240,550,cs),
(246,550,o),
(249,543,o),
(250,530,cs),
(268,331,ls),
(269,320,o),
(270,313,o),
(270,306,cs),
(270,295,o),
(265,290,o),
(250,290,cs),
(230,290,ls)
);
}
);
width = 480;
}
);
unicode = 260;
},
{
color = 5;
glyphname = AE;
layers = (
{
layerId = m01;
shapes = (
{
closed = 1;
nodes = (
(580,0,ls),
(610,0,o),
(620,10,o),
(620,40,cs),
(620,110,ls),
(620,140,o),
(610,150,o),
(580,150,cs),
(470,150,ls),
(455,150,o),
(450,155,o),
(450,170,cs),
(450,270,ls),
(450,285,o),
(455,290,o),
(470,290,cs),
(540,290,ls),
(570,290,o),
(580,300,o),
(580,330,cs),
(580,390,ls),
(580,420,o),
(570,430,o),
(540,430,cs),
(470,430,ls),
(455,430,o),
(450,435,o),
(450,450,cs),
(450,530,ls),
(450,545,o),
(455,550,o),
(470,550,cs),
(580,550,ls),
(610,550,o),
(620,560,o),
(620,590,cs),
(620,660,ls),
(620,690,o),
(610,700,o),
(580,700,cs),
(150,700,ls),
(120,700,o),
(104,690,o),
(100,660,cs),
(20,120,ls),
(17,100,o),
(10,60,o),
(10,40,cs),
(10,10,o),
(20,0,o),
(50,0,cs),
(162,0,ls),
(182,0,o),
(189,9,o),
(192,40,cs),
(200,120,ls),
(202,135,o),
(205,140,o),
(220,140,cs),
(250,140,ls),
(265,140,o),
(270,135,o),
(270,120,cs),
(270,40,ls),
(270,10,o),
(280,0,o),
(310,0,cs)
);
},
{
closed = 1;
nodes = (
(210,313,o),
(211,320,o),
(212,331,cs),
(230,530,ls),
(231,543,o),
(234,550,o),
(240,550,cs),
(246,550,o),
(249,543,o),
(250,530,cs),
(268,331,ls),
(269,320,o),
(270,313,o),
(270,306,cs),
(270,295,o),
(265,290,o),
(250,290,cs),
(230,290,ls),
(214,290,o),
(210,295,o),
(210,306,cs)
);
}
);
width = 630;
},
{
layerId = "6ABCF30A-460E-4EED-802C-9E4699B7E7F6";
shapes = (
{
closed = 1;
nodes = (
(580,0,ls),
(610,0,o),
(620,10,o),
(620,40,cs),
(620,110,ls),
(620,140,o),
(610,150,o),
(580,150,cs),
(470,150,ls),
(455,150,o),
(450,155,o),
(450,170,cs),
(450,270,ls),
(450,285,o),
(455,290,o),
(470,290,cs),
(540,290,ls),
(570,290,o),
(580,300,o),
(580,330,cs),
(580,390,ls),
(580,420,o),
(570,430,o),
(540,430,cs),
(470,430,ls),
(455,430,o),
(450,435,o),
(450,450,cs),
(450,530,ls),
(450,545,o),
(455,550,o),
(470,550,cs),
(580,550,ls),
(610,550,o),
(620,560,o),
(620,590,cs),
(620,660,ls),
(620,690,o),
(610,700,o),
(580,700,cs),
(150,700,ls),
(120,700,o),
(104,690,o),
(100,660,cs),
(20,120,ls),
(17,100,o),
(10,60,o),
(10,40,cs),
(10,10,o),
(20,0,o),
(50,0,cs),
(162,0,ls),
(182,0,o),
(189,9,o),
(192,40,cs),
(200,120,ls),
(202,135,o),
(205,140,o),
(220,140,cs),
(250,140,ls),
(265,140,o),
(270,135,o),
(270,120,cs),
(270,40,ls),
(270,10,o),
(280,0,o),
(310,0,cs)
);
},
{
closed = 1;
nodes = (
(210,313,o),
(211,320,o),
(212,331,cs),
(230,530,ls),
(231,543,o),
(234,550,o),
(240,550,cs),
(246,550,o),
(249,543,o),
(250,530,cs),
(268,331,ls),
(269,320,o),
(270,313,o),
(270,306,cs),
(270,295,o),
(265,290,o),
(250,290,cs),
(230,290,ls),
(214,290,o),
(210,295,o),
(210,306,cs)
);
}
);
width = 630;
}
);
unicode = 198;
},
{
color = 5;
glyphname = B;
kernLeft = H;
kernRight = B;
layers = (
{
layerId = m01;
shapes = (
{
closed = 1;
nodes = (
(280,0,ls),
(410,0,o),
(470,60,o),
(470,180,cs),
(470,210,ls),
(470,300,o),
(416,337,o),
(390,350,cs),
(385,353,o),
(380,355,o),
(380,360,cs),
(380,365,o),
(384,366,o),
(390,370,cs),
(413,385,o),
(450,420,o),
(450,490,cs),
(450,520,ls),
(450,650,o),
(370,700,o),
(240,700,cs),
(60,700,ls),
(30,700,o),
(20,690,o),
(20,660,cs),
(20,40,ls),
(20,10,o),
(29,0,o),
(59,0,cs)
);
},
{
closed = 1;
nodes = (
(205,140,o),
(200,145,o),
(200,160,cs),
(200,270,ls),
(200,285,o),
(205,290,o),
(220,290,cs),
(240,290,ls),
(270,290,o),
(280,280,o),
(280,230,cs),
(280,200,ls),
(280,150,o),
(270,140,o),
(240,140,cs),
(220,140,ls)
);
},
{
closed = 1;
nodes = (
(205,430,o),
(200,435,o),
(200,450,cs),
(200,540,ls),
(200,555,o),
(205,560,o),
(220,560,cs),
(240,560,ls),
(270,560,o),
(280,550,o),
(280,510,cs),
(280,480,ls),
(280,440,o),
(270,430,o),
(240,430,cs),
(220,430,ls)
);
}
);
width = 480;
},
{
layerId = "6ABCF30A-460E-4EED-802C-9E4699B7E7F6";
shapes = (
{
closed = 1;
nodes = (
(280,0,ls),
(410,0,o),
(470,60,o),
(470,180,cs),
(470,210,ls),
(470,300,o),
(416,337,o),
(390,350,cs),
(385,353,o),
(380,355,o),
(380,360,cs),
(380,365,o),
(384,366,o),
(390,370,cs),
(413,385,o),
(450,420,o),
(450,490,cs),
(450,520,ls),
(450,650,o),
(370,700,o),
(240,700,cs),
(60,700,ls),
(30,700,o),
(20,690,o),
(20,660,cs),
(20,40,ls),
(20,10,o),
(29,0,o),
(59,0,cs)
);
},
{
closed = 1;
nodes = (
(205,140,o),
(200,145,o),
(200,160,cs),
(200,270,ls),
(200,285,o),
(205,290,o),
(220,290,cs),
(240,290,ls),
(270,290,o),
(280,280,o),
(280,230,cs),
(280,200,ls),
(280,150,o),
(270,140,o),
(240,140,cs),
(220,140,ls)
);
},
{
closed = 1;
nodes = (
(205,430,o),
(200,435,o),
(200,450,cs),
(200,540,ls),
(200,555,o),
(205,560,o),
(220,560,cs),
(240,560,ls),
(270,560,o),
(280,550,o),
(280,510,cs),
(280,480,ls),
(280,440,o),
(270,430,o),
(240,430,cs),
(220,430,ls)
);
}
);
width = 480;
},
{
associatedMasterId = m01;
layerId = "1F86786A-E2E1-4B03-8217-A17D87EDEBA0";
name = "Sep 27, 22, 18:53";
shapes = (
{
closed = 1;
nodes = (
(300,0,ls),
(420,0,o),
(470,69,o),
(470,180,cs),
(470,219,ls),
(470,295,o),
(414,346,o),
(390,360,cs),
(383,364,o),
(380,365,o),
(380,370,cs),
(380,375,o),
(384,377,o),
(390,380,cs),
(414,393,o),
(450,429,o),
(450,520,cs),
(450,630,o),
(380,700,o),
(270,700,cs),
(60,700,ls),
(30,700,o),
(20,690,o),
(20,660,cs),
(20,40,ls),
(20,10,o),
(29,0,o),
(59,0,cs)
);
},
{
closed = 1;
nodes = (
(205,140,o),
(200,145,o),
(200,160,cs),
(200,270,ls),
(200,285,o),
(205,290,o),
(220,290,cs),
(240,290,ls),
(265,290,o),
(280,270,o),
(280,240,cs),
(280,190,ls),
(280,160,o),
(266,140,o),
(240,140,cs),
(220,140,ls)
);
},
{
closed = 1;
nodes = (
(205,430,o),
(200,435,o),
(200,450,cs),
(200,540,ls),
(200,555,o),
(205,560,o),
(220,560,cs),
(240,560,ls),
(270,560,o),
(280,550,o),
(280,520,cs),
(280,470,ls),
(280,440,o),
(270,430,o),
(240,430,cs),
(220,430,ls)
);
}
);
visible = 1;
width = 480;
}
);
unicode = 66;
},
{
color = 5;
glyphname = C;
kernLeft = O;
kernRight = C;
layers = (
{
anchors = (
{
name = top;
pos = (237,700);
}
);
layerId = m01;
shapes = (
{
closed = 1;
nodes = (
(377,-10,o),
(447,60,o),
(447,200,cs),
(447,245,ls),
(447,275,o),
(437,285,o),
(407,285,cs),
(317,285,ls),
(287,285,o),
(277,275,o),
(277,245,cs),
(277,190,ls),
(277,160,o),
(267,140,o),
(237,140,cs),
(207,140,o),
(197,160,o),
(197,190,cs),
(197,510,ls),
(197,540,o),
(207,560,o),
(237,560,cs),
(267,560,o),
(277,540,o),
(277,510,cs),
(277,465,ls),
(277,435,o),
(287,425,o),
(317,425,cs),
(407,425,ls),
(437,425,o),
(447,435,o),
(447,465,cs),
(447,500,ls),
(447,640,o),
(377,710,o),
(237,710,cs),
(97,710,o),
(17,640,o),
(17,500,cs),
(17,200,ls),
(17,60,o),
(97,-10,o),
(237,-10,cs)
);
}
);
width = 459;
},
{
anchors = (
{
name = top;
pos = (240,700);
}
);
layerId = "6ABCF30A-460E-4EED-802C-9E4699B7E7F6";
shapes = (
{
closed = 1;
nodes = (
(375,-10,o),
(455,60,o),
(455,200,cs),
(455,240,ls),
(455,270,o),
(445,280,o),
(415,280,cs),
(315,280,ls),
(285,280,o),
(275,270,o),
(275,240,cs),
(275,180,ls),
(275,150,o),
(266,130,o),
(235,130,cs),
(205,130,o),
(195,150,o),
(195,180,cs),
(195,520,ls),
(195,550,o),
(205,570,o),
(235,570,cs),
(265,570,o),
(275,550,o),
(275,520,cs),
(275,460,ls),
(275,430,o),
(285,420,o),
(315,420,cs),
(415,420,ls),
(445,420,o),
(455,430,o),
(455,460,cs),
(455,500,ls),
(455,640,o),
(375,710,o),
(235,710,cs),
(95,710,o),
(15,640,o),
(15,500,cs),
(15,200,ls),
(15,60,o),
(95,-10,o),
(235,-10,cs)
);
}
);
width = 470;
},
{
anchors = (
{
name = top;
pos = (237,700);
}
);
associatedMasterId = m01;
layerId = "3405DB48-7A6C-4C40-A5AE-AE671BCFF720";
name = "Sep 27, 22, 20:39";
shapes = (
{
closed = 1;
nodes = (
(377,-10,o),
(457,60,o),
(457,200,cs),
(457,500,ls),
(457,640,o),
(377,710,o),
(237,710,cs),
(97,710,o),
(17,640,o),
(17,500,cs),
(17,200,ls),
(17,60,o),
(97,-10,o),
(237,-10,cs)
);
},
{
closed = 1;
nodes = (
(207,140,o),
(197,160,o),
(197,190,cs),
(197,510,ls),
(197,540,o),
(207,560,o),
(237,560,cs),
(267,560,o),
(277,540,o),
(277,510,cs),
(277,190,ls),
(277,160,o),
(267,140,o),
(237,140,cs)
);
}
);
visible = 1;
width = 474;
}
);
unicode = 67;
},
{
color = 5;
glyphname = Ccedilla;
layers = (
{
layerId = m01;
shapes = (
{
closed = 1;
nodes = (
(204,-225,o),
(342,-188,o),
(342,-92,cs),
(342,-46,o),
(325,-32,o),
(325,-19,cs),
(325,-3,o),
(349,9,o),
(365,18,cs),
(425,50,o),
(457,111,o),
(457,200,cs),
(457,245,ls),
(457,275,o),
(447,285,o),
(417,285,cs),
(317,285,ls),
(287,285,o),
(277,275,o),
(277,245,cs),
(277,190,ls),
(277,160,o),
(267,140,o),
(237,140,cs),
(207,140,o),
(197,160,o),
(197,190,cs),
(197,510,ls),
(197,540,o),
(207,560,o),
(237,560,cs),
(267,560,o),
(277,540,o),
(277,510,cs),
(277,465,ls),
(277,435,o),
(287,425,o),
(317,425,cs),
(417,425,ls),
(447,425,o),
(457,435,o),
(457,465,cs),
(457,500,ls),
(457,640,o),
(377,710,o),
(237,710,cs),
(97,710,o),
(17,640,o),
(17,500,cs),
(17,200,ls),
(17,108,o),
(52,46,o),
(115,15,cs),
(129,8,o),
(152,-1,o),
(166,-14,cs),
(174,-22,o),
(203,-27,o),
(223,-29,cs),
(237,-30,o),
(260,-72,o),
(260,-85,cs),
(260,-118,o),
(199,-123,o),
(152,-123,cs),
(133,-123,o),
(122,-119,o),
(122,-150,cs),
(122,-207,ls),
(122,-219,o),
(129,-225,o),
(141,-225,cs)
);
}
);
width = 469;
},
{
layerId = "6ABCF30A-460E-4EED-802C-9E4699B7E7F6";
shapes = (
{
closed = 1;
nodes = (
(204,-225,o),
(342,-188,o),
(342,-92,cs),
(342,-46,o),
(325,-32,o),
(325,-19,cs),
(325,-3,o),
(349,9,o),
(365,18,cs),
(425,50,o),
(457,111,o),
(457,200,cs),
(457,245,ls),
(457,275,o),
(447,285,o),
(417,285,cs),
(317,285,ls),
(287,285,o),
(277,275,o),
(277,245,cs),
(277,190,ls),
(277,160,o),
(267,140,o),
(237,140,cs),
(207,140,o),
(197,160,o),
(197,190,cs),
(197,510,ls),
(197,540,o),
(207,560,o),
(237,560,cs),
(267,560,o),
(277,540,o),
(277,510,cs),
(277,465,ls),
(277,435,o),
(287,425,o),
(317,425,cs),
(417,425,ls),
(447,425,o),
(457,435,o),
(457,465,cs),
(457,500,ls),
(457,640,o),
(377,710,o),
(237,710,cs),
(97,710,o),
(17,640,o),
(17,500,cs),
(17,200,ls),
(17,108,o),
(52,46,o),
(115,15,cs),
(129,8,o),
(152,-1,o),
(166,-14,cs),
(174,-22,o),
(203,-27,o),
(223,-29,cs),
(237,-30,o),
(260,-72,o),
(260,-85,cs),
(260,-118,o),
(199,-123,o),
(152,-123,cs),
(133,-123,o),
(122,-119,o),
(122,-150,cs),
(122,-207,ls),
(122,-219,o),
(129,-225,o),
(141,-225,cs)
);
}
);
width = 469;
}
);
unicode = 199;
},
{
color = 5;
glyphname = D;
kernLeft = H;
kernRight = O;
layers = (
{
anchors = (
{
name = top;
pos = (240,700);
}
);
layerId = m01;
shapes = (
{
closed = 1;
nodes = (
(270,0,ls),
(400,0,o),
(460,60,o),
(460,190,cs),
(460,510,ls),
(460,640,o),
(380,700,o),
(250,700,cs),
(60,700,ls),
(30,700,o),
(20,690,o),
(20,660,cs),
(20,40,ls),
(20,10,o),
(30,0,o),
(60,0,cs)
);
},
{
closed = 1;
nodes = (
(205,150,o),
(200,155,o),
(200,170,cs),
(200,530,ls),
(200,545,o),
(205,550,o),
(220,550,cs),
(240,550,ls),
(270,550,o),
(280,540,o),
(280,500,cs),
(280,200,ls),
(280,160,o),
(270,150,o),
(240,150,cs),
(220,150,ls)
);
}
);
width = 477;
},
{
anchors = (
{
name = top;
pos = (240,700);
}
);
layerId = "6ABCF30A-460E-4EED-802C-9E4699B7E7F6";
shapes = (
{
closed = 1;
nodes = (
(250,0,ls),
(390,0,o),
(460,70,o),
(460,200,cs),
(460,500,ls),
(460,630,o),
(390,700,o),
(250,700,cs),
(60,700,ls),
(30,700,o),
(20,690,o),
(20,660,cs),
(20,40,ls),
(20,10,o),
(30,0,o),
(60,0,cs)
);
},
{
closed = 1;
nodes = (
(205,150,o),
(200,155,o),
(200,170,cs),
(200,530,ls),
(200,545,o),
(205,550,o),
(220,550,cs),
(240,550,ls),
(270,550,o),
(280,540,o),
(280,510,cs),
(280,190,ls),
(280,160,o),
(270,150,o),
(240,150,cs),
(220,150,ls)
);
}
);
width = 477;
}
);
unicode = 68;
},
{
color = 5;
glyphname = Eth;
layers = (
{
layerId = m01;
shapes = (
{
closed = 1;
nodes = (
(305,0,ls),
(435,0,o),
(495,60,o),
(495,190,cs),
(495,510,ls),
(495,640,o),
(415,700,o),
(285,700,cs),
(95,700,ls),
(65,700,o),
(55,690,o),
(55,660,cs),
(55,447,ls),
(55,432,o),
(50,427,o),
(35,427,cs),
(30,427,ls),
(15,427,o),
(10,422,o),
(10,407,cs),
(10,307,ls),
(10,292,o),
(15,287,o),
(30,287,cs),
(35,287,ls),
(50,287,o),
(55,282,o),
(55,267,cs),
(55,40,ls),
(55,10,o),
(65,0,o),
(95,0,cs)
);
},
{
closed = 1;
nodes = (
(235,267,ls),
(235,282,o),
(240,287,o),
(255,287,cs),
(260,287,ls),
(275,287,o),
(280,292,o),
(280,307,cs),
(280,407,ls),
(280,422,o),
(275,427,o),
(260,427,cs),
(255,427,ls),
(240,427,o),
(235,432,o),
(235,447,cs),
(235,530,ls),
(235,545,o),
(240,550,o),
(255,550,cs),
(275,550,ls),
(305,550,o),
(315,540,o),
(315,500,cs),
(315,200,ls),
(315,160,o),
(305,150,o),
(275,150,cs),
(255,150,ls),
(240,150,o),
(235,155,o),
(235,170,cs)
);
}
);
width = 512;
},
{
layerId = "6ABCF30A-460E-4EED-802C-9E4699B7E7F6";
shapes = (
{
closed = 1;
nodes = (
(305,0,ls),
(435,0,o),
(495,60,o),
(495,190,cs),
(495,510,ls),
(495,640,o),
(415,700,o),
(285,700,cs),
(95,700,ls),
(65,700,o),
(55,690,o),
(55,660,cs),
(55,447,ls),
(55,432,o),
(50,427,o),
(35,427,cs),
(30,427,ls),
(15,427,o),
(10,422,o),
(10,407,cs),
(10,307,ls),
(10,292,o),
(15,287,o),
(30,287,cs),
(35,287,ls),
(50,287,o),
(55,282,o),
(55,267,cs),
(55,40,ls),
(55,10,o),
(65,0,o),
(95,0,cs)
);
},
{
closed = 1;
nodes = (
(235,267,ls),
(235,282,o),
(240,287,o),
(255,287,cs),
(260,287,ls),
(275,287,o),
(280,292,o),
(280,307,cs),
(280,407,ls),
(280,422,o),
(275,427,o),
(260,427,cs),
(255,427,ls),
(240,427,o),
(235,432,o),
(235,447,cs),
(235,530,ls),
(235,545,o),
(240,550,o),
(255,550,cs),
(275,550,ls),
(305,550,o),
(315,540,o),
(315,500,cs),
(315,200,ls),
(315,160,o),
(305,150,o),
(275,150,cs),
(255,150,ls),
(240,150,o),
(235,155,o),
(235,170,cs)
);
}
);
width = 512;
}
);
unicode = 208;
},
{
color = 5;
glyphname = E;
kernLeft = H;
kernRight = E;
layers = (
{
anchors = (
{
name = top;
pos = (191,700);
}
);
layerId = m01;
shapes = (
{
closed = 1;
nodes = (
(330,0,ls),
(360,0,o),
(370,10,o),
(370,40,cs),
(370,110,ls),
(370,140,o),
(360,150,o),
(330,150,cs),
(220,150,ls),
(205,150,o),
(200,155,o),
(200,170,cs),
(200,270,ls),
(200,285,o),
(205,290,o),
(220,290,cs),
(290,290,ls),
(320,290,o),
(330,300,o),
(330,330,cs),
(330,390,ls),
(330,420,o),
(320,430,o),
(290,430,cs),
(220,430,ls),
(205,430,o),
(200,435,o),
(200,450,cs),
(200,530,ls),
(200,545,o),
(205,550,o),
(220,550,cs),
(330,550,ls),
(360,550,o),
(370,560,o),
(370,590,cs),
(370,660,ls),
(370,690,o),
(360,700,o),
(330,700,cs),
(60,700,ls),
(30,700,o),
(20,690,o),
(20,660,cs),
(20,40,ls),
(20,10,o),
(30,0,o),
(60,0,cs)
);
}
);
width = 385;
},
{
anchors = (
{
name = top;
pos = (191,700);
}
);
layerId = "6ABCF30A-460E-4EED-802C-9E4699B7E7F6";
shapes = (
{
closed = 1;
nodes = (
(330,0,ls),
(360,0,o),
(370,10,o),
(370,40,cs),
(370,110,ls),
(370,140,o),
(360,150,o),
(330,150,cs),
(220,150,ls),
(205,150,o),
(200,155,o),
(200,170,cs),
(200,270,ls),
(200,285,o),
(205,290,o),
(220,290,cs),
(290,290,ls),
(320,290,o),
(330,300,o),
(330,330,cs),
(330,390,ls),
(330,420,o),
(320,430,o),
(290,430,cs),
(220,430,ls),
(205,430,o),
(200,435,o),
(200,450,cs),
(200,530,ls),
(200,545,o),
(205,550,o),
(220,550,cs),
(330,550,ls),
(360,550,o),
(370,560,o),
(370,590,cs),
(370,660,ls),
(370,690,o),
(360,700,o),
(330,700,cs),
(60,700,ls),
(30,700,o),
(20,690,o),
(20,660,cs),
(20,40,ls),
(20,10,o),
(30,0,o),
(60,0,cs)
);
}
);
width = 385;
}
);
unicode = 69;
},
{
color = 5;
glyphname = Eogonek;
layers = (
{
layerId = m01;
shapes = (
{
closed = 1;
nodes = (
(196,0,ls),
(208,0,o),
(214,-3,o),
(214,-12,cs),
(214,-37,o),
(178,-39,o),
(178,-93,cs),
(178,-148,o),
(232,-175,o),
(330,-175,cs),
(344,-175,o),
(350,-165,o),
(350,-155,cs),
(350,-104,ls),
(350,-92,o),
(344,-84,o),
(330,-84,cs),
(298,-84,o),
(270,-71,o),
(270,-51,cs),
(270,-27,o),
(299,0,o),
(330,0,cs),
(360,0,o),
(370,10,o),
(370,40,cs),
(370,110,ls),
(370,140,o),
(360,150,o),
(330,150,cs),
(220,150,ls),
(205,150,o),
(200,155,o),
(200,170,cs),
(200,270,ls),
(200,285,o),
(205,290,o),
(220,290,cs),
(290,290,ls),
(320,290,o),
(330,300,o),
(330,330,cs),
(330,390,ls),
(330,420,o),
(320,430,o),
(290,430,cs),
(220,430,ls),
(205,430,o),
(200,435,o),
(200,450,cs),
(200,530,ls),
(200,545,o),
(205,550,o),
(220,550,cs),
(330,550,ls),
(360,550,o),
(370,560,o),
(370,590,cs),
(370,660,ls),
(370,690,o),
(360,700,o),
(330,700,cs),
(60,700,ls),
(30,700,o),
(20,690,o),
(20,660,cs),
(20,40,ls),
(20,10,o),
(30,0,o),
(60,0,cs)
);
}
);
width = 385;
},
{
layerId = "6ABCF30A-460E-4EED-802C-9E4699B7E7F6";
shapes = (
{
closed = 1;
nodes = (
(196,0,ls),
(208,0,o),
(214,-3,o),
(214,-12,cs),
(214,-37,o),
(178,-39,o),
(178,-93,cs),
(178,-148,o),
(232,-175,o),
(330,-175,cs),
(344,-175,o),
(350,-165,o),
(350,-155,cs),
(350,-104,ls),
(350,-92,o),
(344,-84,o),
(330,-84,cs),
(298,-84,o),
(270,-71,o),
(270,-51,cs),
(270,-27,o),
(299,0,o),
(330,0,cs),
(360,0,o),
(370,10,o),
(370,40,cs),
(370,110,ls),
(370,140,o),
(360,150,o),
(330,150,cs),
(220,150,ls),
(205,150,o),
(200,155,o),
(200,170,cs),
(200,270,ls),
(200,285,o),
(205,290,o),
(220,290,cs),
(290,290,ls),
(320,290,o),
(330,300,o),
(330,330,cs),
(330,390,ls),
(330,420,o),
(320,430,o),
(290,430,cs),
(220,430,ls),
(205,430,o),
(200,435,o),
(200,450,cs),
(200,530,ls),
(200,545,o),
(205,550,o),
(220,550,cs),
(330,550,ls),
(360,550,o),
(370,560,o),
(370,590,cs),
(370,660,ls),
(370,690,o),
(360,700,o),
(330,700,cs),
(60,700,ls),
(30,700,o),
(20,690,o),
(20,660,cs),
(20,40,ls),
(20,10,o),
(30,0,o),
(60,0,cs)
);
}
);
width = 385;
}
);
unicode = 280;
},
{
color = 5;
glyphname = F;
kernLeft = H;
kernRight = F;
layers = (
{
layerId = m01;
shapes = (
{
closed = 1;
nodes = (
(160,0,ls),
(190,0,o),
(200,10,o),
(200,40,cs),
(200,270,ls),
(200,285,o),
(205,290,o),
(220,290,cs),
(290,290,ls),
(320,290,o),
(330,300,o),
(330,330,cs),
(330,390,ls),
(330,420,o),
(320,430,o),
(290,430,cs),
(220,430,ls),
(205,430,o),
(200,435,o),
(200,450,cs),
(200,530,ls),
(200,545,o),
(205,550,o),
(220,550,cs),
(330,550,ls),
(360,550,o),
(370,560,o),
(370,590,cs),
(370,660,ls),
(370,690,o),
(360,700,o),
(330,700,cs),
(60,700,ls),
(30,700,o),
(20,690,o),
(20,660,cs),
(20,40,ls),
(20,10,o),
(30,0,o),
(60,0,cs)
);
}
);
width = 382;
},
{
layerId = "6ABCF30A-460E-4EED-802C-9E4699B7E7F6";
shapes = (
{
closed = 1;
nodes = (
(160,0,ls),
(190,0,o),
(200,10,o),
(200,40,cs),
(200,270,ls),
(200,285,o),
(205,290,o),
(220,290,cs),
(290,290,ls),
(320,290,o),
(330,300,o),
(330,330,cs),
(330,390,ls),
(330,420,o),
(320,430,o),
(290,430,cs),
(220,430,ls),
(205,430,o),
(200,435,o),
(200,450,cs),
(200,530,ls),
(200,545,o),
(205,550,o),
(220,550,cs),
(330,550,ls),
(360,550,o),
(370,560,o),
(370,590,cs),
(370,660,ls),
(370,690,o),
(360,700,o),
(330,700,cs),
(60,700,ls),
(30,700,o),
(20,690,o),
(20,660,cs),
(20,40,ls),
(20,10,o),
(30,0,o),
(60,0,cs)
);
}
);
width = 382;
}
);
unicode = 70;
},
{
color = 5;
glyphname = G;
kernLeft = O;
kernRight = G;
layers = (
{
anchors = (
{
name = bottom;
pos = (235,0);
},
{
name = top;
pos = (240,700);
}
);
layerId = m01;
shapes = (
{
closed = 1;
nodes = (
(307,-10,o),
(318,35,o),
(342,35,cs),
(362,35,o),
(382,0,o),
(413,0,cs),
(437,0,o),
(447,10,o),
(447,40,cs),
(447,300,ls),
(447,330,o),
(436,340,o),
(407,340,cs),
(277,340,ls),
(247,340,o),
(237,329,o),
(237,300,cs),
(237,260,ls),
(237,231,o),
(247,220,o),
(277,220,cs),
(297,220,ls),
(312,220,o),
(317,215,o),
(317,200,cs),
(317,160,o),
(297,140,o),
(257,140,cs),
(217,140,o),
(197,170,o),
(197,210,cs),
(197,510,ls),
(197,540,o),
(207,560,o),
(237,560,cs),
(267,560,o),
(277,540,o),
(277,510,cs),
(277,465,ls),
(277,435,o),
(287,425,o),
(317,425,cs),
(407,425,ls),
(437,425,o),
(447,435,o),
(447,465,cs),
(447,500,ls),
(447,640,o),
(377,710,o),
(237,710,cs),
(97,710,o),
(17,640,o),
(17,500,cs),
(17,200,ls),
(17,60,o),
(97,-10,o),
(217,-10,cs)
);
}
);
width = 464;
},
{
anchors = (
{
name = bottom;
pos = (235,0);
},
{
name = top;
pos = (240,700);
}
);
layerId = "6ABCF30A-460E-4EED-802C-9E4699B7E7F6";
shapes = (
{
closed = 1;
nodes = (
(307,-10,o),
(318,35,o),
(342,35,cs),
(362,35,o),
(382,0,o),
(413,0,cs),
(437,0,o),
(447,10,o),
(447,40,cs),
(447,300,ls),
(447,330,o),
(436,340,o),
(407,340,cs),
(277,340,ls),
(247,340,o),
(237,329,o),
(237,300,cs),
(237,260,ls),
(237,231,o),
(247,220,o),
(277,220,cs),
(297,220,ls),
(312,220,o),
(317,215,o),
(317,200,cs),
(317,160,o),
(297,140,o),
(257,140,cs),
(217,140,o),
(197,170,o),
(197,210,cs),
(197,510,ls),
(197,540,o),
(207,560,o),
(237,560,cs),
(267,560,o),
(277,540,o),
(277,510,cs),
(277,465,ls),
(277,435,o),
(287,425,o),
(317,425,cs),
(407,425,ls),
(437,425,o),
(447,435,o),
(447,465,cs),
(447,500,ls),
(447,640,o),
(377,710,o),
(237,710,cs),
(97,710,o),
(17,640,o),
(17,500,cs),
(17,200,ls),
(17,60,o),
(97,-10,o),
(217,-10,cs)
);
}
);
width = 464;
},
{
anchors = (
{
name = top;
pos = (240,700);
}
);
associatedMasterId = m01;
layerId = "4CB17326-2D02-41A8-8B60-25F7F13B4B84";
name = "Sep 27, 22, 21:29";
shapes = (
{
closed = 1;
nodes = (
(377,-10,o),
(457,60,o),
(457,200,cs),
(457,245,ls),
(457,275,o),
(447,285,o),
(417,285,cs),
(317,285,ls),
(287,285,o),
(277,275,o),
(277,245,cs),
(277,190,ls),
(277,160,o),
(267,140,o),
(237,140,cs),
(207,140,o),
(197,160,o),
(197,190,cs),
(197,510,ls),
(197,540,o),
(207,560,o),
(237,560,cs),
(267,560,o),
(277,540,o),
(277,510,cs),
(277,465,ls),
(277,435,o),
(287,425,o),
(317,425,cs),
(417,425,ls),
(447,425,o),
(457,435,o),
(457,465,cs),
(457,500,ls),
(457,640,o),
(377,710,o),
(237,710,cs),
(97,710,o),
(17,640,o),
(17,500,cs),
(17,200,ls),
(17,60,o),
(97,-10,o),
(237,-10,cs)
);
}
);
visible = 1;
width = 475;
}
);
unicode = 71;
},
{
color = 5;
glyphname = H;
kernLeft = H;
kernRight = H;
layers = (
{
layerId = m01;
shapes = (
{
closed = 1;
nodes = (
(160,0,ls),
(190,0,o),
(200,10,o),
(200,40,cs),
(200,280,ls),
(200,295,o),
(205,300,o),
(220,300,cs),
(260,300,ls),
(275,300,o),
(280,295,o),
(280,280,cs),
(280,40,ls),
(280,10,o),
(290,0,o),
(320,0,cs),
(420,0,ls),
(450,0,o),
(460,10,o),
(460,40,cs),
(460,660,ls),
(460,690,o),
(450,700,o),
(420,700,cs),
(320,700,ls),
(290,700,o),
(280,690,o),
(280,660,cs),
(280,470,ls),
(280,455,o),
(275,450,o),
(260,450,cs),
(220,450,ls),
(205,450,o),
(200,455,o),
(200,470,cs),
(200,660,ls),
(200,690,o),
(190,700,o),
(160,700,cs),
(60,700,ls),
(30,700,o),
(20,690,o),
(20,660,cs),
(20,40,ls),
(20,10,o),
(30,0,o),
(60,0,cs)
);
}
);
width = 480;
},
{
layerId = "6ABCF30A-460E-4EED-802C-9E4699B7E7F6";
shapes = (
{
closed = 1;
nodes = (
(190,0,ls),
(220,0,o),
(230,10,o),
(230,40,cs),
(230,260,ls),
(230,275,o),
(233,280,o),
(238,280,cs),
(242,280,ls),
(247,280,o),
(250,275,o),
(250,260,cs),
(250,40,ls),
(250,10,o),
(260,0,o),
(290,0,cs),
(430,0,ls),
(455,0,o),
(470,10,o),
(470,40,cs),
(470,660,ls),
(470,690,o),
(460,700,o),
(430,700,cs),
(290,700,ls),
(260,700,o),
(250,690,o),
(250,660,cs),
(250,470,ls),
(250,455,o),
(247,450,o),
(242,450,cs),
(238,450,ls),
(233,450,o),
(230,455,o),
(230,470,cs),
(230,660,ls),
(230,690,o),
(220,700,o),
(190,700,cs),
(50,700,ls),
(20,700,o),
(10,690,o),
(10,660,cs),
(10,40,ls),
(10,10,o),
(10,0,o),
(50,0,cs)
);
}
);
width = 480;
}
);
unicode = 72;
},
{
color = 5;
glyphname = Hbar;
layers = (
{
layerId = m01;
shapes = (
{
closed = 1;
nodes = (
(190,0,ls),
(220,0,o),
(230,10,o),
(230,40,cs),
(230,280,ls),
(230,295,o),
(235,300,o),
(250,300,cs),
(290,300,ls),
(305,300,o),
(310,295,o),
(310,280,cs),
(310,40,ls),
(310,10,o),
(320,0,o),
(350,0,cs),
(450,0,ls),
(480,0,o),
(490,10,o),
(490,40,cs),
(490,500,l),
(510,500,ls),
(525,500,o),
(530,505,o),
(530,520,cs),
(530,607,ls),
(530,622,o),
(525,627,o),
(510,627,cs),
(490,627,l),
(490,660,ls),
(490,690,o),
(480,700,o),
(450,700,cs),
(350,700,ls),
(320,700,o),
(310,690,o),
(310,660,cs),
(310,627,l),
(230,627,l),
(230,660,ls),
(230,690,o),
(220,700,o),
(190,700,cs),
(90,700,ls),
(60,700,o),
(50,690,o),
(50,660,cs),
(50,627,l),
(30,627,ls),
(15,627,o),
(10,622,o),
(10,607,cs),
(10,520,ls),
(10,505,o),
(15,500,o),
(30,500,cs),
(50,500,l),
(50,40,ls),
(50,10,o),
(60,0,o),
(90,0,cs)
);
},
{
closed = 1;
nodes = (
(230,500,l),
(310,500,l),
(310,470,ls),
(310,455,o),
(305,450,o),
(290,450,cs),
(250,450,ls),
(235,450,o),
(230,455,o),
(230,470,cs)
);
}
);
width = 540;
},
{
layerId = "6ABCF30A-460E-4EED-802C-9E4699B7E7F6";
shapes = (
{
closed = 1;
nodes = (
(190,0,ls),
(220,0,o),
(230,10,o),
(230,40,cs),
(230,280,ls),
(230,295,o),
(235,300,o),
(250,300,cs),
(290,300,ls),
(305,300,o),
(310,295,o),
(310,280,cs),
(310,40,ls),
(310,10,o),
(320,0,o),
(350,0,cs),
(450,0,ls),
(480,0,o),
(490,10,o),
(490,40,cs),
(490,500,l),
(510,500,ls),
(525,500,o),
(530,505,o),
(530,520,cs),
(530,607,ls),
(530,622,o),
(525,627,o),
(510,627,cs),
(490,627,l),
(490,660,ls),
(490,690,o),
(480,700,o),
(450,700,cs),
(350,700,ls),
(320,700,o),
(310,690,o),
(310,660,cs),
(310,627,l),
(230,627,l),
(230,660,ls),
(230,690,o),
(220,700,o),
(190,700,cs),
(90,700,ls),
(60,700,o),
(50,690,o),
(50,660,cs),
(50,627,l),
(30,627,ls),
(15,627,o),
(10,622,o),
(10,607,cs),
(10,520,ls),
(10,505,o),
(15,500,o),
(30,500,cs),
(50,500,l),
(50,40,ls),
(50,10,o),
(60,0,o),
(90,0,cs)
);
},
{
closed = 1;
nodes = (
(230,500,l),
(310,500,l),
(310,470,ls),
(310,455,o),
(305,450,o),
(290,450,cs),
(250,450,ls),
(235,450,o),
(230,455,o),
(230,470,cs)
);
}
);
width = 540;
}
);
unicode = 294;
},
{
color = 5;
glyphname = I;
kernLeft = H;
kernRight = H;
layers = (
{
anchors = (
{
name = top;
pos = (110,700);
}
);
layerId = m01;
shapes = (
{
closed = 1;
nodes = (
(160,0,ls),
(190,0,o),
(200,10,o),
(200,40,cs),
(200,660,ls),
(200,690,o),
(190,700,o),
(160,700,cs),
(60,700,ls),
(30,700,o),
(20,690,o),
(20,660,cs),
(20,40,ls),
(20,10,o),
(30,0,o),
(60,0,cs)
);
}
);
width = 220;
},
{
anchors = (
{
name = top;
pos = (110,700);
}
);
layerId = "6ABCF30A-460E-4EED-802C-9E4699B7E7F6";
shapes = (
{
closed = 1;
nodes = (
(170,0,ls),
(200,0,o),
(210,10,o),
(210,40,cs),
(210,660,ls),
(210,690,o),
(200,700,o),
(170,700,cs),
(50,700,ls),
(20,700,o),
(10,690,o),
(10,660,cs),
(10,40,ls),
(10,10,o),
(20,0,o),
(50,0,cs)
);
}
);
width = 220;
}
);
unicode = 73;
},
{
color = 5;
glyphname = Iogonek;
layers = (
{
layerId = m01;
shapes = (
{
closed = 1;
nodes = (
(60,0,o),
(64,-4,o),
(64,-10,cs),
(64,-30,o),
(18,-38,o),
(18,-92,cs),
(18,-147,o),
(72,-174,o),
(170,-174,cs),
(184,-174,o),
(190,-164,o),
(190,-154,cs),
(190,-103,ls),
(190,-91,o),
(184,-83,o),
(170,-83,cs),
(138,-83,o),
(110,-70,o),
(110,-50,cs),
(110,-29,o),
(128,0,o),
(170,0,cs),
(200,0,o),
(210,10,o),
(210,40,cs),
(210,660,ls),
(210,690,o),
(200,700,o),
(170,700,cs),
(50,700,ls),
(20,700,o),
(10,690,o),
(10,660,cs),
(10,40,ls),
(10,10,o),
(20,0,o),
(50,0,cs)
);
}
);
width = 220;
},
{
layerId = "6ABCF30A-460E-4EED-802C-9E4699B7E7F6";
shapes = (
{
closed = 1;
nodes = (
(60,0,o),
(64,-4,o),
(64,-10,cs),
(64,-30,o),
(18,-38,o),
(18,-92,cs),
(18,-147,o),
(72,-174,o),
(170,-174,cs),
(184,-174,o),
(190,-164,o),
(190,-154,cs),
(190,-103,ls),
(190,-91,o),
(184,-83,o),
(170,-83,cs),
(138,-83,o),
(110,-70,o),
(110,-50,cs),
(110,-29,o),
(128,0,o),
(170,0,cs),
(200,0,o),
(210,10,o),
(210,40,cs),
(210,660,ls),
(210,690,o),
(200,700,o),
(170,700,cs),
(50,700,ls),
(20,700,o),
(10,690,o),
(10,660,cs),
(10,40,ls),
(10,10,o),
(20,0,o),
(50,0,cs)
);
}
);
width = 220;
}
);
unicode = 302;
},
{
color = 5;
glyphname = J;
kernLeft = J;
kernRight = J;
layers = (
{
layerId = m01;
shapes = (
{
closed = 1;
nodes = (
(141,0,ls),
(281,0,o),
(290,60,o),
(290,200,cs),
(290,660,ls),
(290,690,o),
(280,700,o),
(250,700,cs),
(150,700,ls),
(120,700,o),
(110,690,o),
(110,660,cs),
(110,170,ls),
(110,155,o),
(105,150,o),
(90,150,cs),
(50,150,ls),
(20,150,o),
(10,140,o),
(10,110,cs),
(10,40,ls),
(10,10,o),
(20,0,o),
(50,0,cs)
);
}
);
width = 305;
},
{
layerId = "6ABCF30A-460E-4EED-802C-9E4699B7E7F6";
shapes = (
{
closed = 1;
nodes = (
(151,0,ls),
(271,0,o),
(300,40,o),
(300,200,cs),
(300,660,ls),
(300,690,o),
(290,700,o),
(260,700,cs),
(120,700,ls),
(90,700,o),
(80,690,o),
(80,660,cs),
(80,160,ls),
(80,145,o),
(75,140,o),
(60,140,cs),
(50,140,ls),
(20,140,o),
(10,130,o),
(10,100,cs),
(10,40,ls),
(10,10,o),
(20,0,o),
(50,0,cs)
);
}
);
width = 305;
}
);
unicode = 74;
},
{
color = 5;
glyphname = K;
kernLeft = H;
kernRight = K;
layers = (
{
anchors = (
{
name = bottom;
pos = (235,0);
}
);
layerId = m01;
shapes = (
{
closed = 1;
nodes = (
(160,0,ls),
(190,0,o),
(200,10,o),
(200,40,cs),
(200,290,ls),
(200,297,o),
(203,300,o),
(210,300,cs),
(215,300,o),
(221,297,o),
(225,280,cs),
(280,40,ls),
(287,10,o),
(300,0,o),
(330,0,cs),
(423,0,ls),
(453,0,o),
(463,10,o),
(463,40,cs),
(463,60,o),
(457,78,o),
(450,105,cs),
(384,346,ls),
(378,367,o),
(379,381,o),
(379,391,cs),
(379,401,o),
(385,417,o),
(394,446,cs),
(444,603,ls),
(449,619,o),
(464,656,o),
(464,670,cs),
(464,690,o),
(454,700,o),
(424,700,cs),
(330,700,ls),
(303,700,o),
(289,692,o),
(280,660,cs),
(225,470,ls),
(221,457,o),
(215,450,o),
(210,450,cs),
(203,450,o),
(200,453,o),
(200,460,cs),
(200,660,ls),
(200,690,o),
(190,700,o),
(160,700,cs),
(60,700,ls),
(30,700,o),
(20,690,o),
(20,660,cs),
(20,40,ls),
(20,10,o),
(30,-1,o),
(60,-1,cs)
);
}
);
width = 474;
},
{
anchors = (
{
name = bottom;
pos = (235,0);
}
);
layerId = "6ABCF30A-460E-4EED-802C-9E4699B7E7F6";
shapes = (
{
closed = 1;
nodes = (
(160,0,ls),
(190,0,o),
(200,10,o),
(200,40,cs),
(200,290,ls),
(200,297,o),
(203,300,o),
(210,300,cs),
(215,300,o),
(221,297,o),
(225,280,cs),
(280,40,ls),
(287,10,o),
(300,0,o),
(330,0,cs),
(423,0,ls),
(453,0,o),
(463,10,o),
(463,40,cs),
(463,60,o),
(457,78,o),
(450,105,cs),
(384,346,ls),
(378,367,o),
(379,381,o),
(379,391,cs),
(379,401,o),
(385,417,o),
(394,446,cs),
(444,603,ls),
(449,619,o),
(464,656,o),
(464,670,cs),
(464,690,o),
(454,700,o),
(424,700,cs),
(330,700,ls),
(303,700,o),
(289,692,o),
(280,660,cs),
(225,470,ls),
(221,457,o),
(215,450,o),
(210,450,cs),
(203,450,o),
(200,453,o),
(200,460,cs),
(200,660,ls),
(200,690,o),
(190,700,o),
(160,700,cs),
(60,700,ls),
(30,700,o),
(20,690,o),
(20,660,cs),
(20,40,ls),
(20,10,o),
(30,-1,o),
(60,-1,cs)
);
}
);
width = 474;
},
{
associatedMasterId = m01;
layerId = "28FAFFF5-5106-4221-A298-96EE7AA46BF8";
name = "Sep 28, 22, 14:25";
shapes = (
{
closed = 1;
nodes = (
(38,0,l),
(218,0,l),
(218,700,l),
(38,700,l)
);
},
{
closed = 1;
nodes = (
(100,227,l),
(218,190,l),
(496,700,l),
(316,700,l)
);
},
{
closed = 1;
nodes = (
(309,0,l),
(506,0,l),
(369,504,l),
(226,420,l)
);
}
);
width = 520;
},
{
associatedMasterId = m01;
layerId = "FF3A616A-420D-43A2-9FB8-15C05695BF8C";
name = "Sep 28, 22, 14:25";
shapes = (
{
closed = 1;
nodes = (
(160,0,ls),
(190,0,o),
(200,10,o),
(200,40,cs),
(200,290,ls),
(200,297,o),
(203,300,o),
(210,300,cs),
(215,300,o),
(220,297,o),
(225,280,cs),
(300,40,ls),
(309,10,o),
(320,0,o),
(350,0,cs),
(470,0,ls),
(500,0,o),
(510,10,o),
(510,40,cs),
(510,60,o),
(502,78,o),
(482,124,cs),
(385,353,ls),
(376,374,o),
(371,390,o),
(371,400,cs),
(371,410,o),
(375,422,o),
(389,449,cs),
(480,621,ls),
(489,637,o),
(500,656,o),
(500,670,cs),
(500,690,o),
(490,700,o),
(460,700,cs),
(365,700,ls),
(338,700,o),
(329,690,o),
(315,660,cs),
(225,470,ls),
(219,457,o),
(215,450,o),
(210,450,cs),
(203,450,o),
(200,453,o),
(200,460,cs),
(200,660,ls),
(200,690,o),
(190,700,o),
(160,700,cs),
(60,700,ls),
(30,700,o),
(20,690,o),
(20,660,cs),
(20,40,ls),
(20,10,o),
(30,-1,o),
(60,-1,cs)
);
}
);
width = 520;
},
{
associatedMasterId = m01;
layerId = "4DD78AB3-BE21-4D13-864C-D6B39781595E";
name = "Oct 1, 22, 11:17";
shapes = (
{
closed = 1;
nodes = (
(160,0,ls),
(190,0,o),
(200,10,o),
(200,40,cs),
(200,185,ls),
(200,202,o),
(202,207,o),
(204,212,cs),
(222,254,ls),
(225,261,o),
(231,267,o),
(236,267,cs),
(241,267,o),
(245,261,o),
(246,252,cs),
(280,40,ls),
(285,8,o),
(297,0,o),
(320,0,cs),
(424,0,ls),
(454,0,o),
(464,10,o),
(464,40,cs),
(464,50,o),
(458,75,o),
(447,123,cs),
(376,424,ls),
(371,445,o),
(365,462,o),
(365,472,cs),
(365,482,o),
(369,492,o),
(383,520,cs),
(435,621,ls),
(444,638,o),
(455,656,o),
(455,670,cs),
(455,690,o),
(445,700,o),
(415,700,cs),
(330,700,ls),
(303,700,o),
(295,693,o),
(280,660,cs),
(225,540,ls),
(219,527,o),
(215,520,o),
(210,520,cs),
(203,520,o),
(200,523,o),
(200,530,cs),
(200,660,ls),
(200,690,o),
(190,700,o),
(160,700,cs),
(60,700,ls),
(30,700,o),
(20,690,o),
(20,660,cs),
(20,40,ls),
(20,10,o),
(30,-1,o),
(60,-1,cs)
);
}
);
width = 474;
}
);
unicode = 75;
},
{
color = 5;
glyphname = L;
kernLeft = H;
kernRight = L;
layers = (
{
anchors = (
{
name = bottom;
pos = (185,0);
},
{
name = topright;
pos = (195,700);
}
);
layerId = m01;
shapes = (
{
closed = 1;
nodes = (
(300,0,ls),
(330,0,o),
(340,10,o),
(340,40,cs),
(340,110,ls),
(340,140,o),
(330,150,o),
(300,150,cs),
(220,150,ls),
(205,150,o),
(200,155,o),
(200,170,cs),
(200,660,ls),
(200,690,o),
(190,700,o),
(160,700,cs),
(60,700,ls),
(30,700,o),
(20,690,o),
(20,660,cs),
(20,40,ls),
(20,10,o),
(30,0,o),
(60,0,cs)
);
}
);
width = 350;
},
{
anchors = (
{
name = bottom;
pos = (175,0);
},
{
name = topright;
pos = (195,700);
}
);
layerId = "6ABCF30A-460E-4EED-802C-9E4699B7E7F6";
shapes = (
{
closed = 1;
nodes = (
(300,0,ls),
(330,0,o),
(340,10,o),
(340,40,cs),
(340,110,ls),
(340,140,o),
(330,150,o),
(300,150,cs),
(220,150,ls),
(205,150,o),
(200,155,o),
(200,170,cs),
(200,660,ls),
(200,690,o),
(190,700,o),
(160,700,cs),
(60,700,ls),
(30,700,o),
(20,690,o),
(20,660,cs),
(20,40,ls),
(20,10,o),
(30,0,o),
(60,0,cs)
);
}
);
width = 350;
}
);
unicode = 76;
},
{
color = 5;
glyphname = Lslash;
layers = (
{
layerId = m01;
shapes = (
{
closed = 1;
nodes = (
(300,0,ls),
(330,0,o),
(340,10,o),
(340,40,cs),
(340,110,ls),
(340,140,o),
(330,150,o),
(300,150,cs),
(220,150,ls),
(205,150,o),
(200,155,o),
(200,170,cs),
(200,660,ls),
(200,690,o),
(190,700,o),
(160,700,cs),
(60,700,ls),
(30,700,o),
(20,690,o),
(20,660,cs),
(20,40,ls),
(20,10,o),
(30,0,o),
(60,0,cs)
);
},
{
closed = 1;
nodes = (
(-154,222,l),
(-62,222,l),
(338,613,l),
(246,613,l)
);
}
);
width = 350;
},
{
layerId = "6ABCF30A-460E-4EED-802C-9E4699B7E7F6";
shapes = (
{
closed = 1;
nodes = (
(300,0,ls),
(330,0,o),
(340,10,o),
(340,40,cs),
(340,110,ls),
(340,140,o),
(330,150,o),
(300,150,cs),
(220,150,ls),
(205,150,o),
(200,155,o),
(200,170,cs),
(200,660,ls),
(200,690,o),
(190,700,o),
(160,700,cs),
(60,700,ls),
(30,700,o),
(20,690,o),
(20,660,cs),
(20,40,ls),
(20,10,o),
(30,0,o),
(60,0,cs)
);
},
{
closed = 1;
nodes = (
(-154,222,l),
(-62,222,l),
(338,613,l),
(246,613,l)
);
}
);
width = 350;
}
);
unicode = 321;
},
{
color = 5;
glyphname = M;
kernLeft = H;
kernRight = H;
layers = (
{
layerId = m01;
shapes = (
{
closed = 1;
nodes = (
(150,0,ls),
(180,0,o),
(190,10,o),
(190,40,cs),
(190,369,ls),
(190,383,o),
(193,390,o),
(203,390,cs),
(213,390,o),
(217,383,o),
(220,355,cs),
(250,40,ls),
(252,18,o),
(255,0,o),
(275,0,cs),
(325,0,ls),
(345,0,o),
(348,20,o),
(350,40,cs),
(380,355,ls),
(383,383,o),
(387,390,o),
(396,390,cs),
(406,390,o),
(410,383,o),
(410,369,cs),
(410,40,ls),
(410,10,o),
(420,0,o),
(450,0,cs),
(540,0,ls),
(570,0,o),
(580,10,o),
(580,40,cs),
(580,660,ls),
(580,690,o),
(570,700,o),
(540,700,cs),
(395,700,ls),
(370,700,o),
(348,689,o),
(345,660,cs),
(314,339,ls),
(312,316,o),
(308,310,o),
(300,310,cs),
(292,310,o),
(288,316,o),
(286,339,cs),
(255,660,ls),
(252,688,o),
(230,700,o),
(205,700,cs),
(60,700,ls),
(30,700,o),
(20,690,o),
(20,660,cs),
(20,40,ls),
(20,10,o),
(30,0,o),
(60,0,cs)
);
}
);
width = 600;
},
{
associatedMasterId = m01;
layerId = "F688C055-9C97-4D66-8266-B110343FC198";
name = test;
shapes = (
{
closed = 1;
nodes = (
(310,449,o),
(298,477,qs),
(223,654,ls),
(208,689,o),
(172,710,o),
(141,710,qs),
(88,710,ls),
(71,710,o),
(47,700,o),
(35,688,o),
(29,662,o),
(28,646,o),
(28,630,qs),
(28,80,ls),
(28,64,o),
(29,48,o),
(35,22,o),
(47,10,o),
(71,0,o),
(88,0,qs),
(138,0,ls),
(155,0,o),
(179,10,o),
(191,22,o),
(197,48,o),
(198,64,o),
(198,80,qs),
(198,355,ls),
(198,365,o),
(203,365,qs),
(207,365,o),
(212,355,qs),
(225,329,o),
(251,274,o),
(265,243,o),
(280,212,o),
(289,197,o),
(300,184,o),
(311,180,o),
(325,180,o),
(336,184,o),
(347,197,o),
(356,212,o),
(370,243,o),
(385,274,o),
(411,328,o),
(424,355,qs),
(429,365,o),
(433,365,qs),
(438,365,o),
(438,355,qs),
(438,80,ls),
(438,64,o),
(439,48,o),
(445,22,o),
(457,10,o),
(481,0,o),
(498,0,qs),
(548,0,ls),
(565,0,o),
(589,10,o),
(601,22,o),
(607,48,o),
(608,64,o),
(608,80,qs),
(608,630,ls),
(608,646,o),
(607,662,o),
(601,688,o),
(589,700,o),
(565,710,o),
(548,710,qs),
(494,710,ls),
(463,710,o),
(428,690,o),
(413,654,qs),
(338,477,ls),
(326,449,o)
);
}
);
width = 640;
},
{
associatedMasterId = m01;
layerId = "FA050349-1282-4837-B37B-CF4E3E2D2328";
name = "Sep 11, 22, 15:10";
shapes = (
{
closed = 1;
nodes = (
(160,0,ls),
(190,0,o),
(200,10,o),
(200,40,cs),
(200,370,ls),
(200,384,o),
(202,390,o),
(210,390,cs),
(219,390,o),
(219,383,o),
(240,350,cs),
(283,281,o),
(290,260,o),
(310,260,cs),
(329,260,o),
(336,279,o),
(380,350,cs),
(401,383,o),
(402,390,o),
(410,390,cs),
(417,390,o),
(420,384,o),
(420,370,cs),
(420,40,ls),
(420,10,o),
(430,0,o),
(460,0,cs),
(560,0,ls),
(590,0,o),
(600,10,o),
(600,40,cs),
(600,660,ls),
(600,690,o),
(590,700,o),
(560,700,cs),
(450,700,ls),
(420,700,o),
(415,690,o),
(400,660,cs),
(334,530,ls),
(323,508,o),
(319,500,o),
(310,500,cs),
(302,500,o),
(297,511,o),
(287,530,cs),
(220,660,ls),
(205,689,o),
(200,700,o),
(170,700,cs),
(60,700,ls),
(30,700,o),
(20,690,o),
(20,660,cs),
(20,40,ls),
(20,10,o),
(30,0,o),
(60,0,cs)
);
}
);
width = 620;
},
{
associatedMasterId = m01;
layerId = "7FB62D56-ADA4-4438-90B2-D208D1EAB350";
name = "Sep 11, 22, 20:36";
shapes = (
{
closed = 1;
nodes = (
(150,0,ls),
(180,0,o),
(190,10,o),
(190,40,cs),
(190,300,ls),
(190,314,o),
(194,320,o),
(201,320,cs),
(210,320,o),
(210,309,o),
(231,270,cs),
(280,180,ls),
(291,159,o),
(295,150,o),
(310,150,cs),
(330,150,ls),
(345,150,o),
(349,159,o),
(360,180,cs),
(406,270,ls),
(425,308,o),
(430,320,o),
(438,320,cs),
(445,320,o),
(450,314,o),
(450,300,cs),
(450,40,ls),
(450,10,o),
(460,0,o),
(490,0,cs),
(580,0,ls),
(610,0,o),
(620,10,o),
(620,40,cs),
(620,660,ls),
(620,690,o),
(610,700,o),
(580,700,cs),
(480,700,ls),
(450,700,o),
(441,688,o),
(430,660,cs),
(344,449,ls),
(335,427,o),
(329,420,o),
(320,420,cs),
(312,420,o),
(306,428,o),
(297,449,cs),
(210,660,ls),
(199,687,o),
(190,700,o),
(160,700,cs),
(60,700,ls),
(30,700,o),
(20,690,o),
(20,660,cs),
(20,40,ls),
(20,10,o),
(30,0,o),
(60,0,cs)
);
}
);
width = 640;
},
{
associatedMasterId = m01;
layerId = "9D7C4878-F1B4-4F97-BAE7-DE9E3A2EB586";
name = "Sep 11, 22, 20:44";
shapes = (
{
closed = 1;
nodes = (
(150,0,ls),
(180,0,o),
(190,10,o),
(190,40,cs),
(190,300,ls),
(190,314,o),
(194,320,o),
(201,320,cs),
(210,320,o),
(210,313,o),
(221,270,cs),
(280,30,ls),
(286,7,o),
(295,0,o),
(310,0,cs),
(325,0,o),
(334,6,o),
(340,30,cs),
(396,270,ls),
(406,312,o),
(410,320,o),
(418,320,cs),
(425,320,o),
(430,314,o),
(430,300,cs),
(430,40,ls),
(430,10,o),
(440,0,o),
(470,0,cs),
(560,0,ls),
(590,0,o),
(600,10,o),
(600,40,cs),
(600,660,ls),
(600,690,o),
(590,700,o),
(560,700,cs),
(440,700,ls),
(410,700,o),
(397,688,o),
(390,660,cs),
(326,389,ls),
(321,367,o),
(316,360,o),
(310,360,cs),
(305,360,o),
(300,367,o),
(295,389,cs),
(230,660,ls),
(223,687,o),
(210,700,o),
(180,700,cs),
(60,700,ls),
(30,700,o),
(20,690,o),
(20,660,cs),
(20,40,ls),
(20,10,o),
(30,0,o),
(60,0,cs)
);
}
);
width = 620;
},
{
associatedMasterId = m01;
layerId = "D534A2C4-B49F-44A5-9A7C-B8990F7B1876";
name = "Sep 11, 22, 20:46";
shapes = (
{
closed = 1;
nodes = (
(150,0,ls),
(180,0,o),
(190,10,o),
(190,40,cs),
(190,270,ls),
(190,284,o),
(194,290,o),
(201,290,cs),
(210,290,o),
(209,283,o),
(221,240,cs),
(280,30,ls),
(286,7,o),
(295,0,o),
(310,0,cs),
(325,0,o),
(334,7,o),
(340,30,cs),
(396,240,ls),
(407,282,o),
(410,290,o),
(418,290,cs),
(425,290,o),
(430,284,o),
(430,270,cs),
(430,40,ls),
(430,10,o),
(440,0,o),
(470,0,cs),
(560,0,ls),
(590,0,o),
(600,10,o),
(600,40,cs),
(600,660,ls),
(600,690,o),
(590,700,o),
(560,700,cs),
(440,700,ls),
(410,700,o),
(396,688,o),
(390,660,cs),
(326,359,ls),
(321,337,o),
(316,330,o),
(310,330,cs),
(305,330,o),
(300,337,o),
(295,359,cs),
(230,660,ls),
(224,687,o),
(210,700,o),
(180,700,cs),
(60,700,ls),
(30,700,o),
(20,690,o),
(20,660,cs),
(20,40,ls),
(20,10,o),
(30,0,o),
(60,0,cs)
);
}
);
width = 620;
},
{
layerId = "6ABCF30A-460E-4EED-802C-9E4699B7E7F6";
shapes = (
{
closed = 1;
nodes = (
(150,0,ls),
(180,0,o),
(190,10,o),
(190,40,cs),
(190,369,ls),
(190,383,o),
(194,390,o),
(204,390,cs),
(213,390,o),
(217,383,o),
(220,355,cs),
(255,40,ls),
(257,18,o),
(260,0,o),
(280,0,cs),
(320,0,ls),
(340,0,o),
(343,20,o),
(345,40,cs),
(380,355,ls),
(383,383,o),
(388,390,o),
(396,390,cs),
(406,390,o),
(410,383,o),
(410,369,cs),
(410,40,ls),
(410,10,o),
(420,0,o),
(450,0,cs),
(540,0,ls),
(570,0,o),
(580,10,o),
(580,40,cs),
(580,660,ls),
(580,690,o),
(570,700,o),
(540,700,cs),
(400,700,ls),
(375,700,o),
(353,689,o),
(350,660,cs),
(314,339,ls),
(311,316,o),
(308,310,o),
(300,310,cs),
(292,310,o),
(289,316,o),
(286,339,cs),
(250,660,ls),
(247,688,o),
(225,700,o),
(200,700,cs),
(60,700,ls),
(30,700,o),
(20,690,o),
(20,660,cs),
(20,40,ls),
(20,10,o),
(30,0,o),
(60,0,cs)
);
}
);
width = 600;
},
{
associatedMasterId = m01;
layerId = "9DED20E6-D39C-4E3D-8E05-42571727FA9D";
name = "Sep 24, 22, 12:54";
shapes = (
{
closed = 1;
nodes = (
(160,0,ls),
(190,0,o),
(200,10,o),
(200,40,cs),
(200,330,ls),
(200,344,o),
(202,350,o),
(209,350,cs),
(218,350,o),
(219,342,o),
(235,300,cs),
(280,180,ls),
(289,157,o),
(295,150,o),
(310,150,cs),
(330,150,ls),
(345,150,o),
(351,157,o),
(360,180,cs),
(404,300,ls),
(419,341,o),
(422,350,o),
(430,350,cs),
(437,350,o),
(440,344,o),
(440,330,cs),
(440,40,ls),
(440,10,o),
(450,0,o),
(480,0,cs),
(580,0,ls),
(610,0,o),
(620,10,o),
(620,40,cs),
(620,660,ls),
(620,690,o),
(610,700,o),
(580,700,cs),
(470,700,ls),
(445,700,o),
(430,688,o),
(420,660,cs),
(344,439,ls),
(337,418,o),
(331,410,o),
(320,410,cs),
(310,410,o),
(304,418,o),
(297,439,cs),
(220,660,ls),
(210,688,o),
(195,700,o),
(170,700,cs),
(60,700,ls),
(30,700,o),
(20,690,o),
(20,660,cs),
(20,40,ls),
(20,10,o),
(30,0,o),
(60,0,cs)
);
}
);
width = 640;
}
);
unicode = 77;
},
{
color = 5;
glyphname = N;
kernLeft = H;
kernRight = H;
layers = (
{
anchors = (
{
name = bottom;
pos = (235,0);
},
{
name = top;
pos = (240,700);
}
);
layerId = m01;
shapes = (
{
closed = 1;
nodes = (
(150,0,ls),
(180,0,o),
(190,10,o),
(190,40,cs),
(190,370,ls),
(190,386,o),
(196,390,o),
(203,390,cs),
(209,390,o),
(214,384,o),
(216,370,cs),
(270,40,ls),
(276,6,o),
(291,0,o),
(315,0,cs),
(437,0,ls),
(467,0,o),
(477,10,o),
(477,40,cs),
(477,660,ls),
(477,690,o),
(467,700,o),
(437,700,cs),
(347,700,ls),
(317,700,o),
(307,690,o),
(307,660,cs),
(307,330,ls),
(307,316,o),
(303,310,o),
(294,310,cs),
(286,310,o),
(283,318,o),
(281,330,cs),
(227,660,ls),
(221,695,o),
(205,700,o),
(180,700,cs),
(60,700,ls),
(30,700,o),
(20,690,o),
(20,660,cs),
(20,40,ls),
(20,10,o),
(30,0,o),
(60,0,cs)
);
}
);
width = 497;
},
{
anchors = (
{
name = bottom;
pos = (235,0);
},
{
name = top;
pos = (240,700);
}
);
layerId = "6ABCF30A-460E-4EED-802C-9E4699B7E7F6";
shapes = (
{
closed = 1;
nodes = (
(150,0,ls),
(180,0,o),
(190,10,o),
(190,40,cs),
(190,370,ls),
(190,386,o),
(196,390,o),
(203,390,cs),
(209,390,o),
(214,384,o),
(216,370,cs),
(270,40,ls),
(276,6,o),
(291,0,o),
(315,0,cs),
(437,0,ls),
(467,0,o),
(477,10,o),
(477,40,cs),
(477,660,ls),
(477,690,o),
(467,700,o),
(437,700,cs),
(347,700,ls),
(317,700,o),
(307,690,o),
(307,660,cs),
(307,330,ls),
(307,316,o),
(303,310,o),
(294,310,cs),
(286,310,o),
(283,318,o),
(281,330,cs),
(227,660,ls),
(221,695,o),
(205,700,o),
(180,700,cs),
(60,700,ls),
(30,700,o),
(20,690,o),
(20,660,cs),
(20,40,ls),
(20,10,o),
(30,0,o),
(60,0,cs)
);
}
);
width = 497;
}
);
unicode = 78;
},
{
color = 5;
glyphname = Eng;
layers = (
{
layerId = m01;
shapes = (
{
closed = 1;
nodes = (
(150,0,ls),
(180,0,o),
(190,10,o),
(190,40,cs),
(190,370,ls),
(190,386,o),
(196,390,o),
(203,390,cs),
(209,390,o),
(214,384,o),
(216,370,cs),
(234,260,o),
(270,171,o),
(270,40,cs),
(270,-55,ls),
(270,-70,o),
(265,-75,o),
(250,-75,cs),
(210,-75,ls),
(180,-75,o),
(170,-85,o),
(170,-115,cs),
(170,-185,ls),
(170,-215,o),
(180,-225,o),
(210,-225,cs),
(328,-225,ls),
(468,-225,o),
(477,-165,o),
(477,-25,cs),
(477,660,ls),
(477,690,o),
(467,700,o),
(437,700,cs),
(347,700,ls),
(317,700,o),
(307,690,o),
(307,660,cs),
(307,330,ls),
(307,316,o),
(303,310,o),
(294,310,cs),
(286,310,o),
(283,318,o),
(281,330,cs),
(227,660,ls),
(221,695,o),
(205,700,o),
(180,700,cs),
(60,700,ls),
(30,700,o),
(20,690,o),
(20,660,cs),
(20,40,ls),
(20,10,o),
(30,0,o),
(60,0,cs)
);
}
);
width = 497;
},
{
layerId = "6ABCF30A-460E-4EED-802C-9E4699B7E7F6";
shapes = (
{
closed = 1;
nodes = (
(150,0,ls),
(180,0,o),
(190,10,o),
(190,40,cs),
(190,370,ls),
(190,386,o),
(196,390,o),
(203,390,cs),
(209,390,o),
(214,384,o),
(216,370,cs),
(234,260,o),
(270,171,o),
(270,40,cs),
(270,-55,ls),
(270,-70,o),
(265,-75,o),
(250,-75,cs),
(210,-75,ls),
(180,-75,o),
(170,-85,o),
(170,-115,cs),
(170,-185,ls),
(170,-215,o),
(180,-225,o),
(210,-225,cs),
(328,-225,ls),
(468,-225,o),
(477,-165,o),
(477,-25,cs),
(477,660,ls),
(477,690,o),
(467,700,o),
(437,700,cs),
(347,700,ls),
(317,700,o),
(307,690,o),
(307,660,cs),
(307,330,ls),
(307,316,o),
(303,310,o),
(294,310,cs),
(286,310,o),
(283,318,o),
(281,330,cs),
(227,660,ls),
(221,695,o),
(205,700,o),
(180,700,cs),
(60,700,ls),
(30,700,o),
(20,690,o),
(20,660,cs),
(20,40,ls),
(20,10,o),
(30,0,o),
(60,0,cs)
);
}
);
width = 497;
}
);
unicode = 330;
},
{
color = 5;
glyphname = O;
kernLeft = O;
kernRight = O;
layers = (
{
anchors = (
{
name = top;
pos = (237,700);
}
);
layerId = m01;
shapes = (
{
closed = 1;
nodes = (
(377,-10,o),
(457,60,o),
(457,200,cs),
(457,500,ls),
(457,640,o),
(377,710,o),
(237,710,cs),
(97,710,o),
(17,640,o),
(17,500,cs),
(17,200,ls),
(17,60,o),
(97,-10,o),
(237,-10,cs)
);
},
{
closed = 1;
nodes = (
(207,140,o),
(197,160,o),
(197,190,cs),
(197,510,ls),
(197,540,o),
(207,560,o),
(237,560,cs),
(267,560,o),
(277,540,o),
(277,510,cs),
(277,190,ls),
(277,160,o),
(267,140,o),
(237,140,cs)
);
}
);
width = 474;
},
{
anchors = (
{
name = top;
pos = (237,700);
}
);
layerId = "6ABCF30A-460E-4EED-802C-9E4699B7E7F6";
shapes = (
{
closed = 1;
nodes = (
(377,-10,o),
(457,70,o),
(457,200,cs),
(457,500,ls),
(457,630,o),
(377,710,o),
(237,710,cs),
(97,710,o),
(17,630,o),
(17,500,cs),
(17,200,ls),
(17,70,o),
(97,-10,o),
(237,-10,cs)
);
},
{
closed = 1;
nodes = (
(207,140,o),
(197,160,o),
(197,190,cs),
(197,510,ls),
(197,540,o),
(207,560,o),
(237,560,cs),
(267,560,o),
(277,540,o),
(277,510,cs),
(277,190,ls),
(277,160,o),
(267,140,o),
(237,140,cs)
);
}
);
width = 474;
}
);
unicode = 79;
},
{
color = 5;
glyphname = Oslash;
layers = (
{
layerId = m01;
shapes = (
{
closed = 1;
nodes = (
(377,-10,o),
(457,70,o),
(457,200,cs),
(457,500,ls),
(457,630,o),
(377,710,o),
(237,710,cs),
(97,710,o),
(17,630,o),
(17,500,cs),
(17,200,ls),
(17,70,o),
(97,-10,o),
(237,-10,cs)
);
},
{
closed = 1;
nodes = (
(207,140,o),
(197,160,o),
(197,190,cs),
(197,510,ls),
(197,540,o),
(207,560,o),
(237,560,cs),
(267,560,o),
(277,540,o),
(277,510,cs),
(277,190,ls),
(277,160,o),
(267,140,o),
(237,140,cs)
);
},
{
closed = 1;
nodes = (
(65,0,l),
(454,740,l),
(409,740,l),
(20,0,l)
);
}
);
width = 474;
},
{
layerId = "6ABCF30A-460E-4EED-802C-9E4699B7E7F6";
shapes = (
{
closed = 1;
nodes = (
(377,-10,o),
(457,70,o),
(457,200,cs),
(457,500,ls),
(457,630,o),
(377,710,o),
(237,710,cs),
(97,710,o),
(17,630,o),
(17,500,cs),
(17,200,ls),
(17,70,o),
(97,-10,o),
(237,-10,cs)
);
},
{
closed = 1;
nodes = (
(207,140,o),
(197,160,o),
(197,190,cs),
(197,510,ls),
(197,540,o),
(207,560,o),
(237,560,cs),
(267,560,o),
(277,540,o),
(277,510,cs),
(277,190,ls),
(277,160,o),
(267,140,o),
(237,140,cs)
);
},
{
closed = 1;
nodes = (
(65,0,l),
(454,740,l),
(409,740,l),
(20,0,l)
);
}
);
width = 474;
}
);
unicode = 216;
},
{
color = 5;
glyphname = OE;
layers = (
{
layerId = m01;
shapes = (
{
closed = 1;
nodes = (
(268,-10,o),
(294,0,o),
(320,0,cs),
(587,0,ls),
(617,0,o),
(627,10,o),
(627,40,cs),
(627,110,ls),
(627,140,o),
(617,150,o),
(587,150,cs),
(477,150,ls),
(462,150,o),
(457,155,o),
(457,170,cs),
(457,270,ls),
(457,285,o),
(462,290,o),
(477,290,cs),
(547,290,ls),
(577,290,o),
(587,300,o),
(587,330,cs),
(587,390,ls),
(587,420,o),
(577,430,o),
(547,430,cs),
(477,430,ls),
(462,430,o),
(457,435,o),
(457,450,cs),
(457,530,ls),
(457,545,o),
(462,550,o),
(477,550,cs),
(587,550,ls),
(617,550,o),
(627,560,o),
(627,590,cs),
(627,660,ls),
(627,690,o),
(617,700,o),
(587,700,cs),
(320,700,ls),
(294,700,o),
(268,710,o),
(237,710,cs),
(97,710,o),
(17,640,o),
(17,500,cs),
(17,200,ls),
(17,60,o),
(97,-10,o),
(237,-10,cs)
);
},
{
closed = 1;
nodes = (
(197,510,ls),
(197,540,o),
(207,560,o),
(237,560,cs),
(267,560,o),
(277,540,o),
(277,510,cs),
(277,190,ls),
(277,160,o),
(267,140,o),
(237,140,cs),
(207,140,o),
(197,160,o),
(197,190,cs)
);
}
);
width = 642;
},
{
layerId = "6ABCF30A-460E-4EED-802C-9E4699B7E7F6";
shapes = (
{
closed = 1;
nodes = (
(268,-10,o),
(294,0,o),
(320,0,cs),
(587,0,ls),
(617,0,o),
(627,10,o),
(627,40,cs),
(627,110,ls),
(627,140,o),
(617,150,o),
(587,150,cs),
(477,150,ls),
(462,150,o),
(457,155,o),
(457,170,cs),
(457,270,ls),
(457,285,o),
(462,290,o),
(477,290,cs),
(547,290,ls),
(577,290,o),
(587,300,o),
(587,330,cs),
(587,390,ls),
(587,420,o),
(577,430,o),
(547,430,cs),
(477,430,ls),
(462,430,o),
(457,435,o),
(457,450,cs),
(457,530,ls),
(457,545,o),
(462,550,o),
(477,550,cs),
(587,550,ls),
(617,550,o),
(627,560,o),
(627,590,cs),
(627,660,ls),
(627,690,o),
(617,700,o),
(587,700,cs),
(320,700,ls),
(294,700,o),
(268,710,o),
(237,710,cs),
(97,710,o),
(17,640,o),
(17,500,cs),
(17,200,ls),
(17,60,o),
(97,-10,o),
(237,-10,cs)
);
},
{
closed = 1;
nodes = (
(197,510,ls),
(197,540,o),
(207,560,o),
(237,560,cs),
(267,560,o),
(277,540,o),
(277,510,cs),
(277,190,ls),
(277,160,o),
(267,140,o),
(237,140,cs),
(207,140,o),
(197,160,o),
(197,190,cs)
);
}
);
width = 642;
}
);
unicode = 338;
},
{
color = 5;
glyphname = P;
kernLeft = H;
kernRight = P;
layers = (
{
layerId = m01;
shapes = (
{
closed = 1;
nodes = (
(160,0,ls),
(190,0,o),
(200,10,o),
(200,40,cs),
(200,240,ls),
(200,255,o),
(205,260,o),
(220,260,cs),
(240,260,ls),
(370,260,o),
(440,310,o),
(440,440,cs),
(440,510,ls),
(440,640,o),
(370,700,o),
(240,700,cs),
(60,700,ls),
(30,700,o),
(20,690,o),
(20,660,cs),
(20,40,ls),
(20,10,o),
(30,0,o),
(60,0,cs)
);
},
{
closed = 1;
nodes = (
(205,400,o),
(200,405,o),
(200,420,cs),
(200,530,ls),
(200,545,o),
(205,550,o),
(220,550,cs),
(230,550,ls),
(260,550,o),
(270,540,o),
(270,500,cs),
(270,450,ls),
(270,410,o),
(260,400,o),
(230,400,cs),
(220,400,ls)
);
}
);
width = 450;
},
{
layerId = "6ABCF30A-460E-4EED-802C-9E4699B7E7F6";
shapes = (
{
closed = 1;
nodes = (
(160,0,ls),
(190,0,o),
(200,10,o),
(200,40,cs),
(200,240,ls),
(200,255,o),
(205,260,o),
(220,260,cs),
(250,260,ls),
(390,260,o),
(460,320,o),
(460,450,cs),
(460,500,ls),
(460,630,o),
(390,700,o),
(250,700,cs),
(60,700,ls),
(30,700,o),
(20,690,o),
(20,660,cs),
(20,40,ls),
(20,10,o),
(30,0,o),
(60,0,cs)
);
},
{
closed = 1;
nodes = (
(205,400,o),
(200,405,o),
(200,420,cs),
(200,530,ls),
(200,545,o),
(205,550,o),
(220,550,cs),
(240,550,ls),
(270,550,o),
(280,540,o),
(280,510,cs),
(280,440,ls),
(280,410,o),
(270,400,o),
(240,400,cs),
(220,400,ls)
);
}
);
width = 472;
}
);
unicode = 80;
},
{
color = 5;
glyphname = Thorn;
layers = (
{
layerId = m01;
shapes = (
{
closed = 1;
nodes = (
(160,0,ls),
(190,0,o),
(200,10,o),
(200,40,cs),
(200,110,ls),
(200,125,o),
(205,130,o),
(220,130,cs),
(240,130,ls),
(370,130,o),
(440,180,o),
(440,310,cs),
(440,380,ls),
(440,510,o),
(370,570,o),
(240,570,cs),
(220,570,ls),
(205,570,o),
(200,575,o),
(200,590,cs),
(200,660,ls),
(200,690,o),
(190,700,o),
(160,700,cs),
(60,700,ls),
(30,700,o),
(20,690,o),
(20,660,cs),
(20,40,ls),
(20,10,o),
(30,0,o),
(60,0,cs)
);
},
{
closed = 1;
nodes = (
(200,400,ls),
(200,415,o),
(205,420,o),
(220,420,cs),
(230,420,ls),
(260,420,o),
(270,410,o),
(270,370,cs),
(270,320,ls),
(270,280,o),
(260,270,o),
(230,270,cs),
(220,270,ls),
(205,270,o),
(200,275,o),
(200,290,cs)
);
}
);
width = 450;
},
{
layerId = "6ABCF30A-460E-4EED-802C-9E4699B7E7F6";
shapes = (
{
closed = 1;
nodes = (
(160,0,ls),
(190,0,o),
(200,10,o),
(200,40,cs),
(200,110,ls),
(200,125,o),
(205,130,o),
(220,130,cs),
(240,130,ls),
(370,130,o),
(440,180,o),
(440,310,cs),
(440,380,ls),
(440,510,o),
(370,570,o),
(240,570,cs),
(220,570,ls),
(205,570,o),
(200,575,o),
(200,590,cs),
(200,660,ls),
(200,690,o),
(190,700,o),
(160,700,cs),
(60,700,ls),
(30,700,o),
(20,690,o),
(20,660,cs),
(20,40,ls),
(20,10,o),
(30,0,o),
(60,0,cs)
);
},
{
closed = 1;
nodes = (
(200,400,ls),
(200,415,o),
(205,420,o),
(220,420,cs),
(230,420,ls),
(260,420,o),
(270,410,o),
(270,370,cs),
(270,320,ls),
(270,280,o),
(260,270,o),
(230,270,cs),
(220,270,ls),
(205,270,o),
(200,275,o),
(200,290,cs)
);
}
);
width = 450;
}
);
unicode = 222;
},
{
color = 5;
glyphname = Q;
kernLeft = O;
kernRight = Q;
layers = (
{
layerId = m01;
shapes = (
{
closed = 1;
nodes = (
(305,-10,o),
(333,30,o),
(353,30,cs),
(377,30,o),
(387,0,o),
(447,0,cs),
(457,0,ls),
(487,0,o),
(497,10,o),
(497,40,cs),
(497,120,ls),
(497,150,o),
(487,160,o),
(457,160,cs),
(442,160,o),
(437,166,o),
(437,180,cs),
(437,200,o),
(457,215,o),
(457,290,cs),
(457,500,ls),
(457,640,o),
(377,710,o),
(237,710,cs),
(97,710,o),
(17,640,o),
(17,500,cs),
(17,200,ls),
(17,60,o),
(97,-10,o),
(237,-10,cs)
);
},
{
closed = 1;
nodes = (
(207,140,o),
(197,160,o),
(197,190,cs),
(197,510,ls),
(197,540,o),
(207,560,o),
(237,560,cs),
(267,560,o),
(277,540,o),
(277,510,cs),
(277,190,ls),
(277,160,o),
(267,140,o),
(237,140,cs)
);
}
);
width = 507;
},
{
layerId = "6ABCF30A-460E-4EED-802C-9E4699B7E7F6";
shapes = (
{
closed = 1;
nodes = (
(308,-10,o),
(336,30,o),
(356,30,cs),
(370,30,o),
(380,0,o),
(440,0,cs),
(460,0,ls),
(490,0,o),
(500,10,o),
(500,40,cs),
(500,120,ls),
(500,150,o),
(490,160,o),
(460,160,cs),
(430,160,o),
(420,170,o),
(420,184,cs),
(420,214,o),
(460,225,o),
(460,290,cs),
(460,500,ls),
(460,630,o),
(380,710,o),
(240,710,cs),
(100,710,o),
(20,630,o),
(20,500,cs),
(20,200,ls),
(20,70,o),
(100,-10,o),
(240,-10,cs)
);
},
{
closed = 1;
nodes = (
(210,130,o),
(200,150,o),
(200,180,cs),
(200,520,ls),
(200,550,o),
(210,570,o),
(240,570,cs),
(270,570,o),
(280,550,o),
(280,520,cs),
(280,180,ls),
(280,150,o),
(270,130,o),
(240,130,cs)
);
}
);
width = 520;
},
{
associatedMasterId = m01;
layerId = "C4D1A468-879B-4D37-86EA-3CD9078B41A4";
name = "Sep 28, 22, 18:51";
shapes = (
{
closed = 1;
nodes = (
(377,-10,o),
(457,60,o),
(457,200,cs),
(457,500,ls),
(457,640,o),
(377,710,o),
(237,710,cs),
(97,710,o),
(17,640,o),
(17,500,cs),
(17,200,ls),
(17,60,o),
(97,-10,o),
(237,-10,cs)
);
},
{
closed = 1;
nodes = (
(207,140,o),
(197,160,o),
(197,190,cs),
(197,510,ls),
(197,540,o),
(207,560,o),
(237,560,cs),
(267,560,o),
(277,540,o),
(277,510,cs),
(277,190,ls),
(277,160,o),
(267,140,o),
(237,140,cs)
);
}
);
visible = 1;
width = 507;
}
);
unicode = 81;
},
{
color = 5;
glyphname = R;
kernLeft = H;
kernRight = R;
layers = (
{
anchors = (
{
name = bottom;
pos = (240,0);
},
{
name = top;
pos = (240,700);
}
);
layerId = m01;
shapes = (
{
closed = 1;
nodes = (
(160,0,ls),
(190,0,o),
(200,10,o),
(200,40,cs),
(200,260,ls),
(200,275,o),
(205,280,o),
(220,280,cs),
(240,280,ls),
(270,280,o),
(280,270,o),
(280,230,cs),
(280,80,ls),
(280,30,o),
(290,0,o),
(340,0,cs),
(430,0,ls),
(460,0,o),
(470,10,o),
(470,26,cs),
(470,43,o),
(460,43,o),
(460,80,cs),
(460,210,ls),
(460,268,o),
(444,303,o),
(411,330,cs),
(394,344,o),
(392,346,o),
(392,351,cs),
(392,356,o),
(399,360,o),
(411,372,cs),
(441,400,o),
(460,437,o),
(460,490,cs),
(460,510,ls),
(460,640,o),
(380,700,o),
(250,700,cs),
(60,700,ls),
(30,700,o),
(20,690,o),
(20,660,cs),
(20,40,ls),
(20,10,o),
(30,0,o),
(60,0,cs)
);
},
{
closed = 1;
nodes = (
(205,420,o),
(200,425,o),
(200,440,cs),
(200,530,ls),
(200,545,o),
(205,550,o),
(220,550,cs),
(240,550,ls),
(270,550,o),
(280,540,o),
(280,500,cs),
(280,470,ls),
(280,430,o),
(270,420,o),
(240,420,cs),
(220,420,ls)
);
}
);
width = 477;
},
{
anchors = (
{
name = bottom;
pos = (240,0);
},
{
name = top;
pos = (240,700);
}
);
layerId = "6ABCF30A-460E-4EED-802C-9E4699B7E7F6";
shapes = (
{
closed = 1;
nodes = (
(160,0,ls),
(190,0,o),
(200,10,o),
(200,40,cs),
(200,260,ls),
(200,275,o),
(205,280,o),
(220,280,cs),
(240,280,ls),
(270,280,o),
(280,270,o),
(280,230,cs),
(280,80,ls),
(280,30,o),
(290,0,o),
(340,0,cs),
(430,0,ls),
(460,0,o),
(470,10,o),
(470,26,cs),
(470,43,o),
(460,43,o),
(460,80,cs),
(460,210,ls),
(460,268,o),
(444,303,o),
(411,330,cs),
(394,344,o),
(392,346,o),
(392,351,cs),
(392,356,o),
(399,360,o),
(411,372,cs),
(441,400,o),
(460,437,o),
(460,490,cs),
(460,510,ls),
(460,640,o),
(380,700,o),
(250,700,cs),
(60,700,ls),
(30,700,o),
(20,690,o),
(20,660,cs),
(20,40,ls),
(20,10,o),
(30,0,o),
(60,0,cs)
);
},
{
closed = 1;
nodes = (
(205,420,o),
(200,425,o),
(200,440,cs),
(200,530,ls),
(200,545,o),
(205,550,o),
(220,550,cs),
(240,550,ls),
(270,550,o),
(280,540,o),
(280,500,cs),
(280,470,ls),
(280,430,o),
(270,420,o),
(240,420,cs),
(220,420,ls)
);
}
);
width = 477;
},
{
anchors = (
{
name = top;
pos = (240,700);
}
);
associatedMasterId = m01;
layerId = "07787294-6064-4A53-AB2F-EFB308EAD9E4";
name = "Sep 28, 22, 19:42";
shapes = (
{
closed = 1;
nodes = (
(160,0,ls),
(190,0,o),
(200,10,o),
(200,40,cs),
(200,240,ls),
(200,255,o),
(205,260,o),
(220,260,cs),
(250,260,ls),
(380,260,o),
(460,310,o),
(460,440,cs),
(460,510,ls),
(460,640,o),
(380,700,o),
(250,700,cs),
(60,700,ls),
(30,700,o),
(20,690,o),
(20,660,cs),
(20,40,ls),
(20,10,o),
(30,0,o),
(60,0,cs)
);
},
{
closed = 1;
nodes = (
(205,400,o),
(200,405,o),
(200,420,cs),
(200,530,ls),
(200,545,o),
(205,550,o),
(220,550,cs),
(240,550,ls),
(270,550,o),
(280,540,o),
(280,500,cs),
(280,450,ls),
(280,410,o),
(270,400,o),
(240,400,cs),
(220,400,ls)
);
}
);
width = 484;
}
);
unicode = 82;
},
{
color = 5;
glyphname = S;
kernLeft = S;
kernRight = S;
layers = (
{
anchors = (
{
name = bottom;
pos = (240,0);
},
{
name = top;
pos = (240,700);
}
);
layerId = m01;
shapes = (
{
closed = 1;
nodes = (
(370,-10,o),
(460,40,o),
(460,180,cs),
(460,283,o),
(420,332,o),
(317,396,cs),
(210,463,o),
(200,481,o),
(200,520,cs),
(200,545,o),
(211,560,o),
(236,560,cs),
(261,560,o),
(272,545,o),
(272,520,cs),
(272,510,ls),
(272,480,o),
(282,470,o),
(312,470,cs),
(412,470,ls),
(442,470,o),
(452,480,o),
(452,510,cs),
(452,640,o),
(377,710,o),
(237,710,cs),
(97,710,o),
(20,640,o),
(20,520,cs),
(20,411,o),
(83,339,o),
(180,276,cs),
(240,237,o),
(280,217,o),
(280,180,cs),
(280,157,o),
(269,140,o),
(235,140,cs),
(202,140,o),
(190,157,o),
(190,180,cs),
(190,190,ls),
(190,220,o),
(180,230,o),
(150,230,cs),
(50,230,ls),
(20,230,o),
(10,220,o),
(10,190,cs),
(10,40,o),
(90,-10,o),
(230,-10,cs)
);
}
);
width = 470;
},
{
anchors = (
{
name = bottom;
pos = (240,0);
},
{
name = top;
pos = (240,700);
}
);
layerId = "6ABCF30A-460E-4EED-802C-9E4699B7E7F6";
shapes = (
{
closed = 1;
nodes = (
(370,-10,o),
(470,40,o),
(470,180,cs),
(470,263,o),
(420,322,o),
(317,386,cs),
(209,453,o),
(190,481,o),
(190,520,cs),
(190,550,o),
(200,570,o),
(230,570,cs),
(260,570,o),
(270,550,o),
(270,520,cs),
(270,500,ls),
(270,470,o),
(280,460,o),
(310,460,cs),
(410,460,ls),
(440,460,o),
(450,470,o),
(450,500,cs),
(450,640,o),
(370,710,o),
(230,710,cs),
(90,710,o),
(10,640,o),
(10,500,cs),
(10,381,o),
(84,346,o),
(180,287,cs),
(242,249,o),
(270,211,o),
(270,180,cs),
(270,150,o),
(260,130,o),
(230,130,cs),
(199,130,o),
(190,150,o),
(190,180,cs),
(190,200,ls),
(190,230,o),
(180,240,o),
(150,240,cs),
(50,240,ls),
(20,240,o),
(10,230,o),
(10,200,cs),
(10,60,o),
(90,-10,o),
(230,-10,cs)
);
}
);
width = 480;
}
);
unicode = 83;
},
{
color = 5;
glyphname = Scedilla;
layers = (
{
layerId = m01;
shapes = (
{
closed = 1;
nodes = (
(10,53,o),
(76,0,o),
(194,-9,c),
(211,-19,o),
(219,-36,o),
(219,-50,cs),
(219,-70,o),
(191,-83,o),
(159,-83,cs),
(145,-83,o),
(139,-91,o),
(139,-103,cs),
(139,-154,ls),
(139,-164,o),
(145,-174,o),
(159,-174,cs),
(257,-174,o),
(311,-147,o),
(311,-92,cs),
(311,-38,o),
(265,-30,o),
(265,-10,cs),
(265,-9,l),
(385,-1,o),
(460,52,o),
(460,180,cs),
(460,283,o),
(420,332,o),
(317,396,cs),
(210,463,o),
(200,481,o),
(200,520,cs),
(200,545,o),
(211,560,o),
(236,560,cs),
(261,560,o),
(272,545,o),
(272,520,cs),
(272,510,ls),
(272,480,o),
(282,470,o),
(312,470,cs),
(412,470,ls),
(442,470,o),
(452,480,o),
(452,510,cs),
(452,640,o),
(377,710,o),
(237,710,cs),
(97,710,o),
(20,640,o),
(20,520,cs),
(20,411,o),
(83,339,o),
(180,276,cs),
(240,237,o),
(280,217,o),
(280,180,cs),
(280,157,o),
(269,140,o),
(235,140,cs),
(202,140,o),
(190,157,o),
(190,180,cs),
(190,190,ls),
(190,220,o),
(180,230,o),
(150,230,cs),
(50,230,ls),
(20,230,o),
(10,220,o),
(10,190,cs)
);
}
);
width = 470;
},
{
layerId = "6ABCF30A-460E-4EED-802C-9E4699B7E7F6";
shapes = (
{
closed = 1;
nodes = (
(10,53,o),
(76,0,o),
(194,-9,c),
(211,-19,o),
(219,-36,o),
(219,-50,cs),
(219,-70,o),
(191,-83,o),
(159,-83,cs),
(145,-83,o),
(139,-91,o),
(139,-103,cs),
(139,-154,ls),
(139,-164,o),
(145,-174,o),
(159,-174,cs),
(257,-174,o),
(311,-147,o),
(311,-92,cs),
(311,-38,o),
(265,-30,o),
(265,-10,cs),
(265,-9,l),
(385,-1,o),
(460,52,o),
(460,180,cs),
(460,283,o),
(420,332,o),
(317,396,cs),
(210,463,o),
(200,481,o),
(200,520,cs),
(200,545,o),
(211,560,o),
(236,560,cs),
(261,560,o),
(272,545,o),
(272,520,cs),
(272,510,ls),
(272,480,o),
(282,470,o),
(312,470,cs),
(412,470,ls),
(442,470,o),
(452,480,o),
(452,510,cs),
(452,640,o),
(377,710,o),
(237,710,cs),
(97,710,o),
(20,640,o),
(20,520,cs),
(20,411,o),
(83,339,o),
(180,276,cs),
(240,237,o),
(280,217,o),
(280,180,cs),
(280,157,o),
(269,140,o),
(235,140,cs),
(202,140,o),
(190,157,o),
(190,180,cs),
(190,190,ls),
(190,220,o),
(180,230,o),
(150,230,cs),
(50,230,ls),
(20,230,o),
(10,220,o),
(10,190,cs)
);
}
);
width = 470;
}
);
unicode = 350;
},
{
color = 5;
glyphname = Germandbls;
layers = (
{
layerId = m01;
shapes = (
{
closed = 1;
nodes = (
(160,0,ls),
(190,0,o),
(200,10,o),
(200,40,cs),
(200,540,ls),
(200,555,o),
(205,560,o),
(220,560,cs),
(290,560,ls),
(320,560,o),
(350,550,o),
(350,510,cs),
(350,480,ls),
(350,440,o),
(340,430,o),
(310,430,cs),
(300,430,ls),
(285,430,o),
(280,425,o),
(280,410,cs),
(280,310,ls),
(280,295,o),
(285,290,o),
(300,290,cs),
(310,290,ls),
(340,290,o),
(350,280,o),
(350,230,cs),
(350,200,ls),
(350,150,o),
(340,140,o),
(310,140,cs),
(267,140,ls),
(252,140,o),
(247,135,o),
(247,120,cs),
(247,20,ls),
(247,5,o),
(252,0,o),
(267,0,cs),
(350,0,ls),
(480,0,o),
(540,60,o),
(540,180,cs),
(540,210,ls),
(540,300,o),
(486,337,o),
(460,350,cs),
(455,353,o),
(450,355,o),
(450,360,cs),
(450,365,o),
(454,366,o),
(460,370,cs),
(483,385,o),
(520,420,o),
(520,490,cs),
(520,520,ls),
(520,650,o),
(420,700,o),
(290,700,cs),
(60,700,ls),
(30,700,o),
(20,690,o),
(20,660,cs),
(20,40,ls),
(20,10,o),
(31,0,o),
(59,0,cs)
);
}
);
width = 550;
},
{
layerId = "6ABCF30A-460E-4EED-802C-9E4699B7E7F6";
shapes = (
{
closed = 1;
nodes = (
(160,0,ls),
(190,0,o),
(200,10,o),
(200,40,cs),
(200,540,ls),
(200,555,o),
(205,560,o),
(220,560,cs),
(290,560,ls),
(320,560,o),
(350,550,o),
(350,510,cs),
(350,480,ls),
(350,440,o),
(340,430,o),
(310,430,cs),
(300,430,ls),
(285,430,o),
(280,425,o),
(280,410,cs),
(280,310,ls),
(280,295,o),
(285,290,o),
(300,290,cs),
(310,290,ls),
(340,290,o),
(350,280,o),
(350,230,cs),
(350,200,ls),
(350,150,o),
(340,140,o),
(310,140,cs),
(267,140,ls),
(252,140,o),
(247,135,o),
(247,120,cs),
(247,20,ls),
(247,5,o),
(252,0,o),
(267,0,cs),
(350,0,ls),
(480,0,o),
(540,60,o),
(540,180,cs),
(540,210,ls),
(540,300,o),
(486,337,o),
(460,350,cs),
(455,353,o),
(450,355,o),
(450,360,cs),
(450,365,o),
(454,366,o),
(460,370,cs),
(483,385,o),
(520,420,o),
(520,490,cs),
(520,520,ls),
(520,650,o),
(420,700,o),
(290,700,cs),
(60,700,ls),
(30,700,o),
(20,690,o),
(20,660,cs),
(20,40,ls),
(20,10,o),
(31,0,o),
(59,0,cs)
);
}
);
width = 550;
}
);
unicode = 7838;
},
{
color = 5;
glyphname = T;
kernLeft = T;
kernRight = T;
layers = (
{
anchors = (
{
name = bottom;
pos = (190,0);
},
{
name = top;
pos = (190,700);
}
);
layerId = m01;
shapes = (
{
closed = 1;
nodes = (
(240,0,ls),
(270,0,o),
(280,10,o),
(280,40,cs),
(280,530,ls),
(280,545,o),
(285,550,o),
(300,550,cs),
(330,550,ls),
(360,550,o),
(370,560,o),
(370,590,cs),
(370,660,ls),
(370,690,o),
(360,700,o),
(330,700,cs),
(50,700,ls),
(19,700,o),
(10,690,o),
(10,660,cs),
(10,590,ls),
(10,565,o),
(20,550,o),
(50,550,cs),
(80,550,ls),
(95,550,o),
(100,545,o),
(100,530,cs),
(100,40,ls),
(100,10,o),
(110,0,o),
(140,0,cs)
);
}
);
width = 380;
},
{
anchors = (
{
name = bottom;
pos = (190,0);
},
{
name = top;
pos = (190,700);
}
);
layerId = "6ABCF30A-460E-4EED-802C-9E4699B7E7F6";
shapes = (
{
closed = 1;
nodes = (
(240,0,ls),
(270,0,o),
(280,10,o),
(280,40,cs),
(280,530,ls),
(280,545,o),
(285,550,o),
(300,550,cs),
(330,550,ls),
(360,550,o),
(370,560,o),
(370,590,cs),
(370,660,ls),
(370,690,o),
(360,700,o),
(330,700,cs),
(50,700,ls),
(19,700,o),
(10,690,o),
(10,660,cs),
(10,590,ls),
(10,565,o),
(20,550,o),
(50,550,cs),
(80,550,ls),
(95,550,o),
(100,545,o),
(100,530,cs),
(100,40,ls),
(100,10,o),
(110,0,o),
(140,0,cs)
);
}
);
width = 380;
}
);
unicode = 84;
},
{
color = 5;
glyphname = Tcedilla;
layers = (
{
layerId = m01;
shapes = (
{
closed = 1;
nodes = (
(182,0,o),
(200,-29,o),
(200,-50,cs),
(200,-70,o),
(172,-83,o),
(140,-83,cs),
(126,-83,o),
(120,-91,o),
(120,-103,cs),
(120,-154,ls),
(120,-164,o),
(126,-174,o),
(140,-174,cs),
(238,-174,o),
(292,-147,o),
(292,-92,cs),
(292,-38,o),
(226,-30,o),
(226,-10,cs),
(226,-4,o),
(230,0,o),
(240,0,cs),
(270,0,o),
(280,10,o),
(280,40,cs),
(280,530,ls),
(280,545,o),
(285,550,o),
(300,550,cs),
(330,550,ls),
(360,550,o),
(370,560,o),
(370,590,cs),
(370,660,ls),
(370,690,o),
(360,700,o),
(330,700,cs),
(50,700,ls),
(19,700,o),
(10,690,o),
(10,660,cs),
(10,590,ls),
(10,565,o),
(20,550,o),
(50,550,cs),
(80,550,ls),
(95,550,o),
(100,545,o),
(100,530,cs),
(100,40,ls),
(100,10,o),
(110,0,o),
(140,0,cs)
);
}
);
width = 380;
},
{
layerId = "6ABCF30A-460E-4EED-802C-9E4699B7E7F6";
shapes = (
{
closed = 1;
nodes = (
(182,0,o),
(200,-29,o),
(200,-50,cs),
(200,-70,o),
(172,-83,o),
(140,-83,cs),
(126,-83,o),
(120,-91,o),
(120,-103,cs),
(120,-154,ls),
(120,-164,o),
(126,-174,o),
(140,-174,cs),
(238,-174,o),
(292,-147,o),
(292,-92,cs),
(292,-38,o),
(226,-30,o),
(226,-10,cs),
(226,-4,o),
(230,0,o),
(240,0,cs),
(270,0,o),
(280,10,o),
(280,40,cs),
(280,530,ls),
(280,545,o),
(285,550,o),
(300,550,cs),
(330,550,ls),
(360,550,o),
(370,560,o),
(370,590,cs),
(370,660,ls),
(370,690,o),
(360,700,o),
(330,700,cs),
(50,700,ls),
(19,700,o),
(10,690,o),
(10,660,cs),
(10,590,ls),
(10,565,o),
(20,550,o),
(50,550,cs),
(80,550,ls),
(95,550,o),
(100,545,o),
(100,530,cs),
(100,40,ls),
(100,10,o),
(110,0,o),
(140,0,cs)
);
}
);
width = 380;
}
);
unicode = 354;
},
{
color = 5;
glyphname = U;
kernLeft = U;
kernRight = U;
layers = (
{
anchors = (
{
name = top;
pos = (238,700);
}
);
layerId = m01;
shapes = (
{
closed = 1;
nodes = (
(373,-10,o),
(448,60,o),
(448,200,cs),
(448,660,ls),
(448,690,o),
(438,700,o),
(408,700,cs),
(308,700,ls),
(278,700,o),
(268,690,o),
(268,660,cs),
(268,190,ls),
(268,150,o),
(253,140,o),
(233,140,cs),
(213,140,o),
(198,150,o),
(198,190,cs),
(198,660,ls),
(198,690,o),
(188,700,o),
(158,700,cs),
(58,700,ls),
(28,700,o),
(18,690,o),
(18,660,cs),
(18,200,ls),
(18,60,o),
(93,-10,o),
(233,-10,cs)
);
}
);
width = 466;
},
{
anchors = (
{
name = top;
pos = (238,700);
}
);
layerId = "6ABCF30A-460E-4EED-802C-9E4699B7E7F6";
shapes = (
{
closed = 1;
nodes = (
(373,-10,o),
(448,70,o),
(448,200,cs),
(448,660,ls),
(448,690,o),
(438,700,o),
(408,700,cs),
(308,700,ls),
(278,700,o),
(268,690,o),
(268,660,cs),
(268,190,ls),
(268,150,o),
(253,140,o),
(233,140,cs),
(213,140,o),
(198,150,o),
(198,190,cs),
(198,660,ls),
(198,690,o),
(188,700,o),
(158,700,cs),
(58,700,ls),
(28,700,o),
(18,690,o),
(18,660,cs),
(18,200,ls),
(18,70,o),
(93,-10,o),
(233,-10,cs)
);
}
);
width = 466;
}
);
unicode = 85;
},
{
color = 5;
glyphname = Uogonek;
layers = (
{
layerId = m01;
shapes = (
{
closed = 1;
nodes = (
(233,-30,o),
(187,-38,o),
(187,-92,cs),
(187,-147,o),
(241,-174,o),
(339,-174,cs),
(353,-174,o),
(359,-164,o),
(359,-154,cs),
(359,-103,ls),
(359,-91,o),
(353,-83,o),
(339,-83,cs),
(307,-83,o),
(279,-70,o),
(279,-50,cs),
(279,-24,o),
(314,-9,o),
(346,11,cs),
(408,50,o),
(448,104,o),
(448,200,cs),
(448,660,ls),
(448,690,o),
(438,700,o),
(408,700,cs),
(308,700,ls),
(278,700,o),
(268,690,o),
(268,660,cs),
(268,190,ls),
(268,150,o),
(253,140,o),
(233,140,cs),
(213,140,o),
(198,150,o),
(198,190,cs),
(198,660,ls),
(198,690,o),
(188,700,o),
(158,700,cs),
(58,700,ls),
(28,700,o),
(18,690,o),
(18,660,cs),
(18,200,ls),
(18,60,o),
(93,-10,o),
(233,-10,c)
);
}
);
width = 466;
},
{
layerId = "6ABCF30A-460E-4EED-802C-9E4699B7E7F6";
shapes = (
{
closed = 1;
nodes = (
(233,-30,o),
(187,-38,o),
(187,-92,cs),
(187,-147,o),
(241,-174,o),
(339,-174,cs),
(353,-174,o),
(359,-164,o),
(359,-154,cs),
(359,-103,ls),
(359,-91,o),
(353,-83,o),
(339,-83,cs),
(307,-83,o),
(279,-70,o),
(279,-50,cs),
(279,-24,o),
(314,-9,o),
(346,11,cs),
(408,50,o),
(448,104,o),
(448,200,cs),
(448,660,ls),
(448,690,o),
(438,700,o),
(408,700,cs),
(308,700,ls),
(278,700,o),
(268,690,o),
(268,660,cs),
(268,190,ls),
(268,150,o),
(253,140,o),
(233,140,cs),
(213,140,o),
(198,150,o),
(198,190,cs),
(198,660,ls),
(198,690,o),
(188,700,o),
(158,700,cs),
(58,700,ls),
(28,700,o),
(18,690,o),
(18,660,cs),
(18,200,ls),
(18,60,o),
(93,-10,o),
(233,-10,c)
);
}
);
width = 466;
}
);
unicode = 370;
},
{
color = 5;
glyphname = V;
kernLeft = V;
kernRight = V;
layers = (
{
layerId = m01;
shapes = (
{
closed = 1;
nodes = (
(234,150,o),
(231,157,o),
(230,170,cs),
(192,660,ls),
(190,691,o),
(182,700,o),
(162,700,cs),
(50,700,ls),
(20,700,o),
(10,690,o),
(10,660,cs),
(10,640,o),
(17,600,o),
(20,580,cs),
(100,40,ls),
(104,10,o),
(120,0,o),
(150,0,cs),
(330,0,ls),
(360,0,o),
(376,10,o),
(380,40,cs),
(460,580,ls),
(463,600,o),
(470,640,o),
(470,660,cs),
(470,690,o),
(460,700,o),
(430,700,cs),
(318,700,ls),
(298,700,o),
(290,691,o),
(288,660,cs),
(250,170,ls),
(249,157,o),
(246,150,o),
(240,150,cs)
);
}
);
width = 480;
},
{
associatedMasterId = m01;
layerId = "7786A122-C3EC-43E0-B566-6DF7C6BDD768";
name = "Sep 11, 22, 11:30";
shapes = (
{
closed = 1;
nodes = (
(328,700,ls),
(308,700,o),
(301,691,o),
(298,660,cs),
(290,580,ls),
(288,565,o),
(285,560,o),
(270,560,cs),
(230,560,ls),
(215,560,o),
(212,565,o),
(210,580,cs),
(202,660,ls),
(199,691,o),
(192,700,o),
(172,700,cs),
(60,700,ls),
(30,700,o),
(20,690,o),
(20,660,cs),
(20,640,o),
(27,600,o),
(30,580,cs),
(110,40,ls),
(114,10,o),
(130,0,o),
(160,0,cs),
(340,0,ls),
(370,0,o),
(386,10,o),
(390,40,cs),
(470,580,ls),
(473,600,o),
(480,640,o),
(480,660,cs),
(480,690,o),
(470,700,o),
(440,700,cs)
);
},
{
closed = 1;
nodes = (
(276,410,o),
(280,405,o),
(280,394,cs),
(280,387,o),
(279,380,o),
(278,369,cs),
(260,170,ls),
(259,157,o),
(256,150,o),
(250,150,cs),
(244,150,o),
(241,157,o),
(240,170,cs),
(222,369,ls),
(221,380,o),
(220,387,o),
(220,394,cs),
(220,405,o),
(225,410,o),
(240,410,cs),
(260,410,ls)
);
}
);
visible = 1;
width = 500;
},
{
layerId = "6ABCF30A-460E-4EED-802C-9E4699B7E7F6";
shapes = (
{
closed = 1;
nodes = (
(234,150,o),
(231,157,o),
(230,170,cs),
(192,660,ls),
(190,691,o),
(182,700,o),
(162,700,cs),
(50,700,ls),
(20,700,o),
(10,690,o),
(10,660,cs),
(10,640,o),
(17,600,o),
(20,580,cs),
(100,40,ls),
(104,10,o),
(120,0,o),
(150,0,cs),
(330,0,ls),
(360,0,o),
(376,10,o),
(380,40,cs),
(460,580,ls),
(463,600,o),
(470,640,o),
(470,660,cs),
(470,690,o),
(460,700,o),
(430,700,cs),
(318,700,ls),
(298,700,o),
(290,691,o),
(288,660,cs),
(250,170,ls),
(249,157,o),
(246,150,o),
(240,150,cs)
);
}
);
width = 500;
},
{
associatedMasterId = m01;
layerId = "1CC594B7-7B73-4FAA-9496-5220C426A6CB";
name = "Oct 1, 22, 11:36";
shapes = (
{
closed = 1;
nodes = (
(340,0,ls),
(365,0,o),
(376,11,o),
(380,40,cs),
(462,614,ls),
(467,647,o),
(470,660,o),
(470,670,cs),
(470,690,o),
(460,700,o),
(440,700,cs),
(335,700,ls),
(305,700,o),
(297,690,o),
(295,660,cs),
(255,170,ls),
(254,156,o),
(250,150,o),
(240,150,cs),
(230,150,o),
(226,155,o),
(225,170,cs),
(185,660,ls),
(183,690,o),
(175,700,o),
(145,700,cs),
(40,700,ls),
(20,700,o),
(10,690,o),
(10,670,cs),
(10,660,o),
(10,647,o),
(15,614,cs),
(100,40,ls),
(104,10,o),
(115,0,o),
(140,0,cs)
);
}
);
width = 480;
}
);
unicode = 86;
},
{
color = 5;
glyphname = W;
kernLeft = W;
kernRight = W;
layers = (
{
anchors = (
{
name = top;
pos = (334,700);
}
);
layerId = m01;
shapes = (
{
closed = 1;
nodes = (
(252,0,ls),
(277,0,o),
(290,15,o),
(292,40,cs),
(320,372,ls),
(321,384,o),
(325,390,o),
(330,390,cs),
(335,390,o),
(339,384,o),
(340,372,cs),
(368,40,ls),
(370,15,o),
(383,0,o),
(408,0,cs),
(525,0,ls),
(550,0,o),
(561,10,o),
(565,40,cs),
(642,614,ls),
(646,647,o),
(650,660,o),
(650,670,cs),
(650,690,o),
(640,700,o),
(620,700,cs),
(510,700,ls),
(480,700,o),
(472,690,o),
(470,660,cs),
(445,330,ls),
(444,316,o),
(440,310,o),
(430,310,cs),
(420,310,o),
(416,316,o),
(415,330,cs),
(390,660,ls),
(388,682,o),
(383,693,o),
(369,698,cs),
(365,699,o),
(360,700,o),
(355,700,cs),
(315,700,ls),
(310,700,o),
(305,699,o),
(301,698,cs),
(287,693,o),
(282,682,o),
(280,660,cs),
(255,330,ls),
(254,316,o),
(250,310,o),
(240,310,cs),
(230,310,o),
(226,315,o),
(225,330,cs),
(200,660,ls),
(198,691,o),
(190,700,o),
(160,700,cs),
(40,700,ls),
(20,700,o),
(10,690,o),
(10,670,cs),
(10,660,o),
(14,647,o),
(18,614,cs),
(95,40,ls),
(99,10,o),
(110,0,o),
(135,0,cs)
);
}
);
width = 660;
},
{
associatedMasterId = m01;
layerId = "7C45AC42-4E2C-4B8F-88D2-91308C780896";
name = test;
shapes = (
{
closed = 1;
nodes = (
(416,70,qs),
(424,36,o),
(444,5,o),
(464,0,o),
(487,0,qs),
(559,0,ls),
(577,0,o),
(601,10,o),
(614,36,o),
(620,56,o),
(624,80,qs),
(638,153,o),
(711,662,o),
(711,686,qs),
(711,699,o),
(704,710,o),
(692,710,qs),
(575,710,ls),
(544,710,o),
(542,670,q),
(499,234,l),
(497,229,o),
(494,229,qs),
(490,229,o),
(490,234,q),
(445,482,l),
(445,506,o),
(452,586,o),
(462,666,o),
(462,670,qs),
(462,673,o),
(463,682,o),
(463,684,qs),
(463,710,o),
(440,710,qs),
(436,710,o),
(358,708,o),
(354,708,qs),
(344,708,o),
(296,710,o),
(288,710,qs),
(264,710,o),
(264,684,qs),
(264,675,o),
(265,670,qs),
(266,660,o),
(277,592,o),
(291,502,o),
(294,483,q),
(294,473,o),
(263,241,o),
(262,234,q),
(260,229,o),
(257,229,qs),
(253,229,o),
(253,234,q),
(188,667,ls),
(185,690,o),
(171,710,o),
(153,710,qs),
(45,710,ls),
(29,710,o),
(20,700,o),
(20,684,qs),
(20,663,o),
(105,158,o),
(121,80,qs),
(126,57,o),
(133,34,o),
(150,9,o),
(176,0,o),
(197,0,qs),
(252,0,ls),
(274,0,o),
(296,5,o),
(321,37,o),
(330,70,qs),
(366,203,o),
(372,203,qs),
(384,203,o)
);
}
);
visible = 1;
width = 731;
},
{
associatedMasterId = m01;
layerId = "EE511CAD-2F41-4007-8E66-ECE47DB60691";
name = "Sep 11, 22, 11:53";
shapes = (
{
closed = 1;
nodes = (
(365,0,ls),
(391,0,o),
(399,11,o),
(405,40,cs),
(522,614,ls),
(529,647,o),
(530,660,o),
(530,670,cs),
(530,690,o),
(520,700,o),
(500,700,cs),
(385,700,ls),
(355,700,o),
(349,690,o),
(345,660,cs),
(285,190,ls),
(283,176,o),
(280,170,o),
(270,170,cs),
(260,170,o),
(257,175,o),
(255,190,cs),
(195,660,ls),
(191,690,o),
(185,700,o),
(155,700,cs),
(40,700,ls),
(20,700,o),
(10,690,o),
(10,670,cs),
(10,660,o),
(11,647,o),
(18,614,cs),
(135,40,ls),
(141,10,o),
(155,0,o),
(175,0,cs)
);
},
{
closed = 1;
nodes = (
(665,0,ls),
(691,0,o),
(699,11,o),
(705,40,cs),
(822,614,ls),
(829,647,o),
(830,660,o),
(830,670,cs),
(830,690,o),
(820,700,o),
(800,700,cs),
(685,700,ls),
(655,700,o),
(649,690,o),
(645,660,cs),
(585,190,ls),
(583,176,o),
(580,170,o),
(570,170,cs),
(560,170,o),
(557,175,o),
(555,190,cs),
(495,660,ls),
(491,690,o),
(485,700,o),
(455,700,cs),
(340,700,ls),
(320,700,o),
(310,690,o),
(310,670,cs),
(310,660,o),
(311,647,o),
(318,614,cs),
(435,40,ls),
(441,10,o),
(455,0,o),
(475,0,cs)
);
}
);
width = 840;
},
{
associatedMasterId = m01;
layerId = "E9AFD039-CCFC-4320-BDA3-4BE798D4E289";
name = "Sep 11, 22, 12:23";
shapes = (
{
closed = 1;
nodes = (
(665,0,ls),
(691,0,o),
(699,11,o),
(705,40,cs),
(822,614,ls),
(829,647,o),
(830,660,o),
(830,670,cs),
(830,690,o),
(820,700,o),
(800,700,cs),
(685,700,ls),
(655,700,o),
(649,690,o),
(645,660,cs),
(585,190,ls),
(583,176,o),
(580,170,o),
(570,170,cs),
(560,170,o),
(557,175,o),
(555,190,cs),
(495,660,ls),
(491,690,o),
(485,700,o),
(455,700,cs),
(340,700,ls),
(320,700,o),
(310,690,o),
(310,670,cs),
(310,660,o),
(311,647,o),
(318,614,cs),
(435,40,ls),
(441,10,o),
(455,0,o),
(475,0,cs)
);
}
);
width = 840;
},
{
associatedMasterId = m01;
layerId = "942703AD-F208-4858-A733-8F59736FB367";
name = "Sep 11, 22, 13:59";
shapes = (
{
closed = 1;
nodes = (
(332,0,ls),
(358,0,o),
(367,11,o),
(372,40,cs),
(392,162,ls),
(394,172,o),
(397,182,o),
(407,182,cs),
(417,182,o),
(420,172,o),
(422,162,cs),
(447,40,ls),
(453,9,o),
(467,0,o),
(487,0,cs),
(665,0,ls),
(691,0,o),
(699,11,o),
(705,40,cs),
(822,614,ls),
(829,647,o),
(830,660,o),
(830,670,cs),
(830,690,o),
(820,700,o),
(800,700,cs),
(685,700,ls),
(655,700,o),
(649,690,o),
(645,660,cs),
(585,190,ls),
(583,176,o),
(580,170,o),
(570,170,cs),
(560,170,o),
(557,175,o),
(555,190,cs),
(495,660,ls),
(491,690,o),
(485,700,o),
(455,700,cs),
(338,700,ls),
(320,700,o),
(310,690,o),
(310,670,cs),
(310,655,o),
(312,645,o),
(314,635,cs),
(327,551,ls),
(329,540,o),
(331,531,o),
(331,521,cs),
(331,511,o),
(330,501,o),
(327,480,cs),
(285,190,ls),
(283,176,o),
(280,170,o),
(270,170,cs),
(260,170,o),
(257,175,o),
(255,190,cs),
(195,660,ls),
(191,690,o),
(185,700,o),
(155,700,cs),
(40,700,ls),
(20,700,o),
(10,690,o),
(10,670,cs),
(10,660,o),
(11,647,o),
(18,614,cs),
(135,40,ls),
(141,10,o),
(155,0,o),
(175,0,cs)
);
}
);
width = 840;
},
{
associatedMasterId = m01;
layerId = "1DAB239B-0979-48B0-81A8-4CC6A1CEAA4B";
name = "Sep 11, 22, 21:12";
shapes = (
{
closed = 1;
nodes = (
(345,0,ls),
(371,0,o),
(382,12,o),
(385,40,cs),
(435,440,ls),
(436,449,o),
(440,460,o),
(450,460,cs),
(460,460,o),
(464,449,o),
(465,440,cs),
(515,40,ls),
(519,10,o),
(535,0,o),
(555,0,cs),
(735,0,ls),
(761,0,o),
(770,11,o),
(775,40,cs),
(882,614,ls),
(888,647,o),
(890,660,o),
(890,670,cs),
(890,690,o),
(880,700,o),
(860,700,cs),
(725,700,ls),
(695,700,o),
(689,690,o),
(685,660,cs),
(635,280,ls),
(633,266,o),
(630,260,o),
(620,260,cs),
(610,260,o),
(607,265,o),
(605,280,cs),
(555,660,ls),
(552,682,o),
(548,693,o),
(534,698,cs),
(530,699,o),
(525,700,o),
(520,700,cs),
(380,700,ls),
(375,700,o),
(370,699,o),
(366,698,cs),
(352,693,o),
(348,682,o),
(345,660,cs),
(295,280,ls),
(293,266,o),
(290,260,o),
(280,260,cs),
(270,260,o),
(267,265,o),
(265,280,cs),
(215,660,ls),
(211,690,o),
(205,700,o),
(175,700,cs),
(40,700,ls),
(20,700,o),
(10,690,o),
(10,670,cs),
(10,660,o),
(12,647,o),
(18,614,cs),
(125,40,ls),
(131,10,o),
(145,0,o),
(165,0,cs)
);
}
);
width = 900;
},
{
associatedMasterId = m01;
layerId = "D084AED3-A8A0-43CD-8DF3-37D084704489";
name = "Sep 11, 22, 21:19";
shapes = (
{
closed = 1;
nodes = (
(305,0,ls),
(331,0,o),
(340,11,o),
(345,40,cs),
(390,282,l),
(435,40,ls),
(441,10,o),
(455,0,o),
(475,0,cs),
(635,0,ls),
(661,0,o),
(669,11,o),
(675,40,cs),
(792,614,ls),
(799,647,o),
(800,660,o),
(800,670,cs),
(800,690,o),
(790,700,o),
(770,700,cs),
(645,700,ls),
(615,700,o),
(608,690,o),
(605,660,cs),
(555,190,ls),
(554,176,o),
(550,170,o),
(540,170,cs),
(530,170,o),
(528,174,o),
(525,190,cs),
(472,484,ls),
(465,523,o),
(457,530,o),
(440,530,cs),
(340,530,ls),
(323,530,o),
(315,523,o),
(308,484,cs),
(255,190,ls),
(252,176,o),
(250,170,o),
(240,170,cs),
(230,170,o),
(227,175,o),
(225,190,cs),
(175,660,ls),
(172,690,o),
(165,700,o),
(135,700,cs),
(10,700,ls),
(-10,700,o),
(-20,690,o),
(-20,670,cs),
(-20,660,o),
(-19,647,o),
(-12,614,cs),
(105,40,ls),
(111,10,o),
(125,0,o),
(145,0,cs)
);
}
);
width = 780;
},
{
anchors = (
{
name = top;
pos = (340,700);
}
);
layerId = "6ABCF30A-460E-4EED-802C-9E4699B7E7F6";
shapes = (
{
closed = 1;
nodes = (
(257,0,ls),
(282,0,o),
(293,15,o),
(297,40,cs),
(330,240,ls),
(332,252,o),
(335,258,o),
(340,258,cs),
(345,258,o),
(348,252,o),
(350,240,cs),
(383,40,ls),
(387,15,o),
(398,0,o),
(423,0,cs),
(535,0,ls),
(560,0,o),
(570,10,o),
(575,40,cs),
(662,614,ls),
(667,647,o),
(670,660,o),
(670,670,cs),
(670,690,o),
(660,700,o),
(640,700,cs),
(520,700,ls),
(490,700,o),
(482,690,o),
(480,660,cs),
(465,360,ls),
(464,346,o),
(460,340,o),
(450,340,cs),
(440,340,o),
(437,346,o),
(435,360,cs),
(400,660,ls),
(397,682,o),
(393,693,o),
(379,698,cs),
(375,699,o),
(370,700,o),
(365,700,cs),
(315,700,ls),
(310,700,o),
(305,699,o),
(301,698,cs),
(287,693,o),
(283,682,o),
(280,660,cs),
(245,360,ls),
(243,346,o),
(240,340,o),
(230,340,cs),
(220,340,o),
(216,345,o),
(215,360,cs),
(200,660,ls),
(198,691,o),
(190,700,o),
(160,700,cs),
(40,700,ls),
(20,700,o),
(10,690,o),
(10,670,cs),
(10,660,o),
(13,647,o),
(18,614,cs),
(105,40,ls),
(110,10,o),
(120,0,o),
(145,0,cs)
);
}
);
width = 680;
}
);
unicode = 87;
},
{
color = 5;
glyphname = X;
kernLeft = X;
kernRight = X;
layers = (
{
layerId = m01;
shapes = (
{
closed = 1;
nodes = (
(150,0,ls),
(170,0,o),
(187,10,o),
(190,30,cs),
(218,228,ls),
(221,246,o),
(224,250,o),
(230,250,cs),
(236,250,o),
(239,246,o),
(242,227,cs),
(270,30,ls),
(273,10,o),
(280,0,o),
(300,0,cs),
(410,0,ls),
(430,0,o),
(440,10,o),
(440,30,cs),
(440,40,o),
(435,54,o),
(430,75,cs),
(375,322,ls),
(369,350,o),
(365,356,o),
(365,366,cs),
(365,376,o),
(368,382,o),
(375,410,cs),
(430,625,ls),
(435,646,o),
(440,660,o),
(440,670,cs),
(440,690,o),
(430,700,o),
(410,700,cs),
(300,700,ls),
(280,700,o),
(273,690,o),
(270,670,cs),
(242,505,ls),
(239,486,o),
(236,482,o),
(230,482,cs),
(224,482,o),
(221,486,o),
(218,504,cs),
(190,670,ls),
(187,690,o),
(170,700,o),
(150,700,cs),
(40,700,ls),
(20,700,o),
(10,690,o),
(10,670,cs),
(10,660,o),
(14,646,o),
(20,625,cs),
(85,410,ls),
(94,382,o),
(95,376,o),
(95,366,cs),
(95,356,o),
(92,350,o),
(85,322,cs),
(20,75,ls),
(14,54,o),
(10,40,o),
(10,30,cs),
(10,10,o),
(20,0,o),
(40,0,cs)
);
}
);
width = 450;
},
{
layerId = "6ABCF30A-460E-4EED-802C-9E4699B7E7F6";
shapes = (
{
closed = 1;
nodes = (
(153,0,ls),
(175,0,o),
(186,6,o),
(197,39,cs),
(227,128,ls),
(232,142,o),
(237,150,o),
(244,150,cs),
(251,150,o),
(256,141,o),
(262,127,cs),
(298,39,ls),
(309,11,o),
(311,0,o),
(341,0,cs),
(460,0,ls),
(484,0,o),
(490,11,o),
(490,25,cs),
(490,35,o),
(481,54,o),
(468,83,cs),
(363,322,ls),
(356,338,o),
(352,355,o),
(352,366,cs),
(352,377,o),
(357,391,o),
(363,404,cs),
(451,604,ls),
(464,634,o),
(472,653,o),
(472,663,cs),
(472,683,o),
(462,700,o),
(440,700,cs),
(346,700,ls),
(326,700,o),
(316,688,o),
(306,660,cs),
(273,571,ls),
(268,557,o),
(264,550,o),
(256,550,cs),
(249,550,o),
(247,556,o),
(240,572,cs),
(202,660,ls),
(189,690,o),
(182,700,o),
(162,700,cs),
(50,700,ls),
(20,700,o),
(10,690,o),
(10,670,cs),
(10,660,o),
(15,645,o),
(30,614,cs),
(132,404,ls),
(138,392,o),
(145,378,o),
(145,366,cs),
(145,352,o),
(138,336,o),
(133,322,cs),
(45,83,ls),
(33,51,o),
(28,35,o),
(28,25,cs),
(28,11,o),
(36,0,o),
(58,0,cs)
);
}
);
width = 500;
},
{
associatedMasterId = m01;
layerId = "FDD133D0-5002-4392-9AFF-727D1E4528CF";
name = "Oct 4, 22, 21:08";
shapes = (
{
closed = 1;
nodes = (
(10,473,l),
(190,473,l),
(190,700,l),
(10,700,l)
);
}
);
width = 450;
}
);
unicode = 88;
},
{
color = 5;
glyphname = Y;
kernLeft = Y;
kernRight = Y;
layers = (
{
anchors = (
{
name = top;
pos = (225,700);
}
);
layerId = m01;
shapes = (
{
closed = 1;
nodes = (
(275,0,ls),
(305,0,o),
(315,10,o),
(315,40,cs),
(315,281,ls),
(315,293,o),
(316,307,o),
(320,318,cs),
(431,629,ls),
(436,642,o),
(440,654,o),
(440,670,cs),
(440,690,o),
(430,700,o),
(410,700,cs),
(305,700,ls),
(277,700,o),
(269,690,o),
(265,670,cs),
(240,557,ls),
(238,547,o),
(233,540,o),
(225,540,cs),
(216,540,o),
(212,547,o),
(210,557,cs),
(185,670,ls),
(181,690,o),
(173,700,o),
(145,700,cs),
(40,700,ls),
(20,700,o),
(10,687,o),
(10,670,cs),
(10,654,o),
(14,642,o),
(19,629,cs),
(130,318,ls),
(134,307,o),
(135,293,o),
(135,281,cs),
(135,40,ls),
(135,10,o),
(145,0,o),
(175,0,cs)
);
}
);
width = 450;
},
{
anchors = (
{
name = top;
pos = (225,700);
}
);
layerId = "6ABCF30A-460E-4EED-802C-9E4699B7E7F6";
shapes = (
{
closed = 1;
nodes = (
(275,0,ls),
(305,0,o),
(315,10,o),
(315,40,cs),
(315,271,ls),
(315,283,o),
(316,297,o),
(320,308,cs),
(431,629,ls),
(435,642,o),
(440,654,o),
(440,670,cs),
(440,690,o),
(430,700,o),
(410,700,cs),
(305,700,ls),
(277,700,o),
(269,690,o),
(265,670,cs),
(240,530,ls),
(238,520,o),
(233,513,o),
(225,513,cs),
(216,513,o),
(212,520,o),
(210,530,cs),
(185,670,ls),
(181,690,o),
(173,700,o),
(145,700,cs),
(40,700,ls),
(20,700,o),
(10,687,o),
(10,670,cs),
(10,654,o),
(15,642,o),
(19,629,cs),
(130,308,ls),
(134,297,o),
(135,283,o),
(135,271,cs),
(135,40,ls),
(135,10,o),
(145,0,o),
(175,0,cs)
);
}
);
width = 450;
}
);
unicode = 89;
},
{
color = 5;
glyphname = Z;
kernLeft = Z;
kernRight = Z;
layers = (
{
anchors = (
{
name = top;
pos = (225,700);
}
);
layerId = m01;
shapes = (
{
closed = 1;
nodes = (
(384,0,ls),
(414,0,o),
(424,10,o),
(424,40,cs),
(424,110,ls),
(424,140,o),
(414,150,o),
(383,150,cs),
(236,150,ls),
(225,150,o),
(218,158,o),
(218,167,cs),
(218,183,o),
(226,199,o),
(241,227,cs),
(384,493,ls),
(409,540,o),
(424,571,o),
(424,605,cs),
(424,660,ls),
(424,690,o),
(414,700,o),
(384,700,cs),
(51,700,ls),
(20,700,o),
(10,690,o),
(10,660,cs),
(10,590,ls),
(10,565,o),
(20,550,o),
(50,550,cs),
(188,550,ls),
(211,550,o),
(218,547,o),
(218,536,cs),
(218,521,o),
(208,507,o),
(201,494,cs),
(48,226,ls),
(28,190,o),
(10,153,o),
(10,118,cs),
(10,40,ls),
(10,10,o),
(20,0,o),
(50,0,cs)
);
}
);
width = 434;
},
{
anchors = (
{
name = top;
pos = (225,700);
}
);
layerId = "6ABCF30A-460E-4EED-802C-9E4699B7E7F6";
shapes = (
{
closed = 1;
nodes = (
(384,0,ls),
(414,0,o),
(424,10,o),
(424,40,cs),
(424,118,ls),
(424,148,o),
(414,158,o),
(383,158,cs),
(234,158,ls),
(223,158,o),
(216,166,o),
(216,175,cs),
(216,191,o),
(223,209,o),
(239,235,cs),
(384,509,ls),
(408,554,o),
(424,587,o),
(424,621,cs),
(424,660,ls),
(424,690,o),
(414,700,o),
(384,700,cs),
(51,700,ls),
(20,700,o),
(10,690,o),
(10,660,cs),
(10,602,ls),
(10,577,o),
(20,562,o),
(50,562,cs),
(174,562,ls),
(204,562,o),
(214,552,o),
(214,532,cs),
(214,512,o),
(202,494,o),
(188,467,cs),
(48,197,ls),
(27,161,o),
(10,108,o),
(10,80,cs),
(10,40,ls),
(10,10,o),
(20,0,o),
(50,0,cs)
);
}
);
width = 434;
}
);
unicode = 90;
},
{
color = 6;
glyphname = ij;
layers = (
{
anchors = (
{
name = top;
pos = (110,700);
}
);
layerId = m01;
shapes = (
{
closed = 1;
nodes = (
(160,200,ls),
(190,200,o),
(200,210,o),
(200,240,cs),
(200,660,ls),
(200,690,o),
(190,700,o),
(160,700,cs),
(60,700,ls),
(30,700,o),
(20,690,o),
(20,660,cs),
(20,240,ls),
(20,210,o),
(30,200,o),
(60,200,cs)
);
},
{
closed = 1;
nodes = (
(281,0,ls),
(421,0,o),
(430,60,o),
(430,200,cs),
(430,660,ls),
(430,690,o),
(420,700,o),
(390,700,cs),
(290,700,ls),
(260,700,o),
(250,690,o),
(250,660,cs),
(250,170,ls),
(250,155,o),
(245,150,o),
(230,150,cs),
(60,150,ls),
(30,150,o),
(20,140,o),
(20,110,cs),
(20,40,ls),
(20,10,o),
(30,0,o),
(60,0,cs)
);
}
);
width = 448;
},
{
anchors = (
{
name = top;
pos = (110,700);
}
);
layerId = "6ABCF30A-460E-4EED-802C-9E4699B7E7F6";
shapes = (
{
closed = 1;
nodes = (
(160,200,ls),
(190,200,o),
(200,210,o),
(200,240,cs),
(200,660,ls),
(200,690,o),
(190,700,o),
(160,700,cs),
(60,700,ls),
(30,700,o),
(20,690,o),
(20,660,cs),
(20,240,ls),
(20,210,o),
(30,200,o),
(60,200,cs)
);
},
{
closed = 1;
nodes = (
(281,0,ls),
(421,0,o),
(430,60,o),
(430,200,cs),
(430,660,ls),
(430,690,o),
(420,700,o),
(390,700,cs),
(290,700,ls),
(260,700,o),
(250,690,o),
(250,660,cs),
(250,170,ls),
(250,155,o),
(245,150,o),
(230,150,cs),
(60,150,ls),
(30,150,o),
(20,140,o),
(20,110,cs),
(20,40,ls),
(20,10,o),
(30,0,o),
(60,0,cs)
);
}
);
width = 448;
}
);
unicode = 307;
},
{
color = 5;
glyphname = zero;
kernLeft = zero;
kernRight = zero;
layers = (
{
layerId = m01;
shapes = (
{
closed = 1;
nodes = (
(377,-10,o),
(457,60,o),
(457,200,cs),
(457,500,ls),
(457,640,o),
(377,710,o),
(237,710,cs),
(97,710,o),
(17,640,o),
(17,500,cs),
(17,200,ls),
(17,60,o),
(97,-10,o),
(237,-10,cs)
);
},
{
closed = 1;
nodes = (
(207,140,o),
(197,160,o),
(197,190,cs),
(197,510,ls),
(197,540,o),
(207,560,o),
(237,560,cs),
(267,560,o),
(277,540,o),
(277,510,cs),
(277,190,ls),
(277,160,o),
(267,140,o),
(237,140,cs)
);
}
);
width = 474;
},
{
layerId = "6ABCF30A-460E-4EED-802C-9E4699B7E7F6";
shapes = (
{
closed = 1;
nodes = (
(377,-10,o),
(457,60,o),
(457,200,cs),
(457,500,ls),
(457,640,o),
(377,710,o),
(237,710,cs),
(97,710,o),
(17,640,o),
(17,500,cs),
(17,200,ls),
(17,60,o),
(97,-10,o),
(237,-10,cs)
);
},
{
closed = 1;
nodes = (
(207,140,o),
(197,160,o),
(197,190,cs),
(197,510,ls),
(197,540,o),
(207,560,o),
(237,560,cs),
(267,560,o),
(277,540,o),
(277,510,cs),
(277,190,ls),
(277,160,o),
(267,140,o),
(237,140,cs)
);
}
);
width = 474;
}
);
unicode = 48;
},
{
color = 5;
glyphname = one;
kernLeft = one;
kernRight = one;
layers = (
{
layerId = m01;
shapes = (
{
closed = 1;
nodes = (
(250,0,ls),
(280,0,o),
(290,10,o),
(290,40,cs),
(290,660,ls),
(290,690,o),
(280,700,o),
(250,700,cs),
(150,700,ls),
(120,700,o),
(110,690,o),
(110,660,cs),
(110,610,o),
(90,590,o),
(40,590,cs),
(20,590,o),
(10,580,o),
(10,560,cs),
(10,490,ls),
(10,470,o),
(20,460,o),
(40,460,cs),
(90,460,ls),
(105,460,o),
(110,456,o),
(110,440,cs),
(110,40,ls),
(110,10,o),
(120,0,o),
(150,0,cs)
);
}
);
width = 310;
},
{
layerId = "6ABCF30A-460E-4EED-802C-9E4699B7E7F6";
shapes = (
{
closed = 1;
nodes = (
(250,0,ls),
(280,0,o),
(290,10,o),
(290,40,cs),
(290,660,ls),
(290,690,o),
(280,700,o),
(250,700,cs),
(150,700,ls),
(120,700,o),
(110,690,o),
(110,660,cs),
(110,610,o),
(90,590,o),
(40,590,cs),
(20,590,o),
(10,580,o),
(10,560,cs),
(10,490,ls),
(10,470,o),
(20,460,o),
(40,460,cs),
(90,460,ls),
(105,460,o),
(110,455,o),
(110,440,cs),
(110,40,ls),
(110,10,o),
(120,0,o),
(150,0,cs)
);
}
);
width = 310;
}
);
unicode = 49;
},
{
color = 5;
glyphname = two;
kernLeft = two;
kernRight = two;
layers = (
{
layerId = m01;
shapes = (
{
closed = 1;
nodes = (
(410,0,ls),
(440,0,o),
(450,10,o),
(450,40,cs),
(450,110,ls),
(450,140,o),
(440,150,o),
(410,150,cs),
(218,150,ls),
(203,150,o),
(198,155,o),
(198,170,cs),
(198,192,o),
(222,224,o),
(284,267,cs),
(346,310,o),
(450,390,o),
(450,510,cs),
(450,640,o),
(375,710,o),
(235,710,cs),
(95,710,o),
(20,640,o),
(20,500,cs),
(20,470,o),
(30,460,o),
(60,460,cs),
(150,460,ls),
(180,460,o),
(190,470,o),
(190,500,cs),
(190,510,ls),
(190,540,o),
(205,560,o),
(230,560,cs),
(255,560,o),
(270,540,o),
(270,510,cs),
(270,446,o),
(236,416,o),
(164,366,cs),
(46,284,o),
(10,191,o),
(10,100,cs),
(10,40,ls),
(10,11,o),
(20,0,o),
(50,0,cs)
);
}
);
width = 460;
},
{
layerId = "6ABCF30A-460E-4EED-802C-9E4699B7E7F6";
shapes = (
{
closed = 1;
nodes = (
(410,0,ls),
(440,0,o),
(450,10,o),
(450,40,cs),
(450,110,ls),
(450,140,o),
(440,150,o),
(410,150,cs),
(218,150,ls),
(203,150,o),
(198,155,o),
(198,170,cs),
(198,192,o),
(222,224,o),
(284,267,cs),
(346,310,o),
(450,390,o),
(450,510,cs),
(450,640,o),
(370,710,o),
(230,710,cs),
(90,710,o),
(20,640,o),
(20,500,cs),
(20,470,o),
(30,460,o),
(60,460,cs),
(150,460,ls),
(180,460,o),
(190,470,o),
(190,500,cs),
(190,510,ls),
(190,540,o),
(205,560,o),
(230,560,cs),
(255,560,o),
(270,540,o),
(270,510,cs),
(270,446,o),
(236,416,o),
(164,366,cs),
(46,284,o),
(10,191,o),
(10,100,cs),
(10,40,ls),
(10,11,o),
(20,0,o),
(50,0,cs)
);
}
);
width = 460;
}
);
unicode = 50;
},
{
color = 5;
glyphname = three;
kernLeft = three;
kernRight = three;
layers = (
{
layerId = m01;
shapes = (
{
closed = 1;
nodes = (
(360,-10,o),
(450,40,o),
(450,190,cs),
(450,252,o),
(431,297,o),
(377,334,cs),
(364,343,o),
(361,344,o),
(361,349,cs),
(361,354,o),
(365,357,o),
(377,366,cs),
(405,387,o),
(440,440,o),
(440,510,cs),
(440,650,o),
(370,710,o),
(230,710,cs),
(90,710,o),
(20,640,o),
(20,500,cs),
(20,470,o),
(30,460,o),
(60,460,cs),
(150,460,ls),
(180,460,o),
(190,470,o),
(190,500,cs),
(190,510,ls),
(190,540,o),
(205,560,o),
(230,560,cs),
(255,560,o),
(270,540,o),
(270,510,cs),
(270,460,o),
(260,410,o),
(210,410,cs),
(200,410,ls),
(180,410,o),
(170,400,o),
(170,380,cs),
(170,320,ls),
(170,300,o),
(180,290,o),
(200,290,cs),
(210,290,ls),
(260,290,o),
(260,240,o),
(260,190,cs),
(260,160,o),
(250,140,o),
(220,140,cs),
(190,140,o),
(180,160,o),
(180,190,cs),
(180,200,ls),
(180,230,o),
(170,240,o),
(140,240,cs),
(50,240,ls),
(20,240,o),
(10,230,o),
(10,200,cs),
(10,60,o),
(80,-10,o),
(220,-10,cs)
);
}
);
width = 460;
},
{
layerId = "6ABCF30A-460E-4EED-802C-9E4699B7E7F6";
shapes = (
{
closed = 1;
nodes = (
(360,-10,o),
(450,40,o),
(450,190,cs),
(450,252,o),
(431,297,o),
(377,334,cs),
(364,343,o),
(361,344,o),
(361,349,cs),
(361,354,o),
(365,357,o),
(377,366,cs),
(405,387,o),
(440,440,o),
(440,510,cs),
(440,650,o),
(370,710,o),
(230,710,cs),
(90,710,o),
(20,640,o),
(20,500,cs),
(20,470,o),
(30,460,o),
(60,460,cs),
(150,460,ls),
(180,460,o),
(190,470,o),
(190,500,cs),
(190,510,ls),
(190,540,o),
(205,560,o),
(230,560,cs),
(255,560,o),
(270,540,o),
(270,510,cs),
(270,460,o),
(260,410,o),
(210,410,cs),
(200,410,ls),
(180,410,o),
(170,400,o),
(170,380,cs),
(170,320,ls),
(170,300,o),
(180,290,o),
(200,290,cs),
(210,290,ls),
(260,290,o),
(260,240,o),
(260,190,cs),
(260,160,o),
(250,140,o),
(220,140,cs),
(190,140,o),
(180,160,o),
(180,190,cs),
(180,200,ls),
(180,230,o),
(170,240,o),
(140,240,cs),
(50,240,ls),
(20,240,o),
(10,230,o),
(10,200,cs),
(10,60,o),
(80,-10,o),
(220,-10,cs)
);
}
);
width = 460;
}
);
unicode = 51;
},
{
color = 5;
glyphname = four;
kernLeft = four;
kernRight = four;
layers = (
{
layerId = m01;
shapes = (
{
closed = 1;
nodes = (
(374,0,ls),
(404,0,o),
(414,10,o),
(414,40,cs),
(414,90,ls),
(414,105,o),
(419,110,o),
(434,110,cs),
(444,110,ls),
(464,110,o),
(474,120,o),
(474,140,cs),
(474,210,ls),
(474,230,o),
(464,240,o),
(444,240,cs),
(434,240,ls),
(418,240,o),
(414,244,o),
(414,260,cs),
(414,660,ls),
(414,690,o),
(404,700,o),
(375,700,cs),
(263,700,ls),
(231,700,o),
(220,695,o),
(204,660,cs),
(24,269,ls),
(15,249,o),
(10,236,o),
(10,216,cs),
(10,150,ls),
(10,120,o),
(20,110,o),
(50,110,cs),
(214,110,ls),
(229,110,o),
(234,105,o),
(234,90,cs),
(234,40,ls),
(234,10,o),
(244,0,o),
(274,0,cs)
);
},
{
closed = 1;
nodes = (
(163,240,o),
(159,242,o),
(159,249,cs),
(159,254,o),
(162,261,o),
(167,274,cs),
(219,401,ls),
(222,409,o),
(225,411,o),
(228,411,cs),
(231,411,o),
(234,410,o),
(234,401,cs),
(234,260,ls),
(234,245,o),
(229,240,o),
(214,240,cs),
(170,240,ls)
);
}
);
width = 484;
},
{
layerId = "6ABCF30A-460E-4EED-802C-9E4699B7E7F6";
shapes = (
{
closed = 1;
nodes = (
(374,0,ls),
(404,0,o),
(414,10,o),
(414,40,cs),
(414,90,ls),
(414,105,o),
(419,110,o),
(434,110,cs),
(444,110,ls),
(464,110,o),
(474,120,o),
(474,140,cs),
(474,210,ls),
(474,230,o),
(464,240,o),
(444,240,cs),
(434,240,ls),
(418,240,o),
(414,244,o),
(414,260,cs),
(414,660,ls),
(414,690,o),
(404,700,o),
(375,700,cs),
(263,700,ls),
(231,700,o),
(220,695,o),
(204,660,cs),
(24,269,ls),
(15,249,o),
(10,236,o),
(10,216,cs),
(10,150,ls),
(10,120,o),
(20,110,o),
(50,110,cs),
(214,110,ls),
(229,110,o),
(234,105,o),
(234,90,cs),
(234,40,ls),
(234,10,o),
(244,0,o),
(274,0,cs)
);
},
{
closed = 1;
nodes = (
(163,240,o),
(159,242,o),
(159,249,cs),
(159,254,o),
(162,261,o),
(167,274,cs),
(219,401,ls),
(222,409,o),
(225,411,o),
(228,411,cs),
(231,411,o),
(234,410,o),
(234,401,cs),
(234,260,ls),
(234,245,o),
(229,240,o),
(214,240,cs),
(170,240,ls)
);
}
);
width = 484;
}
);
unicode = 52;
},
{
color = 5;
glyphname = five;
kernLeft = five;
kernRight = five;
layers = (
{
layerId = m01;
shapes = (
{
closed = 1;
nodes = (
(370,-10,o),
(440,60,o),
(440,200,cs),
(440,300,ls),
(440,430,o),
(380,480,o),
(280,480,cs),
(208,480,o),
(197,460,o),
(181,460,cs),
(173,460,o),
(170,463,o),
(170,475,cs),
(170,530,ls),
(170,545,o),
(175,550,o),
(190,550,cs),
(360,550,ls),
(390,550,o),
(400,560,o),
(400,590,cs),
(400,666,ls),
(400,683,o),
(390,700,o),
(360,700,cs),
(70,700,ls),
(42,700,o),
(30,690,o),
(30,660,cs),
(30,340,ls),
(30,310,o),
(40,300,o),
(70,300,cs),
(160,300,ls),
(175,300,o),
(180,306,o),
(180,320,cs),
(180,340,o),
(190,360,o),
(220,360,cs),
(250,360,o),
(260,340,o),
(260,320,cs),
(260,190,ls),
(260,160,o),
(250,140,o),
(220,140,cs),
(190,140,o),
(180,160,o),
(180,190,cs),
(180,200,ls),
(180,230,o),
(170,240,o),
(140,240,cs),
(50,240,ls),
(20,240,o),
(10,230,o),
(10,200,cs),
(10,60,o),
(90,-10,o),
(230,-10,cs)
);
}
);
width = 450;
},
{
layerId = "6ABCF30A-460E-4EED-802C-9E4699B7E7F6";
shapes = (
{
closed = 1;
nodes = (
(370,-10,o),
(440,60,o),
(440,200,cs),
(440,300,ls),
(440,430,o),
(380,480,o),
(280,480,cs),
(228,480,o),
(197,460,o),
(181,460,cs),
(173,460,o),
(170,463,o),
(170,475,cs),
(170,530,ls),
(170,545,o),
(175,550,o),
(190,550,cs),
(360,550,ls),
(390,550,o),
(400,560,o),
(400,590,cs),
(400,666,ls),
(400,683,o),
(390,700,o),
(360,700,cs),
(70,700,ls),
(42,700,o),
(30,690,o),
(30,660,cs),
(30,340,ls),
(30,310,o),
(40,300,o),
(70,300,cs),
(160,300,ls),
(175,300,o),
(180,306,o),
(180,320,cs),
(180,340,o),
(190,360,o),
(220,360,cs),
(250,360,o),
(260,340,o),
(260,320,cs),
(260,190,ls),
(260,160,o),
(250,140,o),
(220,140,cs),
(190,140,o),
(180,160,o),
(180,190,cs),
(180,200,ls),
(180,230,o),
(170,240,o),
(140,240,cs),
(50,240,ls),
(20,240,o),
(10,230,o),
(10,200,cs),
(10,60,o),
(90,-10,o),
(230,-10,cs)
);
}
);
width = 454;
}
);
unicode = 53;
},
{
color = 5;
glyphname = six;
kernLeft = six;
kernRight = six;
layers = (
{
layerId = m01;
shapes = (
{
closed = 1;
nodes = (
(377,-10,o),
(457,60,o),
(457,200,cs),
(457,250,ls),
(457,366,o),
(390,418,o),
(304,418,cs),
(235,418,o),
(220,397,o),
(207,397,cs),
(200,397,o),
(197,400,o),
(197,413,cs),
(197,520,ls),
(197,550,o),
(202,570,o),
(232,570,cs),
(262,570,o),
(267,550,o),
(267,520,cs),
(267,490,o),
(277,480,o),
(307,480,cs),
(397,480,ls),
(427,480,o),
(437,490,o),
(437,520,cs),
(437,630,o),
(377,710,o),
(237,710,cs),
(97,710,o),
(17,640,o),
(17,500,cs),
(17,200,ls),
(17,60,o),
(97,-10,o),
(237,-10,cs)
);
},
{
closed = 1;
nodes = (
(207,140,o),
(197,160,o),
(197,190,cs),
(197,250,ls),
(197,280,o),
(207,300,o),
(237,300,cs),
(267,300,o),
(277,280,o),
(277,250,cs),
(277,190,ls),
(277,160,o),
(267,140,o),
(237,140,cs)
);
}
);
width = 469;
},
{
associatedMasterId = m01;
layerId = "CD3C6230-38DE-4992-BB74-C388AFE971D1";
name = "Sep 10, 22, 10:46";
shapes = (
{
closed = 1;
nodes = (
(370,-10,o),
(450,70,o),
(450,200,cs),
(450,500,ls),
(450,630,o),
(370,710,o),
(230,710,cs),
(90,710,o),
(10,630,o),
(10,500,cs),
(10,200,ls),
(10,70,o),
(90,-10,o),
(230,-10,cs)
);
},
{
closed = 1;
nodes = (
(200,130,o),
(190,150,o),
(190,180,cs),
(190,520,ls),
(190,550,o),
(200,570,o),
(230,570,cs),
(260,570,o),
(270,550,o),
(270,520,cs),
(270,180,ls),
(270,150,o),
(260,130,o),
(230,130,cs)
);
}
);
visible = 1;
width = 460;
},
{
layerId = "6ABCF30A-460E-4EED-802C-9E4699B7E7F6";
shapes = (
{
closed = 1;
nodes = (
(377,-10,o),
(457,60,o),
(457,200,cs),
(457,250,ls),
(457,366,o),
(390,408,o),
(304,408,cs),
(235,408,o),
(220,387,o),
(207,387,cs),
(200,387,o),
(197,390,o),
(197,403,cs),
(197,520,ls),
(197,550,o),
(207,570,o),
(237,570,cs),
(267,570,o),
(277,550,o),
(277,520,cs),
(277,490,o),
(287,480,o),
(317,480,cs),
(407,480,ls),
(437,480,o),
(447,490,o),
(447,520,cs),
(447,630,o),
(377,710,o),
(237,710,cs),
(97,710,o),
(17,640,o),
(17,500,cs),
(17,200,ls),
(17,60,o),
(97,-10,o),
(237,-10,cs)
);
},
{
closed = 1;
nodes = (
(207,140,o),
(197,160,o),
(197,190,cs),
(197,250,ls),
(197,280,o),
(207,300,o),
(237,300,cs),
(267,300,o),
(277,280,o),
(277,250,cs),
(277,190,ls),
(277,160,o),
(267,140,o),
(237,140,cs)
);
}
);
width = 469;
}
);
unicode = 54;
},
{
color = 5;
glyphname = seven;
kernLeft = seven;
kernRight = seven;
layers = (
{
layerId = m01;
shapes = (
{
closed = 1;
nodes = (
(210,0,ls),
(240,0,o),
(250,10,o),
(250,40,cs),
(250,207,o),
(250,392,o),
(382,530,cs),
(406,556,o),
(420,566,o),
(420,600,cs),
(420,660,ls),
(420,690,o),
(410,700,o),
(380,700,cs),
(50,700,ls),
(20,700,o),
(10,690,o),
(10,660,cs),
(10,590,ls),
(10,560,o),
(20,550,o),
(50,550,cs),
(203,550,ls),
(213,550,o),
(218,548,o),
(218,539,cs),
(218,531,o),
(211,523,o),
(206,516,cs),
(112,378,o),
(70,206,o),
(70,40,cs),
(70,10,o),
(80,0,o),
(110,0,cs)
);
}
);
width = 430;
},
{
layerId = "6ABCF30A-460E-4EED-802C-9E4699B7E7F6";
shapes = (
{
closed = 1;
nodes = (
(180,0,ls),
(210,0,o),
(220,10,o),
(220,40,cs),
(220,207,o),
(256,386,o),
(382,530,cs),
(396,546,o),
(420,566,o),
(420,600,cs),
(420,660,ls),
(420,690,o),
(410,700,o),
(380,700,cs),
(50,700,ls),
(20,700,o),
(10,690,o),
(10,660,cs),
(10,600,ls),
(10,570,o),
(20,560,o),
(50,560,cs),
(196,560,ls),
(211,560,o),
(218,555,o),
(218,540,cs),
(218,530,o),
(211,520,o),
(206,513,cs),
(112,375,o),
(40,206,o),
(40,40,cs),
(40,10,o),
(50,0,o),
(80,0,cs)
);
}
);
width = 430;
}
);
unicode = 55;
},
{
color = 5;
glyphname = eight;
kernLeft = eight;
kernRight = eight;
layers = (
{
layerId = m01;
shapes = (
{
closed = 1;
nodes = (
(376,-10,o),
(456,60,o),
(456,200,cs),
(456,230,ls),
(456,269,o),
(430,336,o),
(409,357,cs),
(401,365,o),
(396,371,o),
(396,376,cs),
(396,383,o),
(393,391,o),
(401,401,cs),
(427,433,o),
(436,460,o),
(436,500,cs),
(436,520,ls),
(436,650,o),
(376,710,o),
(236,710,cs),
(96,710,o),
(36,650,o),
(36,520,cs),
(36,500,ls),
(36,457,o),
(56,422,o),
(72,399,cs),
(83,384,o),
(76,383,o),
(76,376,cs),
(76,370,o),
(68,362,o),
(60,353,cs),
(39,327,o),
(16,269,o),
(16,230,cs),
(16,200,ls),
(16,60,o),
(96,-10,o),
(236,-10,cs)
);
},
{
closed = 1;
nodes = (
(206,450,o),
(196,470,o),
(196,500,cs),
(196,510,ls),
(196,540,o),
(206,560,o),
(236,560,cs),
(266,560,o),
(276,540,o),
(276,510,cs),
(276,500,ls),
(276,470,o),
(266,450,o),
(236,450,cs)
);
},
{
closed = 1;
nodes = (
(206,140,o),
(196,160,o),
(196,190,cs),
(196,250,ls),
(196,280,o),
(206,300,o),
(236,300,cs),
(266,300,o),
(276,280,o),
(276,250,cs),
(276,190,ls),
(276,160,o),
(266,140,o),
(236,140,cs)
);
}
);
width = 472;
},
{
associatedMasterId = m01;
layerId = "A8B4BCF0-6897-4899-822F-99049545FD6B";
name = "Sep 10, 22, 11:19";
shapes = (
{
closed = 1;
nodes = (
(380,-10,o),
(460,70,o),
(460,200,cs),
(460,500,ls),
(460,630,o),
(380,710,o),
(240,710,cs),
(100,710,o),
(20,630,o),
(20,500,cs),
(20,200,ls),
(20,70,o),
(100,-10,o),
(240,-10,cs)
);
},
{
closed = 1;
nodes = (
(210,130,o),
(200,150,o),
(200,180,cs),
(200,520,ls),
(200,550,o),
(210,570,o),
(240,570,cs),
(270,570,o),
(280,550,o),
(280,520,cs),
(280,180,ls),
(280,150,o),
(270,130,o),
(240,130,cs)
);
}
);
visible = 1;
width = 480;
},
{
layerId = "6ABCF30A-460E-4EED-802C-9E4699B7E7F6";
shapes = (
{
closed = 1;
nodes = (
(376,-10,o),
(456,60,o),
(456,200,cs),
(456,230,ls),
(456,299,o),
(430,336,o),
(409,357,cs),
(401,365,o),
(396,371,o),
(396,376,cs),
(396,383,o),
(397,385,o),
(405,395,cs),
(431,427,o),
(446,460,o),
(446,500,cs),
(446,520,ls),
(446,650,o),
(376,710,o),
(236,710,cs),
(96,710,o),
(26,650,o),
(26,520,cs),
(26,500,ls),
(26,457,o),
(36,429,o),
(64,395,cs),
(75,382,o),
(76,383,o),
(76,376,cs),
(76,370,o),
(68,362,o),
(60,353,cs),
(39,327,o),
(16,299,o),
(16,230,cs),
(16,200,ls),
(16,60,o),
(96,-10,o),
(236,-10,cs)
);
},
{
closed = 1;
nodes = (
(206,450,o),
(196,470,o),
(196,500,cs),
(196,510,ls),
(196,540,o),
(206,560,o),
(236,560,cs),
(266,560,o),
(276,540,o),
(276,510,cs),
(276,500,ls),
(276,470,o),
(266,450,o),
(236,450,cs)
);
},
{
closed = 1;
nodes = (
(206,140,o),
(196,160,o),
(196,190,cs),
(196,250,ls),
(196,280,o),
(206,300,o),
(236,300,cs),
(266,300,o),
(276,280,o),
(276,250,cs),
(276,190,ls),
(276,160,o),
(266,140,o),
(236,140,cs)
);
}
);
width = 472;
}
);
unicode = 56;
},
{
color = 5;
glyphname = nine;
kernLeft = nine;
kernRight = nine;
layers = (
{
layerId = m01;
shapes = (
{
closed = 1;
nodes = (
(92,710,o),
(12,640,o),
(12,500,cs),
(12,450,ls),
(12,334,o),
(79,282,o),
(165,282,cs),
(234,282,o),
(249,303,o),
(262,303,cs),
(269,303,o),
(272,300,o),
(272,287,cs),
(272,180,ls),
(272,150,o),
(267,130,o),
(237,130,cs),
(207,130,o),
(202,150,o),
(202,180,cs),
(202,210,o),
(192,220,o),
(162,220,cs),
(72,220,ls),
(42,220,o),
(32,210,o),
(32,180,cs),
(32,70,o),
(92,-10,o),
(232,-10,cs),
(372,-10,o),
(452,60,o),
(452,200,cs),
(452,500,ls),
(452,640,o),
(372,710,o),
(232,710,cs)
);
},
{
closed = 1;
nodes = (
(262,560,o),
(272,540,o),
(272,510,cs),
(272,450,ls),
(272,420,o),
(262,400,o),
(232,400,cs),
(202,400,o),
(192,420,o),
(192,450,cs),
(192,510,ls),
(192,540,o),
(202,560,o),
(232,560,cs)
);
}
);
width = 470;
},
{
layerId = "6ABCF30A-460E-4EED-802C-9E4699B7E7F6";
shapes = (
{
closed = 1;
nodes = (
(92,710,o),
(12,640,o),
(12,500,cs),
(12,450,ls),
(12,334,o),
(79,292,o),
(165,292,cs),
(234,292,o),
(249,313,o),
(262,313,cs),
(269,313,o),
(272,310,o),
(272,297,cs),
(272,180,ls),
(272,150,o),
(262,130,o),
(232,130,cs),
(202,130,o),
(192,150,o),
(192,180,cs),
(192,210,o),
(182,220,o),
(152,220,cs),
(62,220,ls),
(32,220,o),
(22,210,o),
(22,180,cs),
(22,70,o),
(92,-10,o),
(232,-10,cs),
(372,-10,o),
(452,60,o),
(452,200,cs),
(452,500,ls),
(452,640,o),
(372,710,o),
(232,710,cs)
);
},
{
closed = 1;
nodes = (
(262,560,o),
(272,540,o),
(272,510,cs),
(272,450,ls),
(272,420,o),
(262,400,o),
(232,400,cs),
(202,400,o),
(192,420,o),
(192,450,cs),
(192,510,ls),
(192,540,o),
(202,560,o),
(232,560,cs)
);
}
);
width = 469;
}
);
unicode = 57;
},
{
color = 5;
glyphname = period;
kernLeft = period;
kernRight = period;
layers = (
{
layerId = m01;
shapes = (
{
closed = 1;
nodes = (
(130,0,ls),
(160,0,o),
(170,10,o),
(170,40,cs),
(170,110,ls),
(170,140,o),
(160,150,o),
(130,150,cs),
(60,150,ls),
(30,150,o),
(20,140,o),
(20,110,cs),
(20,40,ls),
(20,10,o),
(30,0,o),
(60,0,cs)
);
}
);
width = 190;
},
{
layerId = "6ABCF30A-460E-4EED-802C-9E4699B7E7F6";
shapes = (
{
closed = 1;
nodes = (
(130,0,ls),
(160,0,o),
(170,10,o),
(170,40,cs),
(170,110,ls),
(170,140,o),
(160,150,o),
(130,150,cs),
(60,150,ls),
(30,150,o),
(20,140,o),
(20,110,cs),
(20,40,ls),
(20,10,o),
(30,0,o),
(60,0,cs)
);
}
);
width = 190;
}
);
unicode = 46;
},
{
color = 5;
glyphname = comma;
layers = (
{
layerId = m01;
shapes = (
{
closed = 1;
nodes = (
(132,-127,o),
(170,-54,o),
(170,20,cs),
(170,110,ls),
(170,140,o),
(160,150,o),
(130,150,cs),
(60,150,ls),
(30,150,o),
(20,140,o),
(20,110,cs),
(20,40,ls),
(20,10,o),
(30,0,o),
(60,0,cs),
(82,0,ls),
(93,0,o),
(97,-5,o),
(97,-15,cs),
(97,-49,o),
(86,-64,o),
(66,-79,cs),
(58,-85,o),
(55,-90,o),
(55,-97,cs),
(55,-112,ls),
(55,-122,o),
(60,-127,o),
(70,-127,cs)
);
}
);
width = 190;
},
{
associatedMasterId = m01;
layerId = "8B7E990B-C917-457C-AB79-DBAAEE7EB288";
name = "Sep 10, 22, 11:39";
shapes = (
{
closed = 1;
nodes = (
(184,172,o),
(169,179,o),
(158,180,o),
(147,180,qs),
(66,180,ls),
(56,180,o),
(45,178,o),
(28,172,o),
(20,154,o),
(20,140,qs),
(20,40,ls),
(20,25,o),
(46,0,o),
(62,0,qs),
(74,0,o),
(82,-6,o),
(82,-20,qs),
(82,-41,o),
(56,-71,o),
(56,-81,qs),
(56,-94,o),
(65,-100,o),
(80,-100,qs),
(113,-100,ls),
(135,-100,o),
(162,-76,o),
(173,-42,qs),
(190,10,o),
(190,39,qs),
(190,140,ls),
(190,154,o)
);
}
);
visible = 1;
width = 220;
},
{
layerId = "6ABCF30A-460E-4EED-802C-9E4699B7E7F6";
shapes = (
{
closed = 1;
nodes = (
(132,-127,o),
(170,-54,o),
(170,20,cs),
(170,110,ls),
(170,140,o),
(160,150,o),
(130,150,cs),
(60,150,ls),
(30,150,o),
(20,140,o),
(20,110,cs),
(20,40,ls),
(20,10,o),
(30,0,o),
(60,0,cs),
(82,0,ls),
(93,0,o),
(97,-5,o),
(97,-15,cs),
(97,-49,o),
(86,-64,o),
(66,-79,cs),
(58,-85,o),
(55,-90,o),
(55,-97,cs),
(55,-112,ls),
(55,-122,o),
(60,-127,o),
(70,-127,cs)
);
}
);
width = 190;
}
);
unicode = 44;
},
{
color = 5;
glyphname = exclam;
layers = (
{
layerId = m01;
shapes = (
{
closed = 1;
nodes = (
(130,240,ls),
(156,240,o),
(161,251,o),
(170,280,cs),
(184,324,o),
(200,368,o),
(200,412,cs),
(200,660,ls),
(200,690,o),
(190,700,o),
(160,700,cs),
(60,700,ls),
(30,700,o),
(20,690,o),
(20,660,cs),
(20,409,ls),
(20,366,o),
(36,323,o),
(50,280,cs),
(59,251,o),
(64,240,o),
(90,240,cs)
);
},
{
closed = 1;
nodes = (
(145,0,ls),
(175,0,o),
(185,10,o),
(185,40,cs),
(185,110,ls),
(185,140,o),
(175,150,o),
(145,150,cs),
(75,150,ls),
(45,150,o),
(35,140,o),
(35,110,cs),
(35,40,ls),
(35,10,o),
(45,0,o),
(75,0,cs)
);
}
);
width = 220;
},
{
layerId = "6ABCF30A-460E-4EED-802C-9E4699B7E7F6";
shapes = (
{
closed = 1;
nodes = (
(130,240,ls),
(156,240,o),
(161,251,o),
(170,280,cs),
(184,324,o),
(200,368,o),
(200,412,cs),
(200,660,ls),
(200,690,o),
(190,700,o),
(160,700,cs),
(60,700,ls),
(30,700,o),
(20,690,o),
(20,660,cs),
(20,409,ls),
(20,366,o),
(36,323,o),
(50,280,cs),
(59,251,o),
(64,240,o),
(90,240,cs)
);
},
{
closed = 1;
nodes = (
(145,0,ls),
(175,0,o),
(185,10,o),
(185,40,cs),
(185,110,ls),
(185,140,o),
(175,150,o),
(145,150,cs),
(75,150,ls),
(45,150,o),
(35,140,o),
(35,110,cs),
(35,40,ls),
(35,10,o),
(45,0,o),
(75,0,cs)
);
}
);
width = 220;
}
);
unicode = 33;
},
{
color = 5;
glyphname = question;
layers = (
{
layerId = m01;
shapes = (
{
closed = 1;
nodes = (
(270,210,ls),
(300,210,o),
(308,219,o),
(309,250,cs),
(310,280,ls),
(311,301,o),
(333,318,o),
(358,337,cs),
(414,379,o),
(450,410,o),
(450,500,cs),
(450,640,o),
(370,710,o),
(230,710,cs),
(90,710,o),
(20,640,o),
(20,500,cs),
(20,470,o),
(30,460,o),
(60,460,cs),
(150,460,ls),
(180,460,o),
(190,470,o),
(190,500,cs),
(190,520,ls),
(190,550,o),
(200,570,o),
(230,570,cs),
(259,570,o),
(270,540,o),
(270,510,cs),
(270,446,o),
(266,443,o),
(204,396,cs),
(139,347,o),
(130,311,o),
(130,280,cs),
(130,250,ls),
(130,221,o),
(140,210,o),
(170,210,cs)
);
},
{
closed = 1;
nodes = (
(255,0,ls),
(285,0,o),
(295,10,o),
(295,40,cs),
(295,110,ls),
(295,140,o),
(285,150,o),
(255,150,cs),
(185,150,ls),
(155,150,o),
(145,140,o),
(145,110,cs),
(145,40,ls),
(145,10,o),
(155,0,o),
(185,0,cs)
);
}
);
width = 470;
},
{
layerId = "6ABCF30A-460E-4EED-802C-9E4699B7E7F6";
shapes = (
{
closed = 1;
nodes = (
(270,210,ls),
(300,210,o),
(308,219,o),
(309,250,cs),
(310,280,ls),
(311,301,o),
(333,318,o),
(358,337,cs),
(414,379,o),
(450,410,o),
(450,500,cs),
(450,640,o),
(370,710,o),
(230,710,cs),
(90,710,o),
(20,640,o),
(20,500,cs),
(20,470,o),
(30,460,o),
(60,460,cs),
(150,460,ls),
(180,460,o),
(190,470,o),
(190,500,cs),
(190,520,ls),
(190,550,o),
(200,570,o),
(230,570,cs),
(259,570,o),
(270,540,o),
(270,510,cs),
(270,446,o),
(266,443,o),
(204,396,cs),
(139,347,o),
(130,311,o),
(130,280,cs),
(130,250,ls),
(130,221,o),
(140,210,o),
(170,210,cs)
);
},
{
closed = 1;
nodes = (
(255,0,ls),
(285,0,o),
(295,10,o),
(295,40,cs),
(295,110,ls),
(295,140,o),
(285,150,o),
(255,150,cs),
(185,150,ls),
(155,150,o),
(145,140,o),
(145,110,cs),
(145,40,ls),
(145,10,o),
(155,0,o),
(185,0,cs)
);
}
);
width = 470;
}
);
unicode = 63;
},
{
color = 4;
glyphname = periodcentered;
layers = (
{
layerId = m01;
shapes = (
{
closed = 1;
nodes = (
(180,250,ls),
(210,250,o),
(220,260,o),
(220,290,cs),
(220,380,ls),
(220,410,o),
(210,420,o),
(180,420,cs),
(80,420,ls),
(50,420,o),
(40,410,o),
(40,380,cs),
(40,290,ls),
(40,260,o),
(50,250,o),
(80,250,cs)
);
}
);
width = 260;
},
{
layerId = "6ABCF30A-460E-4EED-802C-9E4699B7E7F6";
shapes = (
{
closed = 1;
nodes = (
(180,250,ls),
(210,250,o),
(220,260,o),
(220,290,cs),
(220,380,ls),
(220,410,o),
(210,420,o),
(180,420,cs),
(80,420,ls),
(50,420,o),
(40,410,o),
(40,380,cs),
(40,290,ls),
(40,260,o),
(50,250,o),
(80,250,cs)
);
}
);
width = 260;
}
);
unicode = 183;
},
{
color = 5;
glyphname = bullet;
layers = (
{
layerId = m01;
shapes = (
{
closed = 1;
nodes = (
(253,140,o),
(320,207,o),
(320,290,cs),
(320,373,o),
(253,440,o),
(170,440,cs),
(87,440,o),
(20,373,o),
(20,290,cs),
(20,207,o),
(87,140,o),
(170,140,cs)
);
}
);
width = 340;
},
{
layerId = "6ABCF30A-460E-4EED-802C-9E4699B7E7F6";
shapes = (
{
closed = 1;
nodes = (
(253,140,o),
(320,207,o),
(320,290,cs),
(320,373,o),
(253,440,o),
(170,440,cs),
(87,440,o),
(20,373,o),
(20,290,cs),
(20,207,o),
(87,140,o),
(170,140,cs)
);
}
);
width = 340;
}
);
unicode = 8226;
},
{
color = 5;
glyphname = asterisk;
layers = (
{
layerId = m01;
shapes = (
{
closed = 1;
nodes = (
(113,387,o),
(127,389,o),
(133,398,c),
(133,399,o),
(135,400,o),
(137,405,cs),
(175,484,ls),
(178,490,o),
(179,495,o),
(183,495,cs),
(187,495,o),
(188,490,o),
(191,484,cs),
(229,405,ls),
(231,400,o),
(233,399,o),
(233,398,cs),
(239,389,o),
(253,387,o),
(264,393,c),
(296,417,ls),
(306,424,o),
(307,439,o),
(301,447,c),
(301,448,o),
(299,450,o),
(295,454,cs),
(229,515,ls),
(225,518,o),
(222,520,o),
(222,523,cs),
(222,527,o),
(228,526,o),
(233,527,cs),
(323,539,ls),
(328,540,o),
(330,541,o),
(331,541,cs),
(341,544,o),
(348,557,o),
(345,569,c),
(332,607,ls),
(328,618,o),
(315,624,o),
(305,621,c),
(304,621,o),
(302,620,o),
(297,617,cs),
(217,573,ls),
(213,571,o),
(209,566,o),
(204,566,cs),
(199,566,o),
(206,577,o),
(207,582,cs),
(224,670,ls),
(225,675,o),
(225,677,o),
(225,678,cs),
(225,689,o),
(215,700,o),
(203,700,cs),
(163,700,ls),
(151,700,o),
(141,689,o),
(141,678,cs),
(141,677,o),
(141,675,o),
(142,670,cs),
(158,583,ls),
(159,578,o),
(165,567,o),
(161,567,cs),
(157,567,o),
(154,571,o),
(150,573,cs),
(69,617,ls),
(64,620,o),
(62,621,o),
(61,621,c),
(51,624,o),
(38,618,o),
(34,607,cs),
(21,569,l),
(18,557,o),
(25,544,o),
(35,541,c),
(36,541,o),
(38,540,o),
(43,539,cs),
(131,528,ls),
(136,527,o),
(138,526,o),
(138,522,cs),
(138,520,o),
(137,517,o),
(134,514,cs),
(71,454,ls),
(67,450,o),
(65,448,o),
(65,447,cs),
(59,439,o),
(60,424,o),
(70,417,cs),
(102,393,l)
);
}
);
width = 366;
},
{
layerId = "6ABCF30A-460E-4EED-802C-9E4699B7E7F6";
shapes = (
{
closed = 1;
nodes = (
(113,387,o),
(127,389,o),
(133,398,c),
(133,399,o),
(135,400,o),
(137,405,cs),
(175,484,ls),
(178,490,o),
(179,495,o),
(183,495,cs),
(187,495,o),
(188,490,o),
(191,484,cs),
(229,405,ls),
(231,400,o),
(233,399,o),
(233,398,cs),
(239,389,o),
(253,387,o),
(264,393,c),
(296,417,ls),
(306,424,o),
(307,439,o),
(301,447,c),
(301,448,o),
(299,450,o),
(295,454,cs),
(229,515,ls),
(225,518,o),
(222,520,o),
(222,523,cs),
(222,527,o),
(228,526,o),
(233,527,cs),
(323,539,ls),
(328,540,o),
(330,541,o),
(331,541,cs),
(341,544,o),
(348,557,o),
(345,569,c),
(332,607,ls),
(328,618,o),
(315,624,o),
(305,621,c),
(304,621,o),
(302,620,o),
(297,617,cs),
(217,573,ls),
(213,571,o),
(209,566,o),
(204,566,cs),
(199,566,o),
(206,577,o),
(207,582,cs),
(224,670,ls),
(225,675,o),
(225,677,o),
(225,678,cs),
(225,689,o),
(215,700,o),
(203,700,cs),
(163,700,ls),
(151,700,o),
(141,689,o),
(141,678,cs),
(141,677,o),
(141,675,o),
(142,670,cs),
(158,583,ls),
(159,578,o),
(165,567,o),
(161,567,cs),
(157,567,o),
(154,571,o),
(150,573,cs),
(69,617,ls),
(64,620,o),
(62,621,o),
(61,621,c),
(51,624,o),
(38,618,o),
(34,607,cs),
(21,569,l),
(18,557,o),
(25,544,o),
(35,541,c),
(36,541,o),
(38,540,o),
(43,539,cs),
(131,528,ls),
(136,527,o),
(138,526,o),
(138,522,cs),
(138,520,o),
(137,517,o),
(134,514,cs),
(71,454,ls),
(67,450,o),
(65,448,o),
(65,447,cs),
(59,439,o),
(60,424,o),
(70,417,cs),
(102,393,l)
);
}
);
width = 366;
}
);
unicode = 42;
},
{
color = 5;
glyphname = hyphen;
layers = (
{
layerId = m01;
shapes = (
{
closed = 1;
nodes = (
(240,300,ls),
(270,300,o),
(280,310,o),
(280,340,cs),
(280,410,ls),
(280,440,o),
(270,450,o),
(240,450,cs),
(60,450,ls),
(30,450,o),
(20,440,o),
(20,410,cs),
(20,340,ls),
(20,310,o),
(30,300,o),
(60,300,cs)
);
}
);
width = 300;
},
{
layerId = "6ABCF30A-460E-4EED-802C-9E4699B7E7F6";
shapes = (
{
closed = 1;
nodes = (
(240,300,ls),
(270,300,o),
(280,310,o),
(280,340,cs),
(280,410,ls),
(280,440,o),
(270,450,o),
(240,450,cs),
(60,450,ls),
(30,450,o),
(20,440,o),
(20,410,cs),
(20,340,ls),
(20,310,o),
(30,300,o),
(60,300,cs)
);
}
);
width = 300;
}
);
unicode = 45;
},
{
color = 5;
glyphname = endash;
layers = (
{
layerId = m01;
shapes = (
{
closed = 1;
nodes = (
(440,280,ls),
(470,280,o),
(480,290,o),
(480,320,cs),
(480,380,ls),
(480,410,o),
(470,420,o),
(440,420,cs),
(60,420,ls),
(30,420,o),
(20,410,o),
(20,380,cs),
(20,320,ls),
(20,290,o),
(30,280,o),
(60,280,cs)
);
}
);
width = 500;
},
{
layerId = "6ABCF30A-460E-4EED-802C-9E4699B7E7F6";
shapes = (
{
closed = 1;
nodes = (
(440,280,ls),
(470,280,o),
(480,290,o),
(480,320,cs),
(480,380,ls),
(480,410,o),
(470,420,o),
(440,420,cs),
(60,420,ls),
(30,420,o),
(20,410,o),
(20,380,cs),
(20,320,ls),
(20,290,o),
(30,280,o),
(60,280,cs)
);
}
);
width = 500;
}
);
unicode = 8211;
},
{
color = 5;
glyphname = emdash;
layers = (
{
layerId = m01;
shapes = (
{
closed = 1;
nodes = (
(540,280,ls),
(570,280,o),
(580,290,o),
(580,320,cs),
(580,380,ls),
(580,410,o),
(570,420,o),
(540,420,cs),
(60,420,ls),
(30,420,o),
(20,410,o),
(20,380,cs),
(20,320,ls),
(20,290,o),
(30,280,o),
(60,280,cs)
);
}
);
width = 600;
},
{
layerId = "6ABCF30A-460E-4EED-802C-9E4699B7E7F6";
shapes = (
{
closed = 1;
nodes = (
(540,280,ls),
(570,280,o),
(580,290,o),
(580,320,cs),
(580,380,ls),
(580,410,o),
(570,420,o),
(540,420,cs),
(60,420,ls),
(30,420,o),
(20,410,o),
(20,380,cs),
(20,320,ls),
(20,290,o),
(30,280,o),
(60,280,cs)
);
}
);
width = 600;
}
);
unicode = 8212;
},
{
color = 5;
glyphname = underscore;
layers = (
{
layerId = m01;
shapes = (
{
closed = 1;
nodes = (
(440,-160,ls),
(470,-160,o),
(480,-150,o),
(480,-120,cs),
(480,-60,ls),
(480,-30,o),
(470,-20,o),
(440,-20,cs),
(60,-20,ls),
(30,-20,o),
(20,-30,o),
(20,-60,cs),
(20,-120,ls),
(20,-150,o),
(30,-160,o),
(60,-160,cs)
);
}
);
width = 500;
},
{
layerId = "6ABCF30A-460E-4EED-802C-9E4699B7E7F6";
shapes = (
{
closed = 1;
nodes = (
(440,-160,ls),
(470,-160,o),
(480,-150,o),
(480,-120,cs),
(480,-60,ls),
(480,-30,o),
(470,-20,o),
(440,-20,cs),
(60,-20,ls),
(30,-20,o),
(20,-30,o),
(20,-60,cs),
(20,-120,ls),
(20,-150,o),
(30,-160,o),
(60,-160,cs)
);
}
);
width = 500;
}
);
unicode = 95;
},
{
color = 4;
glyphname = greater;
layers = (
{
layerId = m01;
shapes = (
{
closed = 1;
nodes = (
(82,0,ls),
(102,0,o),
(120,12,o),
(142,34,cs),
(368,255,ls),
(423,308,o),
(436,325,o),
(436,350,cs),
(436,369,o),
(423,388,o),
(368,443,cs),
(142,666,ls),
(118,689,o),
(102,700,o),
(82,700,cs),
(52,700,ls),
(22,700,o),
(12,684,o),
(12,660,cs),
(12,598,ls),
(12,571,o),
(31,551,o),
(51,532,cs),
(193,398,ls),
(211,381,o),
(229,365,o),
(229,346,cs),
(229,327,o),
(210,310,o),
(193,294,cs),
(51,159,ls),
(31,140,o),
(12,120,o),
(12,93,cs),
(12,40,ls),
(12,16,o),
(22,0,o),
(52,0,cs)
);
}
);
width = 444;
},
{
layerId = "6ABCF30A-460E-4EED-802C-9E4699B7E7F6";
shapes = (
{
closed = 1;
nodes = (
(82,0,ls),
(102,0,o),
(120,12,o),
(142,34,cs),
(368,255,ls),
(423,308,o),
(436,325,o),
(436,350,cs),
(436,369,o),
(423,388,o),
(368,443,cs),
(142,666,ls),
(118,689,o),
(102,700,o),
(82,700,cs),
(52,700,ls),
(22,700,o),
(12,684,o),
(12,660,cs),
(12,598,ls),
(12,571,o),
(31,551,o),
(51,532,cs),
(193,398,ls),
(211,381,o),
(229,365,o),
(229,346,cs),
(229,327,o),
(210,310,o),
(193,294,cs),
(51,159,ls),
(31,140,o),
(12,120,o),
(12,93,cs),
(12,40,ls),
(12,16,o),
(22,0,o),
(52,0,cs)
);
}
);
width = 444;
}
);
unicode = 62;
},
{
color = 4;
glyphname = dieresiscomb;
layers = (
{
anchors = (
{
name = _top;
pos = (128,700);
},
{
name = top;
pos = (128,851);
}
);
layerId = m01;
shapes = (
{
closed = 1;
nodes = (
(226,740,ls),
(239,740,o),
(249,749,o),
(249,762,cs),
(249,830,ls),
(249,843,o),
(239,853,o),
(226,853,cs),
(168,853,ls),
(155,853,o),
(146,843,o),
(146,830,cs),
(146,762,ls),
(146,749,o),
(155,740,o),
(168,740,cs)
);
},
{
closed = 1;
nodes = (
(87,740,ls),
(100,740,o),
(110,749,o),
(110,762,cs),
(110,830,ls),
(110,843,o),
(100,853,o),
(87,853,cs),
(29,853,ls),
(16,853,o),
(7,843,o),
(7,830,cs),
(7,762,ls),
(7,749,o),
(16,740,o),
(29,740,cs)
);
}
);
width = 256;
},
{
anchors = (
{
name = _top;
pos = (128,700);
},
{
name = top;
pos = (128,851);
}
);
layerId = "6ABCF30A-460E-4EED-802C-9E4699B7E7F6";
shapes = (
{
closed = 1;
nodes = (
(226,740,ls),
(239,740,o),
(249,749,o),
(249,762,cs),
(249,830,ls),
(249,843,o),
(239,853,o),
(226,853,cs),
(168,853,ls),
(155,853,o),
(146,843,o),
(146,830,cs),
(146,762,ls),
(146,749,o),
(155,740,o),
(168,740,cs)
);
},
{
closed = 1;
nodes = (
(87,740,ls),
(100,740,o),
(110,749,o),
(110,762,cs),
(110,830,ls),
(110,843,o),
(100,853,o),
(87,853,cs),
(29,853,ls),
(16,853,o),
(7,843,o),
(7,830,cs),
(7,762,ls),
(7,749,o),
(16,740,o),
(29,740,cs)
);
}
);
width = 256;
}
);
unicode = 776;
},
{
color = 5;
glyphname = commaturnedabovecomb;
layers = (
{
anchors = (
{
name = _top;
pos = (100,700);
}
);
layerId = m01;
shapes = (
{
closed = 1;
nodes = (
(125,910,ls),
(110,910,o),
(105,915,o),
(105,930,cs),
(105,944,o),
(112,960,o),
(131,973,cs),
(143,981,o),
(155,987,o),
(155,1004,cs),
(155,1020,ls),
(155,1033,o),
(149,1040,o),
(135,1040,cs),
(62,1040,o),
(10,946,o),
(10,870,cs),
(10,780,ls),
(10,750,o),
(20,740,o),
(50,740,cs),
(150,740,ls),
(180,740,o),
(190,750,o),
(190,780,cs),
(190,870,ls),
(190,900,o),
(180,910,o),
(150,910,cs)
);
}
);
width = 200;
},
{
anchors = (
{
name = _top;
pos = (100,700);
}
);
layerId = "6ABCF30A-460E-4EED-802C-9E4699B7E7F6";
shapes = (
{
closed = 1;
nodes = (
(125,910,ls),
(110,910,o),
(105,915,o),
(105,930,cs),
(105,944,o),
(112,960,o),
(131,973,cs),
(143,981,o),
(155,987,o),
(155,1004,cs),
(155,1020,ls),
(155,1033,o),
(149,1040,o),
(135,1040,cs),
(62,1040,o),
(10,946,o),
(10,870,cs),
(10,780,ls),
(10,750,o),
(20,740,o),
(50,740,cs),
(150,740,ls),
(180,740,o),
(190,750,o),
(190,780,cs),
(190,870,ls),
(190,900,o),
(180,910,o),
(150,910,cs)
);
}
);
width = 200;
}
);
unicode = 786;
},
{
color = 5;
glyphname = dieresiscomb.case;
layers = (
{
anchors = (
{
name = _top;
pos = (128,700);
},
{
name = top;
pos = (128,851);
}
);
layerId = m01;
shapes = (
{
closed = 1;
nodes = (
(226,740,ls),
(239,740,o),
(249,749,o),
(249,762,cs),
(249,830,ls),
(249,843,o),
(239,853,o),
(226,853,cs),
(168,853,ls),
(155,853,o),
(146,843,o),
(146,830,cs),
(146,762,ls),
(146,749,o),
(155,740,o),
(168,740,cs)
);
},
{
closed = 1;
nodes = (
(87,740,ls),
(100,740,o),
(110,749,o),
(110,762,cs),
(110,830,ls),
(110,843,o),
(100,853,o),
(87,853,cs),
(29,853,ls),
(16,853,o),
(7,843,o),
(7,830,cs),
(7,762,ls),
(7,749,o),
(16,740,o),
(29,740,cs)
);
}
);
width = 256;
},
{
anchors = (
{
name = _top;
pos = (128,700);
},
{
name = top;
pos = (128,851);
}
);
layerId = "6ABCF30A-460E-4EED-802C-9E4699B7E7F6";
shapes = (
{
closed = 1;
nodes = (
(226,740,ls),
(239,740,o),
(249,749,o),
(249,762,cs),
(249,830,ls),
(249,843,o),
(239,853,o),
(226,853,cs),
(168,853,ls),
(155,853,o),
(146,843,o),
(146,830,cs),
(146,762,ls),
(146,749,o),
(155,740,o),
(168,740,cs)
);
},
{
closed = 1;
nodes = (
(87,740,ls),
(100,740,o),
(110,749,o),
(110,762,cs),
(110,830,ls),
(110,843,o),
(100,853,o),
(87,853,cs),
(29,853,ls),
(16,853,o),
(7,843,o),
(7,830,cs),
(7,762,ls),
(7,749,o),
(16,740,o),
(29,740,cs)
);
}
);
width = 256;
}
);
},
{
color = 5;
glyphname = dotaccentcomb.case;
layers = (
{
anchors = (
{
name = _top;
pos = (128,700);
},
{
name = top;
pos = (128,851);
}
);
layerId = m01;
shapes = (
{
closed = 1;
nodes = (
(176,740,ls),
(189,740,o),
(199,749,o),
(199,762,cs),
(199,830,ls),
(199,843,o),
(189,853,o),
(176,853,cs),
(79,853,ls),
(66,853,o),
(57,843,o),
(57,830,cs),
(57,762,ls),
(57,749,o),
(66,740,o),
(79,740,cs)
);
}
);
width = 256;
},
{
anchors = (
{
name = _top;
pos = (128,700);
},
{
name = top;
pos = (128,851);
}
);
layerId = "6ABCF30A-460E-4EED-802C-9E4699B7E7F6";
shapes = (
{
closed = 1;
nodes = (
(176,740,ls),
(189,740,o),
(199,749,o),
(199,762,cs),
(199,830,ls),
(199,843,o),
(189,853,o),
(176,853,cs),
(79,853,ls),
(66,853,o),
(57,843,o),
(57,830,cs),
(57,762,ls),
(57,749,o),
(66,740,o),
(79,740,cs)
);
}
);
width = 256;
}
);
},
{
color = 5;
glyphname = gravecomb.case;
layers = (
{
anchors = (
{
name = _top;
pos = (125,700);
},
{
name = top;
pos = (72,879);
}
);
layerId = m01;
shapes = (
{
closed = 1;
nodes = (
(180,740,o),
(185,750,o),
(185,760,cs),
(185,765,o),
(182,771,o),
(175,786,cs),
(145,849,ls),
(130,880,o),
(125,879,o),
(105,879,cs),
(18,879,ls),
(-2,879,o),
(-12,873,o),
(-12,859,cs),
(-12,849,o),
(-6,842,o),
(2,831,cs),
(58,760,ls),
(75,739,o),
(85,740,o),
(95,740,cs),
(165,740,ls)
);
}
);
width = 256;
},
{
anchors = (
{
name = _top;
pos = (125,700);
},
{
name = top;
pos = (85,890);
}
);
layerId = "6ABCF30A-460E-4EED-802C-9E4699B7E7F6";
shapes = (
{
closed = 1;
nodes = (
(180,740,o),
(185,750,o),
(185,760,cs),
(185,765,o),
(182,771,o),
(175,786,cs),
(145,849,ls),
(130,880,o),
(125,879,o),
(105,879,cs),
(18,879,ls),
(-2,879,o),
(-12,873,o),
(-12,859,cs),
(-12,849,o),
(-6,842,o),
(2,831,cs),
(58,760,ls),
(75,739,o),
(85,740,o),
(95,740,cs),
(165,740,ls)
);
}
);
width = 256;
}
);
},
{
color = 5;
glyphname = acutecomb.case;
layers = (
{
anchors = (
{
name = _top;
pos = (120,700);
}
);
layerId = m01;
shapes = (
{
closed = 1;
nodes = (
(153,740,ls),
(163,740,o),
(173,739,o),
(190,760,cs),
(246,831,ls),
(254,842,o),
(260,849,o),
(260,859,cs),
(260,873,o),
(250,879,o),
(230,879,cs),
(143,879,ls),
(123,879,o),
(118,880,o),
(103,849,cs),
(73,786,ls),
(66,771,o),
(63,765,o),
(63,760,cs),
(63,750,o),
(68,740,o),
(83,740,cs)
);
}
);
width = 240;
},
{
anchors = (
{
name = _top;
pos = (120,700);
}
);
layerId = "6ABCF30A-460E-4EED-802C-9E4699B7E7F6";
shapes = (
{
closed = 1;
nodes = (
(153,740,ls),
(163,740,o),
(173,739,o),
(190,760,cs),
(246,831,ls),
(254,842,o),
(260,849,o),
(260,859,cs),
(260,873,o),
(250,879,o),
(230,879,cs),
(143,879,ls),
(123,879,o),
(118,880,o),
(103,849,cs),
(73,786,ls),
(66,771,o),
(63,765,o),
(63,760,cs),
(63,750,o),
(68,740,o),
(83,740,cs)
);
}
);
width = 240;
}
);
},
{
color = 5;
glyphname = hungarumlautcomb.case;
layers = (
{
anchors = (
{
name = _top;
pos = (120,700);
}
);
layerId = m01;
shapes = (
{
closed = 1;
nodes = (
(53,740,ls),
(63,740,o),
(73,739,o),
(90,760,cs),
(146,831,ls),
(154,842,o),
(160,849,o),
(160,859,cs),
(160,873,o),
(150,879,o),
(130,879,cs),
(43,879,ls),
(23,879,o),
(18,880,o),
(3,849,cs),
(-27,786,ls),
(-34,771,o),
(-37,765,o),
(-37,760,cs),
(-37,750,o),
(-32,740,o),
(-17,740,cs)
);
},
{
closed = 1;
nodes = (
(253,740,ls),
(263,740,o),
(273,739,o),
(290,760,cs),
(346,831,ls),
(354,842,o),
(360,849,o),
(360,859,cs),
(360,873,o),
(350,879,o),
(330,879,cs),
(243,879,ls),
(223,879,o),
(218,880,o),
(203,849,cs),
(173,786,ls),
(166,771,o),
(163,765,o),
(163,760,cs),
(163,750,o),
(168,740,o),
(183,740,cs)
);
}
);
width = 240;
},
{
anchors = (
{
name = _top;
pos = (120,700);
}
);
layerId = "6ABCF30A-460E-4EED-802C-9E4699B7E7F6";
shapes = (
{
closed = 1;
nodes = (
(53,740,ls),
(63,740,o),
(73,739,o),
(90,760,cs),
(146,831,ls),
(154,842,o),
(160,849,o),
(160,859,cs),
(160,873,o),
(150,879,o),
(130,879,cs),
(43,879,ls),
(23,879,o),
(18,880,o),
(3,849,cs),
(-27,786,ls),
(-34,771,o),
(-37,765,o),
(-37,760,cs),
(-37,750,o),
(-32,740,o),
(-17,740,cs)
);
},
{
closed = 1;
nodes = (
(253,740,ls),
(263,740,o),
(273,739,o),
(290,760,cs),
(346,831,ls),
(354,842,o),
(360,849,o),
(360,859,cs),
(360,873,o),
(350,879,o),
(330,879,cs),
(243,879,ls),
(223,879,o),
(218,880,o),
(203,849,cs),
(173,786,ls),
(166,771,o),
(163,765,o),
(163,760,cs),
(163,750,o),
(168,740,o),
(183,740,cs)
);
}
);
width = 240;
}
);
},
{
color = 5;
glyphname = circumflexcomb.case;
layers = (
{
anchors = (
{
name = _top;
pos = (130,700);
},
{
name = top;
pos = (130,870);
}
);
layerId = m01;
shapes = (
{
closed = 1;
nodes = (
(30,740,ls),
(45,740,o),
(53,749,o),
(70,760,cs),
(110,785,ls),
(119,791,o),
(124,794,o),
(130,794,cs),
(136,794,o),
(143,791,o),
(150,786,cs),
(190,760,ls),
(206,750,o),
(215,740,o),
(230,740,cs),
(245,740,ls),
(258,740,o),
(265,745,o),
(265,754,cs),
(265,766,o),
(257,779,o),
(245,795,cs),
(204,850,ls),
(188,871,o),
(177,880,o),
(160,880,cs),
(100,880,ls),
(83,880,o),
(66,871,o),
(52,850,cs),
(14,795,ls),
(3,779,o),
(-5,767,o),
(-5,754,cs),
(-5,745,o),
(2,740,o),
(15,740,cs)
);
}
);
width = 260;
},
{
anchors = (
{
name = _top;
pos = (130,700);
},
{
name = top;
pos = (130,870);
}
);
layerId = "6ABCF30A-460E-4EED-802C-9E4699B7E7F6";
shapes = (
{
closed = 1;
nodes = (
(30,740,ls),
(45,740,o),
(53,749,o),
(70,760,cs),
(110,785,ls),
(119,791,o),
(124,794,o),
(130,794,cs),
(136,794,o),
(143,791,o),
(150,786,cs),
(190,760,ls),
(206,750,o),
(215,740,o),
(230,740,cs),
(245,740,ls),
(258,740,o),
(265,745,o),
(265,754,cs),
(265,766,o),
(257,779,o),
(245,795,cs),
(204,850,ls),
(188,871,o),
(177,880,o),
(160,880,cs),
(100,880,ls),
(83,880,o),
(66,871,o),
(52,850,cs),
(14,795,ls),
(3,779,o),
(-5,767,o),
(-5,754,cs),
(-5,745,o),
(2,740,o),
(15,740,cs)
);
}
);
width = 260;
}
);
},
{
color = 5;
glyphname = caroncomb.case;
layers = (
{
anchors = (
{
name = _top;
pos = (130,700);
},
{
name = top;
pos = (130,870);
}
);
layerId = m01;
shapes = (
{
closed = 1;
nodes = (
(230,880,ls),
(215,880,o),
(207,871,o),
(190,860,cs),
(150,835,ls),
(141,829,o),
(136,826,o),
(130,826,cs),
(124,826,o),
(117,829,o),
(110,834,cs),
(70,860,ls),
(54,870,o),
(45,880,o),
(30,880,cs),
(15,880,ls),
(2,880,o),
(-5,875,o),
(-5,866,cs),
(-5,854,o),
(3,841,o),
(15,825,cs),
(56,770,ls),
(72,749,o),
(83,740,o),
(100,740,cs),
(160,740,ls),
(177,740,o),
(194,749,o),
(208,770,cs),
(246,825,ls),
(257,841,o),
(265,853,o),
(265,866,cs),
(265,875,o),
(258,880,o),
(245,880,cs)
);
}
);
width = 260;
},
{
anchors = (
{
name = _top;
pos = (130,700);
},
{
name = top;
pos = (130,870);
}
);
layerId = "6ABCF30A-460E-4EED-802C-9E4699B7E7F6";
shapes = (
{
closed = 1;
nodes = (
(230,880,ls),
(215,880,o),
(207,871,o),
(190,860,cs),
(150,835,ls),
(141,829,o),
(136,826,o),
(130,826,cs),
(124,826,o),
(117,829,o),
(110,834,cs),
(70,860,ls),
(54,870,o),
(45,880,o),
(30,880,cs),
(15,880,ls),
(2,880,o),
(-5,875,o),
(-5,866,cs),
(-5,854,o),
(3,841,o),
(15,825,cs),
(56,770,ls),
(72,749,o),
(83,740,o),
(100,740,cs),
(160,740,ls),
(177,740,o),
(194,749,o),
(208,770,cs),
(246,825,ls),
(257,841,o),
(265,853,o),
(265,866,cs),
(265,875,o),
(258,880,o),
(245,880,cs)
);
}
);
width = 260;
}
);
},
{
color = 5;
glyphname = brevecomb.case;
layers = (
{
anchors = (
{
name = _top;
pos = (120,700);
}
);
layerId = m01;
shapes = (
{
closed = 1;
nodes = (
(200,730,o),
(240,770,o),
(240,830,cs),
(240,845,o),
(235,850,o),
(220,850,cs),
(176,850,ls),
(161,850,o),
(156,845,o),
(156,830,cs),
(156,810,o),
(140,800,o),
(120,800,cs),
(100,800,o),
(84,810,o),
(84,830,cs),
(84,845,o),
(79,850,o),
(64,850,cs),
(20,850,ls),
(5,850,o),
(0,845,o),
(0,830,cs),
(0,770,o),
(40,730,o),
(120,730,cs)
);
}
);
width = 240;
},
{
anchors = (
{
name = _top;
pos = (120,700);
}
);
layerId = "6ABCF30A-460E-4EED-802C-9E4699B7E7F6";
shapes = (
{
closed = 1;
nodes = (
(200,730,o),
(240,770,o),
(240,830,cs),
(240,845,o),
(235,850,o),
(220,850,cs),
(176,850,ls),
(161,850,o),
(156,845,o),
(156,830,cs),
(156,810,o),
(140,800,o),
(120,800,cs),
(100,800,o),
(84,810,o),
(84,830,cs),
(84,845,o),
(79,850,o),
(64,850,cs),
(20,850,ls),
(5,850,o),
(0,845,o),
(0,830,cs),
(0,770,o),
(40,730,o),
(120,730,cs)
);
}
);
width = 240;
}
);
},
{
color = 5;
glyphname = ringcomb.case;
layers = (
{
anchors = (
{
name = _top;
pos = (125,700);
},
{
name = top;
pos = (125,866);
}
);
layerId = m01;
shapes = (
{
closed = 1;
nodes = (
(169,740,o),
(205,771,o),
(205,815,cs),
(205,859,o),
(169,890,o),
(125,890,cs),
(81,890,o),
(45,859,o),
(45,815,cs),
(45,771,o),
(81,740,o),
(125,740,cs)
);
},
{
closed = 1;
nodes = (
(108,785,o),
(95,798,o),
(95,815,cs),
(95,832,o),
(108,845,o),
(125,845,cs),
(142,845,o),
(155,832,o),
(155,815,cs),
(155,798,o),
(142,785,o),
(125,785,cs)
);
}
);
width = 256;
},
{
anchors = (
{
name = _top;
pos = (125,700);
},
{
name = top;
pos = (125,866);
}
);
layerId = "6ABCF30A-460E-4EED-802C-9E4699B7E7F6";
shapes = (
{
closed = 1;
nodes = (
(169,740,o),
(205,771,o),
(205,815,cs),
(205,859,o),
(169,890,o),
(125,890,cs),
(81,890,o),
(45,859,o),
(45,815,cs),
(45,771,o),
(81,740,o),
(125,740,cs)
);
},
{
closed = 1;
nodes = (
(108,785,o),
(95,798,o),
(95,815,cs),
(95,832,o),
(108,845,o),
(125,845,cs),
(142,845,o),
(155,832,o),
(155,815,cs),
(155,798,o),
(142,785,o),
(125,785,cs)
);
}
);
width = 256;
}
);
},
{
color = 5;
glyphname = tildecomb.case;
layers = (
{
anchors = (
{
name = _top;
pos = (125,700);
},
{
name = top;
pos = (153,890);
}
);
layerId = m01;
shapes = (
{
closed = 1;
nodes = (
(60,750,o),
(76,800,o),
(103,800,cs),
(142,800,o),
(159,764,o),
(196,764,cs),
(233,764,o),
(266,833,o),
(266,850,cs),
(266,875,o),
(263,885,o),
(243,885,cs),
(229,885,o),
(198,850,o),
(187,850,cs),
(148,850,o),
(132,890,o),
(93,890,cs),
(63,890,o),
(2,810,o),
(2,790,cs),
(2,767,o),
(8,750,o),
(27,750,cs)
);
}
);
width = 256;
},
{
anchors = (
{
name = _top;
pos = (125,700);
},
{
name = top;
pos = (153,890);
}
);
layerId = "6ABCF30A-460E-4EED-802C-9E4699B7E7F6";
shapes = (
{
closed = 1;
nodes = (
(60,750,o),
(76,800,o),
(103,800,cs),
(142,800,o),
(159,764,o),
(196,764,cs),
(233,764,o),
(266,833,o),
(266,850,cs),
(266,875,o),
(263,885,o),
(243,885,cs),
(229,885,o),
(198,850,o),
(187,850,cs),
(148,850,o),
(132,890,o),
(93,890,cs),
(63,890,o),
(2,810,o),
(2,790,cs),
(2,767,o),
(8,750,o),
(27,750,cs)
);
}
);
width = 256;
}
);
},
{
color = 5;
glyphname = macroncomb.case;
layers = (
{
anchors = (
{
name = _top;
pos = (175,700);
},
{
name = top;
pos = (175,851);
}
);
layerId = m01;
shapes = (
{
closed = 1;
nodes = (
(327,740,ls),
(340,740,o),
(350,749,o),
(350,762,cs),
(350,830,ls),
(350,843,o),
(340,853,o),
(327,853,cs),
(22,853,ls),
(9,853,o),
(0,843,o),
(0,830,cs),
(0,762,ls),
(0,749,o),
(9,740,o),
(22,740,cs)
);
}
);
width = 350;
},
{
anchors = (
{
name = _top;
pos = (128,700);
},
{
name = top;
pos = (128,851);
}
);
layerId = "6ABCF30A-460E-4EED-802C-9E4699B7E7F6";
shapes = (
{
closed = 1;
nodes = (
(226,740,ls),
(239,740,o),
(249,749,o),
(249,762,cs),
(249,830,ls),
(249,843,o),
(239,853,o),
(226,853,cs),
(29,853,ls),
(16,853,o),
(7,843,o),
(7,830,cs),
(7,762,ls),
(7,749,o),
(16,740,o),
(29,740,cs)
);
}
);
width = 256;
}
);
},
{
color = 5;
glyphname = commaaccentcomb.case;
layers = (
{
anchors = (
{
name = _bottom;
pos = (300,-1);
}
);
layerId = m01;
shapes = (
{
closed = 1;
nodes = (
(275,-225,ls),
(290,-225,o),
(295,-230,o),
(295,-245,cs),
(295,-259,o),
(288,-275,o),
(269,-288,cs),
(257,-296,o),
(245,-302,o),
(245,-319,cs),
(245,-335,ls),
(245,-348,o),
(251,-355,o),
(265,-355,cs),
(338,-355,o),
(390,-261,o),
(390,-185,cs),
(390,-95,ls),
(390,-65,o),
(380,-55,o),
(350,-55,cs),
(250,-55,ls),
(220,-55,o),
(210,-65,o),
(210,-95,cs),
(210,-185,ls),
(210,-215,o),
(220,-225,o),
(250,-225,cs)
);
}
);
width = 600;
},
{
anchors = (
{
name = _bottom;
pos = (300,-1);
}
);
layerId = "6ABCF30A-460E-4EED-802C-9E4699B7E7F6";
shapes = (
{
closed = 1;
nodes = (
(275,-225,ls),
(290,-225,o),
(295,-230,o),
(295,-245,cs),
(295,-259,o),
(288,-275,o),
(269,-288,cs),
(257,-296,o),
(245,-302,o),
(245,-319,cs),
(245,-335,ls),
(245,-348,o),
(251,-355,o),
(265,-355,cs),
(338,-355,o),
(390,-261,o),
(390,-185,cs),
(390,-95,ls),
(390,-65,o),
(380,-55,o),
(350,-55,cs),
(250,-55,ls),
(220,-55,o),
(210,-65,o),
(210,-95,cs),
(210,-185,ls),
(210,-215,o),
(220,-225,o),
(250,-225,cs)
);
}
);
width = 600;
}
);
},
{
color = 5;
glyphname = dieresis;
layers = (
{
layerId = m01;
shapes = (
{
closed = 1;
nodes = (
(283,627,ls),
(296,627,o),
(306,636,o),
(306,649,cs),
(306,687,ls),
(306,700,o),
(296,710,o),
(283,710,cs),
(245,710,ls),
(232,710,o),
(223,700,o),
(223,687,cs),
(223,649,ls),
(223,636,o),
(232,627,o),
(245,627,cs)
);
},
{
closed = 1;
nodes = (
(130,627,ls),
(143,627,o),
(153,636,o),
(153,649,cs),
(153,687,ls),
(153,700,o),
(143,710,o),
(130,710,cs),
(92,710,ls),
(79,710,o),
(70,700,o),
(70,687,cs),
(70,649,ls),
(70,636,o),
(79,627,o),
(92,627,cs)
);
}
);
width = 376;
},
{
layerId = "6ABCF30A-460E-4EED-802C-9E4699B7E7F6";
shapes = (
{
closed = 1;
nodes = (
(283,627,ls),
(296,627,o),
(306,636,o),
(306,649,cs),
(306,687,ls),
(306,700,o),
(296,710,o),
(283,710,cs),
(245,710,ls),
(232,710,o),
(223,700,o),
(223,687,cs),
(223,649,ls),
(223,636,o),
(232,627,o),
(245,627,cs)
);
},
{
closed = 1;
nodes = (
(130,627,ls),
(143,627,o),
(153,636,o),
(153,649,cs),
(153,687,ls),
(153,700,o),
(143,710,o),
(130,710,cs),
(92,710,ls),
(79,710,o),
(70,700,o),
(70,687,cs),
(70,649,ls),
(70,636,o),
(79,627,o),
(92,627,cs)
);
}
);
width = 600;
}
);
unicode = 168;
userData = {
com.typemytype.robofont.guides = (
{
angle = 0;
isGlobal = 0;
magnetic = 5;
x = 0;
y = 575;
},
{
angle = 90;
isGlobal = 0;
magnetic = 5;
x = 153;
y = 0;
}
);
};
},
{
color = 5;
glyphname = grave;
layers = (
{
layerId = m01;
shapes = (
{
closed = 1;
nodes = (
(225,595,ls),
(235,595,o),
(241,601,o),
(241,611,cs),
(241,616,o),
(239,621,o),
(236,624,cs),
(167,707,ls),
(156,720,o),
(150,725,o),
(130,725,cs),
(89,725,ls),
(77,725,o),
(70,718,o),
(70,706,cs),
(70,701,o),
(72,697,o),
(75,694,cs),
(184,605,ls),
(195,596,o),
(202,595,o),
(215,595,cs)
);
}
);
width = 311;
},
{
layerId = "6ABCF30A-460E-4EED-802C-9E4699B7E7F6";
shapes = (
{
closed = 1;
nodes = (
(225,595,ls),
(235,595,o),
(241,601,o),
(241,611,cs),
(241,616,o),
(239,621,o),
(236,624,cs),
(167,707,ls),
(156,720,o),
(150,725,o),
(130,725,cs),
(89,725,ls),
(77,725,o),
(70,718,o),
(70,706,cs),
(70,701,o),
(72,697,o),
(75,694,cs),
(184,605,ls),
(195,596,o),
(202,595,o),
(215,595,cs)
);
}
);
width = 600;
}
);
unicode = 96;
userData = {
com.typemytype.robofont.guides = (
{
angle = 0;
isGlobal = 0;
magnetic = 5;
x = 0;
y = 595;
},
{
angle = 0;
isGlobal = 0;
magnetic = 5;
x = 0;
y = 725;
}
);
};
},
{
color = 5;
glyphname = acute;
layers = (
{
layerId = m01;
shapes = (
{
closed = 1;
nodes = (
(96,595,ls),
(109,595,o),
(116,596,o),
(127,605,cs),
(236,694,ls),
(239,697,o),
(241,701,o),
(241,706,cs),
(241,718,o),
(234,725,o),
(222,725,cs),
(181,725,ls),
(161,725,o),
(155,720,o),
(144,707,cs),
(75,624,ls),
(72,621,o),
(70,616,o),
(70,611,cs),
(70,601,o),
(76,595,o),
(86,595,cs)
);
}
);
width = 311;
},
{
layerId = "6ABCF30A-460E-4EED-802C-9E4699B7E7F6";
shapes = (
{
closed = 1;
nodes = (
(96,595,ls),
(109,595,o),
(116,596,o),
(127,605,cs),
(236,694,ls),
(239,697,o),
(241,701,o),
(241,706,cs),
(241,718,o),
(234,725,o),
(222,725,cs),
(181,725,ls),
(161,725,o),
(155,720,o),
(144,707,cs),
(75,624,ls),
(72,621,o),
(70,616,o),
(70,611,cs),
(70,601,o),
(76,595,o),
(86,595,cs)
);
}
);
width = 600;
}
);
unicode = 180;
userData = {
com.typemytype.robofont.guides = (
{
angle = 0;
isGlobal = 0;
magnetic = 5;
x = 0;
y = 595;
}
);
};
},
{
color = 5;
glyphname = circumflex;
layers = (
{
layerId = m01;
shapes = (
{
closed = 1;
nodes = (
(101,595,ls),
(109,595,o),
(121,598,o),
(126,602,cs),
(206,662,l),
(286,602,ls),
(291,598,o),
(303,595,o),
(311,595,cs),
(328,595,ls),
(338,595,o),
(342,598,o),
(342,606,cs),
(342,612,o),
(338,618,o),
(330,626,cs),
(243,711,ls),
(229,725,o),
(221,725,o),
(211,725,cs),
(201,725,ls),
(191,725,o),
(183,725,o),
(169,711,cs),
(82,626,ls),
(74,618,o),
(70,612,o),
(70,606,cs),
(70,598,o),
(74,595,o),
(84,595,cs)
);
}
);
width = 412;
},
{
layerId = "6ABCF30A-460E-4EED-802C-9E4699B7E7F6";
shapes = (
{
closed = 1;
nodes = (
(101,595,ls),
(109,595,o),
(121,598,o),
(126,602,cs),
(206,662,l),
(286,602,ls),
(291,598,o),
(303,595,o),
(311,595,cs),
(328,595,ls),
(338,595,o),
(342,598,o),
(342,606,cs),
(342,612,o),
(338,618,o),
(330,626,cs),
(243,711,ls),
(229,725,o),
(221,725,o),
(211,725,cs),
(201,725,ls),
(191,725,o),
(183,725,o),
(169,711,cs),
(82,626,ls),
(74,618,o),
(70,612,o),
(70,606,cs),
(70,598,o),
(74,595,o),
(84,595,cs)
);
}
);
width = 600;
}
);
unicode = 710;
userData = {
com.typemytype.robofont.guides = (
{
angle = 0;
isGlobal = 0;
magnetic = 5;
x = 0;
y = 595;
}
);
};
},
{
color = 5;
glyphname = caron;
layers = (
{
layerId = m01;
shapes = (
{
closed = 1;
nodes = (
(390,660,ls),
(375,660,o),
(367,651,o),
(350,640,cs),
(310,615,ls),
(301,609,o),
(296,606,o),
(290,606,cs),
(284,606,o),
(277,609,o),
(270,614,cs),
(230,640,ls),
(214,650,o),
(205,660,o),
(190,660,cs),
(175,660,ls),
(162,660,o),
(155,655,o),
(155,646,cs),
(155,634,o),
(163,621,o),
(175,605,cs),
(216,550,ls),
(232,529,o),
(243,520,o),
(260,520,cs),
(320,520,ls),
(337,520,o),
(354,529,o),
(368,550,cs),
(406,605,ls),
(417,621,o),
(425,633,o),
(425,646,cs),
(425,655,o),
(418,660,o),
(405,660,cs)
);
}
);
width = 600;
},
{
layerId = "6ABCF30A-460E-4EED-802C-9E4699B7E7F6";
shapes = (
{
closed = 1;
nodes = (
(390,660,ls),
(375,660,o),
(367,651,o),
(350,640,cs),
(310,615,ls),
(301,609,o),
(296,606,o),
(290,606,cs),
(284,606,o),
(277,609,o),
(270,614,cs),
(230,640,ls),
(214,650,o),
(205,660,o),
(190,660,cs),
(175,660,ls),
(162,660,o),
(155,655,o),
(155,646,cs),
(155,634,o),
(163,621,o),
(175,605,cs),
(216,550,ls),
(232,529,o),
(243,520,o),
(260,520,cs),
(320,520,ls),
(337,520,o),
(354,529,o),
(368,550,cs),
(406,605,ls),
(417,621,o),
(425,633,o),
(425,646,cs),
(425,655,o),
(418,660,o),
(405,660,cs)
);
}
);
width = 600;
}
);
unicode = 711;
},
{
color = 5;
glyphname = ring;
layers = (
{
layerId = m01;
shapes = (
{
closed = 1;
nodes = (
(194,590,o),
(230,621,o),
(230,665,cs),
(230,709,o),
(194,740,o),
(150,740,cs),
(106,740,o),
(70,709,o),
(70,665,cs),
(70,621,o),
(106,590,o),
(150,590,cs)
);
},
{
closed = 1;
nodes = (
(133,635,o),
(120,648,o),
(120,665,cs),
(120,682,o),
(133,695,o),
(150,695,cs),
(167,695,o),
(180,682,o),
(180,665,cs),
(180,648,o),
(167,635,o),
(150,635,cs)
);
}
);
width = 300;
},
{
layerId = "6ABCF30A-460E-4EED-802C-9E4699B7E7F6";
shapes = (
{
closed = 1;
nodes = (
(194,590,o),
(230,621,o),
(230,665,cs),
(230,709,o),
(194,740,o),
(150,740,cs),
(106,740,o),
(70,709,o),
(70,665,cs),
(70,621,o),
(106,590,o),
(150,590,cs)
);
},
{
closed = 1;
nodes = (
(133,635,o),
(120,648,o),
(120,665,cs),
(120,682,o),
(133,695,o),
(150,695,cs),
(167,695,o),
(180,682,o),
(180,665,cs),
(180,648,o),
(167,635,o),
(150,635,cs)
);
}
);
width = 600;
}
);
unicode = 730;
userData = {
com.typemytype.robofont.guides = (
{
angle = 0;
isGlobal = 0;
magnetic = 5;
x = 0;
y = 590;
}
);
};
},
{
color = 5;
glyphname = tilde;
layers = (
{
layerId = m01;
shapes = (
{
closed = 1;
nodes = (
(277,590,o),
(309,626,o),
(309,664,cs),
(309,672,o),
(303,680,o),
(293,680,cs),
(273,680,ls),
(251,680,o),
(256,650,o),
(232,650,cs),
(203,650,o),
(188,684,o),
(141,684,cs),
(100,684,o),
(70,649,o),
(70,611,cs),
(70,603,o),
(76,595,o),
(86,595,cs),
(106,595,ls),
(127,595,o),
(124,624,o),
(147,624,cs),
(175,624,o),
(191,590,o),
(237,590,cs)
);
}
);
width = 379;
},
{
layerId = "6ABCF30A-460E-4EED-802C-9E4699B7E7F6";
shapes = (
{
closed = 1;
nodes = (
(277,590,o),
(309,626,o),
(309,664,cs),
(309,672,o),
(303,680,o),
(293,680,cs),
(273,680,ls),
(251,680,o),
(256,650,o),
(232,650,cs),
(203,650,o),
(188,684,o),
(141,684,cs),
(100,684,o),
(70,649,o),
(70,611,cs),
(70,603,o),
(76,595,o),
(86,595,cs),
(106,595,ls),
(127,595,o),
(124,624,o),
(147,624,cs),
(175,624,o),
(191,590,o),
(237,590,cs)
);
}
);
width = 600;
}
);
unicode = 732;
userData = {
com.typemytype.robofont.guides = (
{
angle = 0;
isGlobal = 0;
magnetic = 5;
x = 0;
y = 680;
},
{
angle = 0;
isGlobal = 0;
magnetic = 5;
x = 0;
y = 595;
},
{
angle = 90;
isGlobal = 0;
magnetic = 5;
x = 179;
y = 0;
}
);
};
},
